<svg width="28" height="28" viewBox="0 0 28 28" fill="none" xmlns="http://www.w3.org/2000/svg">
<path d="M7.56689 19.0184L9.43933 22.258C9.84428 22.9565 10.7508 23.2165 11.4678 22.8004C12.1774 22.388 12.4226 21.4815 12.0102 20.772L10.8957 18.8401L11.8616 18.2828C12.0399 18.1788 12.0994 17.9521 11.9991 17.7738L11.5161 16.9379C11.5755 16.9268 11.9508 16.8525 18.6306 15.541C19.4554 15.4964 19.9495 14.5936 19.5334 13.8729L18.3 11.733L19.0876 10.5367C19.1656 10.4178 19.1693 10.2692 19.0987 10.1466L18.3557 8.86116C18.2851 8.73856 18.1514 8.66797 18.0102 8.6754L16.5799 8.76085L15.209 6.38686C15.0121 6.04135 14.6554 5.83331 14.2579 5.82959C14.2542 5.82959 14.2467 5.82959 14.243 5.82959C13.8604 5.82959 13.5111 6.01906 13.3031 6.34228L8.45481 12.528L5.30064 14.3484C4.05978 15.0655 3.62882 16.6556 4.34956 17.9001C5.00714 19.0407 6.38918 19.4865 7.56689 19.0184ZM11.3675 21.1435C11.5718 21.5001 11.4529 21.9534 11.0963 22.1577C10.7396 22.3658 10.2827 22.2357 10.082 21.8865L8.22447 18.6692L9.50991 17.9261C11.661 21.6487 11.3341 21.084 11.3675 21.1435ZM10.5242 18.1974L10.1526 17.5546L10.7954 17.1831L11.1669 17.8258L10.5242 18.1974ZM17.8282 9.43329L18.3408 10.3212L17.8839 11.0159L16.9997 9.48159L17.8282 9.43329ZM13.931 6.75466C14.0313 6.5912 14.1873 6.57634 14.2542 6.57634C14.3173 6.57634 14.4771 6.59863 14.57 6.76209L18.8907 14.2481C19.0319 14.4933 18.861 14.798 18.5786 14.8054C18.5266 14.8054 18.5043 14.8166 18.3743 14.8388L13.8046 6.92185C13.8975 6.79553 13.9124 6.78439 13.931 6.75466ZM13.3105 7.54971L17.6052 14.9875L11.1223 16.258L9.15326 12.8438L13.3105 7.54971ZM4.99228 17.5323C4.82881 17.25 4.74337 16.9305 4.74337 16.6073C4.74337 15.946 5.10002 15.3292 5.67216 14.9949L8.56626 13.3231L10.4238 16.5404L7.52973 18.2122C6.64181 18.7212 5.50497 18.4165 4.99228 17.5323Z" fill="black"/>
<path d="M22.4684 6.62459L20.3991 7.77629C20.2207 7.8766 20.1539 8.10322 20.2542 8.28155C20.3545 8.45988 20.5811 8.52675 20.7594 8.42644L22.8288 7.27474C23.0071 7.17443 23.074 6.94781 22.9737 6.76948C22.8771 6.59115 22.6504 6.528 22.4684 6.62459Z" fill="black"/>
<path d="M22.253 10.4735L20.819 10.0908C20.6221 10.0388 20.4177 10.154 20.3657 10.3546C20.3137 10.5552 20.4289 10.7558 20.6295 10.8079L22.0636 11.1942C22.2642 11.2462 22.4648 11.1274 22.5168 10.9305C22.5688 10.7298 22.4499 10.5255 22.253 10.4735Z" fill="black"/>
<path d="M18.6454 5.276L18.259 6.71005C18.207 6.90695 18.3222 7.11129 18.5228 7.1633C18.7197 7.21531 18.9241 7.10014 18.9761 6.89952L19.3624 5.46547C19.4145 5.26857 19.2993 5.06423 19.0987 5.01222C18.9018 4.96021 18.6974 5.07909 18.6454 5.276Z" fill="black"/>
<circle cx="14" cy="14" r="13.5" stroke="#F2F2F2"/>
</svg>
