<svg width="57" height="21" viewBox="0 0 57 21" fill="none" xmlns="http://www.w3.org/2000/svg">
<rect x="0.223633" y="0.5" width="56" height="20.3453" rx="1.46115" fill="#FFEDD2"/>
<path d="M24.8074 12.8291H22.0535L21.4773 14.4843H20.1931L22.8787 7.37497H23.9871L26.6775 14.4843H25.3884L24.8074 12.8291ZM22.4001 11.833H24.4607L23.4304 8.88376L22.4001 11.833ZM30.5154 13.9668C30.1671 14.3769 29.6723 14.582 29.031 14.582C28.4581 14.582 28.0235 14.4144 27.7273 14.0791C27.4343 13.7438 27.2878 13.2588 27.2878 12.624V9.20114H28.4744V12.6093C28.4744 13.2799 28.7527 13.6152 29.3093 13.6152C29.8855 13.6152 30.2745 13.4085 30.4763 12.9951V9.20114H31.6628V14.4843H30.5447L30.5154 13.9668ZM34.3582 7.91696V9.20114H35.2908V10.08H34.3582V13.0293C34.3582 13.2311 34.3972 13.3776 34.4753 13.4687C34.5567 13.5566 34.7 13.6006 34.905 13.6006C35.0417 13.6006 35.1801 13.5843 35.3201 13.5517V14.4697C35.0499 14.5446 34.7895 14.582 34.5388 14.582C33.6274 14.582 33.1716 14.0791 33.1716 13.0732V10.08H32.3025V9.20114H33.1716V7.91696H34.3582ZM37.3708 9.77731C37.7582 9.32809 38.2481 9.10349 38.8406 9.10349C39.9669 9.10349 40.5382 9.74639 40.5544 11.0322V14.4843H39.3679V11.0761C39.3679 10.7116 39.2882 10.4544 39.1287 10.3047C38.9724 10.1517 38.7413 10.0752 38.4353 10.0752C37.96 10.0752 37.6052 10.2868 37.3708 10.7099V14.4843H36.1843V6.98434H37.3708V9.77731ZM41.5359 11.7939C41.5359 11.2763 41.6384 10.8108 41.8435 10.3974C42.0486 9.98076 42.3367 9.66175 42.7078 9.4404C43.0789 9.21579 43.5053 9.10349 43.9871 9.10349C44.7 9.10349 45.2778 9.33298 45.7205 9.79196C46.1664 10.2509 46.4073 10.8597 46.4431 11.6181L46.448 11.8965C46.448 12.4173 46.3471 12.8828 46.1453 13.2929C45.9467 13.7031 45.6602 14.0205 45.2859 14.2451C44.9148 14.4697 44.4851 14.582 43.9968 14.582C43.2514 14.582 42.6541 14.3346 42.2048 13.8398C41.7589 13.3418 41.5359 12.6793 41.5359 11.8525V11.7939ZM42.7224 11.8965C42.7224 12.4401 42.8347 12.8665 43.0593 13.1758C43.2839 13.4817 43.5964 13.6347 43.9968 13.6347C44.3972 13.6347 44.7081 13.4785 44.9294 13.166C45.1541 12.8535 45.2664 12.3961 45.2664 11.7939C45.2664 11.2601 45.1508 10.8369 44.9197 10.5244C44.6918 10.2119 44.3809 10.0556 43.9871 10.0556C43.5997 10.0556 43.2921 10.2103 43.0642 10.5195C42.8363 10.8255 42.7224 11.2845 42.7224 11.8965ZM50.2175 10.2851C50.0613 10.2591 49.9001 10.2461 49.7341 10.2461C49.1905 10.2461 48.8243 10.4544 48.6355 10.8711V14.4843H47.449V9.20114H48.5818L48.6111 9.79196C48.8975 9.33298 49.2947 9.10349 49.8025 9.10349C49.9718 9.10349 50.1117 9.12627 50.2224 9.17184L50.2175 10.2851Z" fill="#FF9900"/>
<path fill-rule="evenodd" clip-rule="evenodd" d="M6.47914 6.54701C6.47914 6.37631 6.61838 6.23759 6.78907 6.23759H15.0453C15.216 6.23759 15.3547 6.37631 15.3547 6.54701V14.7568C15.3547 14.9275 15.216 15.0662 15.0453 15.0662H6.78907C6.61838 15.0662 6.47914 14.9275 6.47914 14.7568V6.54701ZM16.0736 14.7568V6.54701C16.0736 5.97768 15.6125 5.51562 15.0427 5.51562H6.79063C6.22182 5.51562 5.75977 5.97768 5.75977 6.54701V14.7568C5.75977 15.3266 6.22182 15.7882 6.79063 15.7882H15.0427C15.6125 15.7882 16.0736 15.3266 16.0736 14.7568ZM7.92554 9.92178H9.46488V8.41391H7.92554V9.92178ZM7.62382 10.4375H9.76599C9.88512 10.4375 9.98052 10.3431 9.98052 10.2261V8.10968C9.98052 7.99313 9.88512 7.89824 9.76599 7.89824H7.62382C7.50572 7.89824 7.4098 7.99313 7.4098 8.10968V10.2261C7.4098 10.3431 7.50572 10.4375 7.62382 10.4375ZM10.9557 8.50728H13.7569C13.8993 8.50728 14.0148 8.39177 14.0148 8.24944C14.0148 8.10711 13.8993 7.99159 13.7569 7.99159H10.9557C10.8134 7.99159 10.6979 8.10711 10.6979 8.24944C10.6979 8.39177 10.8134 8.50728 10.9557 8.50728ZM10.9557 10.1876H13.7569C13.8993 10.1876 14.0148 10.0721 14.0148 9.92976C14.0148 9.78743 13.8993 9.67191 13.7569 9.67191H10.9557C10.8134 9.67191 10.6979 9.78743 10.6979 9.92976C10.6979 10.0721 10.8134 10.1876 10.9557 10.1876ZM7.63646 11.8784H13.7567C13.8995 11.8784 14.0145 11.7629 14.0145 11.6206C14.0145 11.4783 13.8995 11.3628 13.7567 11.3628H7.63646C7.49413 11.3628 7.37862 11.4783 7.37862 11.6206C7.37862 11.7629 7.49413 11.8784 7.63646 11.8784ZM7.63646 13.5484H12.2333C12.3757 13.5484 12.4912 13.4329 12.4912 13.2905C12.4912 13.1482 12.3757 13.0327 12.2333 13.0327H7.63646C7.49413 13.0327 7.37862 13.1482 7.37862 13.2905C7.37862 13.4329 7.49413 13.5484 7.63646 13.5484Z" fill="#FF9900"/>
<mask id="mask0" mask-type="alpha" maskUnits="userSpaceOnUse" x="5" y="5" width="12" height="11">
<path fill-rule="evenodd" clip-rule="evenodd" d="M6.47914 6.54701C6.47914 6.37631 6.61838 6.23759 6.78907 6.23759H15.0453C15.216 6.23759 15.3547 6.37631 15.3547 6.54701V14.7568C15.3547 14.9275 15.216 15.0662 15.0453 15.0662H6.78907C6.61838 15.0662 6.47914 14.9275 6.47914 14.7568V6.54701ZM16.0736 14.7568V6.54701C16.0736 5.97768 15.6125 5.51562 15.0427 5.51562H6.79063C6.22182 5.51562 5.75977 5.97768 5.75977 6.54701V14.7568C5.75977 15.3266 6.22182 15.7882 6.79063 15.7882H15.0427C15.6125 15.7882 16.0736 15.3266 16.0736 14.7568ZM7.92554 9.92178H9.46488V8.41391H7.92554V9.92178ZM7.62382 10.4375H9.76599C9.88512 10.4375 9.98052 10.3431 9.98052 10.2261V8.10968C9.98052 7.99313 9.88512 7.89824 9.76599 7.89824H7.62382C7.50572 7.89824 7.4098 7.99313 7.4098 8.10968V10.2261C7.4098 10.3431 7.50572 10.4375 7.62382 10.4375ZM10.9557 8.50728H13.7569C13.8993 8.50728 14.0148 8.39177 14.0148 8.24944C14.0148 8.10711 13.8993 7.99159 13.7569 7.99159H10.9557C10.8134 7.99159 10.6979 8.10711 10.6979 8.24944C10.6979 8.39177 10.8134 8.50728 10.9557 8.50728ZM10.9557 10.1876H13.7569C13.8993 10.1876 14.0148 10.0721 14.0148 9.92976C14.0148 9.78743 13.8993 9.67191 13.7569 9.67191H10.9557C10.8134 9.67191 10.6979 9.78743 10.6979 9.92976C10.6979 10.0721 10.8134 10.1876 10.9557 10.1876ZM7.63646 11.8784H13.7567C13.8995 11.8784 14.0145 11.7629 14.0145 11.6206C14.0145 11.4783 13.8995 11.3628 13.7567 11.3628H7.63646C7.49413 11.3628 7.37862 11.4783 7.37862 11.6206C7.37862 11.7629 7.49413 11.8784 7.63646 11.8784ZM7.63646 13.5484H12.2333C12.3757 13.5484 12.4912 13.4329 12.4912 13.2905C12.4912 13.1482 12.3757 13.0327 12.2333 13.0327H7.63646C7.49413 13.0327 7.37862 13.1482 7.37862 13.2905C7.37862 13.4329 7.49413 13.5484 7.63646 13.5484Z" fill="white"/>
</mask>
<g mask="url(#mask0)">
</g>
</svg>
