<svg width="30" height="30" viewBox="0 0 30 30" fill="none" xmlns="http://www.w3.org/2000/svg">
<path d="M15 2.49542C20.0624 2.49542 24.1958 6.48885 24.3697 11.5567L24.375 11.8704V16.9916L26.1 20.9367C26.1863 21.1341 26.2308 21.3472 26.2308 21.5626C26.2308 22.4256 25.5313 23.1251 24.6683 23.1251L18.75 23.127C18.75 25.1981 17.071 26.877 15 26.877C13.0029 26.877 11.3704 25.3159 11.2563 23.3474L11.2494 23.1242L5.34354 23.1251C5.12936 23.1251 4.91748 23.0811 4.72103 22.9958C3.92953 22.652 3.5666 21.7316 3.91039 20.9401L5.62496 16.9928V11.8703C5.6257 6.6768 9.81507 2.49542 15 2.49542ZM16.8744 23.1242L13.125 23.127C13.125 24.1625 13.9644 25.002 15 25.002C15.9746 25.002 16.7755 24.2584 16.8664 23.3076L16.8744 23.1242ZM15 4.37042C10.8498 4.37042 7.50055 7.71324 7.49996 11.8704V17.3825L5.81998 21.2501H24.1906L22.5 17.3836L22.5001 11.8865L22.4954 11.605C22.3566 7.56315 19.0519 4.37042 15 4.37042Z" fill="#FF5A5A"/>
</svg>
