<svg width="24" height="24" viewBox="0 0 24 24" fill="none" xmlns="http://www.w3.org/2000/svg">
<rect x="2.75" y="4.75" width="18.5" height="14.5" rx="2" stroke="#656565" stroke-width="1.5"/>
<path d="M3 15.7499L7.71966 11.0302C7.7893 10.9606 7.87198 10.9053 7.96297 10.8676C8.05397 10.8299 8.15149 10.8105 8.24999 10.8105C8.34848 10.8105 8.44601 10.8299 8.537 10.8676C8.62799 10.9053 8.71067 10.9606 8.78032 11.0302L12.9697 15.2196C13.0393 15.2892 13.122 15.3444 13.213 15.3821C13.304 15.4198 13.4015 15.4392 13.5 15.4392C13.5985 15.4392 13.696 15.4198 13.787 15.3821C13.878 15.3444 13.9607 15.2892 14.0303 15.2196L15.9697 13.2802C16.0393 13.2106 16.122 13.1553 16.213 13.1176C16.304 13.0799 16.4015 13.0605 16.5 13.0605C16.5985 13.0605 16.696 13.0799 16.787 13.1176C16.878 13.1553 16.9607 13.2106 17.0303 13.2802L21 17.2499" stroke="#656565" stroke-width="1.5" stroke-linecap="round" stroke-linejoin="round"/>
<path d="M15 10C15.5523 10 16 9.55228 16 9C16 8.44772 15.5523 8 15 8C14.4477 8 14 8.44772 14 9C14 9.55228 14.4477 10 15 10Z" fill="#656565"/>
</svg>