<svg width="17" height="17" viewBox="0 0 17 17" fill="none" xmlns="http://www.w3.org/2000/svg">
<path d="M3.90087 12.8736L4.36754 13.0531L4.50151 12.7047L4.20569 12.4772L3.90087 12.8736ZM3.29863 14.4394L3.7653 14.6189L3.7653 14.6189L3.29863 14.4394ZM3.93171 15.0904L3.7653 14.6189L3.93171 15.0904ZM6.69989 14.1134L6.78813 13.6212L6.65808 13.5979L6.53348 13.6419L6.69989 14.1134ZM13.84 7.72787C13.84 11.0347 11.1593 13.7154 7.85241 13.7154V14.7154C11.7115 14.7154 14.84 11.587 14.84 7.72787H13.84ZM7.85241 1.7403C11.1593 1.7403 13.84 4.42102 13.84 7.72787H14.84C14.84 3.86874 11.7115 0.740295 7.85241 0.740295V1.7403ZM1.86483 7.72787C1.86483 4.42102 4.54556 1.7403 7.85241 1.7403V0.740295C3.99327 0.740295 0.86483 3.86874 0.86483 7.72787H1.86483ZM4.20569 12.4772C2.78129 11.3818 1.86483 9.66195 1.86483 7.72787H0.86483C0.86483 9.98559 1.93613 11.9933 3.59605 13.2699L4.20569 12.4772ZM3.7653 14.6189L4.36754 13.0531L3.4342 12.6941L2.83196 14.2599L3.7653 14.6189ZM3.7653 14.6189L3.7653 14.6189L2.83196 14.2599C2.52563 15.0564 3.29343 15.8459 4.09812 15.5619L3.7653 14.6189ZM6.53348 13.6419L3.7653 14.6189L4.09812 15.5619L6.8663 14.5849L6.53348 13.6419ZM7.85241 13.7154C7.4888 13.7154 7.13317 13.6831 6.78813 13.6212L6.61165 14.6055C7.01468 14.6778 7.42936 14.7154 7.85241 14.7154V13.7154Z" fill="#656565"/>
<rect x="4.45415" y="6.1832" width="6.79651" height="0.933334" rx="0.466667" fill="#656565"/>
<rect x="5.07202" y="8.65466" width="5.56078" height="0.933333" rx="0.466667" fill="#656565"/>
</svg>
