<svg width="20" height="20" viewBox="0 0 20 20" fill="none" xmlns="http://www.w3.org/2000/svg">
<rect width="20" height="20" fill="none"/>
<mask id="path-1-inside-1" fill="white">
<path fill-rule="evenodd" clip-rule="evenodd" d="M4.27734 2C2.0682 2 0.277344 3.79086 0.277344 6V12.6154C0.277344 14.8245 2.0682 16.6154 4.27734 16.6154H7.53306L9.77734 18.8597L12.0216 16.6154H15.2773C17.4865 16.6154 19.2773 14.8245 19.2773 12.6154V6C19.2773 3.79086 17.4865 2 15.2773 2H4.27734Z"/>
</mask>
<path d="M7.53306 16.6154L8.59372 15.5547L8.15438 15.1154H7.53306V16.6154ZM9.77734 18.8597L8.71668 19.9203L9.77734 20.981L10.838 19.9203L9.77734 18.8597ZM12.0216 16.6154V15.1154H11.4003L10.961 15.5547L12.0216 16.6154ZM1.77734 6C1.77734 4.61929 2.89663 3.5 4.27734 3.5V0.5C1.23978 0.5 -1.22266 2.96243 -1.22266 6H1.77734ZM1.77734 12.6154V6H-1.22266V12.6154H1.77734ZM4.27734 15.1154C2.89663 15.1154 1.77734 13.9961 1.77734 12.6154H-1.22266C-1.22266 15.653 1.23978 18.1154 4.27734 18.1154V15.1154ZM7.53306 15.1154H4.27734V18.1154H7.53306V15.1154ZM10.838 17.799L8.59372 15.5547L6.4724 17.676L8.71668 19.9203L10.838 17.799ZM10.961 15.5547L8.71668 17.799L10.838 19.9203L13.0823 17.676L10.961 15.5547ZM15.2773 15.1154H12.0216V18.1154H15.2773V15.1154ZM17.7773 12.6154C17.7773 13.9961 16.6581 15.1154 15.2773 15.1154V18.1154C18.3149 18.1154 20.7773 15.653 20.7773 12.6154H17.7773ZM17.7773 6V12.6154H20.7773V6H17.7773ZM15.2773 3.5C16.6581 3.5 17.7773 4.61929 17.7773 6H20.7773C20.7773 2.96243 18.3149 0.5 15.2773 0.5V3.5ZM4.27734 3.5H15.2773V0.5H4.27734V3.5Z" fill="currentColor" mask="url(#path-1-inside-1)"/>
<circle cx="5.2002" cy="9" r="1" fill="currentColor"/>
<circle cx="10" cy="9" r="1" fill="currentColor"/>
<circle cx="15" cy="9" r="1" fill="currentColor"/>
</svg>
