<svg width="18" height="18" viewBox="0 0 18 18" fill="none" xmlns="http://www.w3.org/2000/svg">
<path d="M9 18C13.9706 18 18 13.9706 18 9C18 4.02944 13.9706 0 9 0C4.02944 0 0 4.02944 0 9C0 13.9706 4.02944 18 9 18Z" fill="#F2F2F2"/>
<path d="M10 14.0908L10 12.0197" stroke="#C8C8C8" stroke-width="0.69"/>
<path d="M13.1055 14.0908L13.1055 8.99991" stroke="#C8C8C8" stroke-width="0.69"/>
<path d="M11.5098 14.0908L11.5098 10.5101" stroke="#C8C8C8" stroke-width="0.69"/>
<path d="M10.0811 5.21622L4.48649 10.8108L4.01587 12.9286L4 13L6.18919 12.5135L11.7838 6.87548M10.0811 5.21622L11.7838 6.87548M10.0811 5.21622L10.4537 4.84361C10.9196 4.3777 11.675 4.3777 12.1409 4.84361V4.84361C12.6128 5.31553 12.6059 6.08278 12.1254 6.54603L11.7838 6.87548" stroke="#C8C8C8" stroke-width="1.1" stroke-linecap="round" stroke-linejoin="round"/>
</svg>
