<svg width="26" height="20" viewBox="0 0 26 20" fill="none" xmlns="http://www.w3.org/2000/svg">
<path d="M3.62496 0.892883C1.70183 0.892883 0.142822 2.45189 0.142822 4.37503V15.625C0.142822 17.5482 1.70183 19.1072 3.62496 19.1072H14.8774C16.8005 19.1072 18.3595 17.5482 18.3595 15.625V13.9329L23.225 17.2669C24.1138 17.8759 25.3213 17.2395 25.3213 16.162V3.83762C25.3213 2.76036 24.1141 2.12393 23.2253 2.73261L18.3595 6.06484V4.37503C18.3595 2.45189 16.8005 0.892883 14.8774 0.892883H3.62496ZM18.3595 11.9847V8.01273L23.7142 4.3457V15.6538L18.3595 11.9847ZM16.7524 4.37503V15.625C16.7524 16.6606 15.9129 17.5 14.8774 17.5H3.62496C2.58943 17.5 1.74997 16.6606 1.74997 15.625V4.37503C1.74997 3.33949 2.58943 2.50003 3.62496 2.50003H14.8774C15.9129 2.50003 16.7524 3.33949 16.7524 4.37503Z" fill="#212121"/>
</svg>
