<svg width="30" height="30" viewBox="0 0 30 30" fill="none" xmlns="http://www.w3.org/2000/svg">
<path fill-rule="evenodd" clip-rule="evenodd" d="M4.24266 4.99973C4.24266 4.58598 4.58016 4.24973 4.99391 4.24973H25.0064C25.4202 4.24973 25.7564 4.58598 25.7564 4.99973V24.8997C25.7564 25.3135 25.4202 25.6497 25.0064 25.6497H4.99391C4.58016 25.6497 4.24266 25.3135 4.24266 24.8997V4.99973ZM27.499 24.8998V4.99976C27.499 3.61976 26.3815 2.49976 25.0003 2.49976H4.99777C3.61902 2.49976 2.49902 3.61976 2.49902 4.99976V24.8998C2.49902 26.281 3.61902 27.3998 4.99777 27.3998H25.0003C26.3815 27.3998 27.499 26.281 27.499 24.8998ZM7.74853 13.18H11.4798V9.52499H7.74853V13.18ZM7.01728 14.43H12.2098C12.4985 14.43 12.7298 14.2012 12.7298 13.9175V8.78749C12.7298 8.50499 12.4985 8.27499 12.2098 8.27499H7.01728C6.73103 8.27499 6.49853 8.50499 6.49853 8.78749V13.9175C6.49853 14.2012 6.73103 14.43 7.01728 14.43ZM15.0938 9.75137H21.8838C22.2288 9.75137 22.5088 9.47137 22.5088 9.12637C22.5088 8.78137 22.2288 8.50137 21.8838 8.50137H15.0938C14.7488 8.50137 14.4688 8.78137 14.4688 9.12637C14.4688 9.47137 14.7488 9.75137 15.0938 9.75137ZM15.0938 13.8242H21.8838C22.2288 13.8242 22.5088 13.5442 22.5088 13.1992C22.5088 12.8542 22.2288 12.5742 21.8838 12.5742H15.0938C14.7488 12.5742 14.4688 12.8542 14.4688 13.1992C14.4688 13.5442 14.7488 13.8242 15.0938 13.8242ZM7.04779 17.9228H21.8828C22.229 17.9228 22.5078 17.6428 22.5078 17.2978C22.5078 16.9528 22.229 16.6728 21.8828 16.6728H7.04779C6.70279 16.6728 6.42279 16.9528 6.42279 17.2978C6.42279 17.6428 6.70279 17.9228 7.04779 17.9228ZM7.04779 21.9706H18.1903C18.5353 21.9706 18.8153 21.6906 18.8153 21.3456C18.8153 21.0006 18.5353 20.7206 18.1903 20.7206H7.04779C6.70279 20.7206 6.42279 21.0006 6.42279 21.3456C6.42279 21.6906 6.70279 21.9706 7.04779 21.9706Z" fill="#242424"/>
<mask id="mask0" mask-type="alpha" maskUnits="userSpaceOnUse" x="2" y="2" width="26" height="26">
<path fill-rule="evenodd" clip-rule="evenodd" d="M4.24266 4.99973C4.24266 4.58598 4.58016 4.24973 4.99391 4.24973H25.0064C25.4202 4.24973 25.7564 4.58598 25.7564 4.99973V24.8997C25.7564 25.3135 25.4202 25.6497 25.0064 25.6497H4.99391C4.58016 25.6497 4.24266 25.3135 4.24266 24.8997V4.99973ZM27.499 24.8998V4.99976C27.499 3.61976 26.3815 2.49976 25.0003 2.49976H4.99777C3.61902 2.49976 2.49902 3.61976 2.49902 4.99976V24.8998C2.49902 26.281 3.61902 27.3998 4.99777 27.3998H25.0003C26.3815 27.3998 27.499 26.281 27.499 24.8998ZM7.74853 13.18H11.4798V9.52499H7.74853V13.18ZM7.01728 14.43H12.2098C12.4985 14.43 12.7298 14.2012 12.7298 13.9175V8.78749C12.7298 8.50499 12.4985 8.27499 12.2098 8.27499H7.01728C6.73103 8.27499 6.49853 8.50499 6.49853 8.78749V13.9175C6.49853 14.2012 6.73103 14.43 7.01728 14.43ZM15.0938 9.75137H21.8838C22.2288 9.75137 22.5088 9.47137 22.5088 9.12637C22.5088 8.78137 22.2288 8.50137 21.8838 8.50137H15.0938C14.7488 8.50137 14.4688 8.78137 14.4688 9.12637C14.4688 9.47137 14.7488 9.75137 15.0938 9.75137ZM15.0938 13.8242H21.8838C22.2288 13.8242 22.5088 13.5442 22.5088 13.1992C22.5088 12.8542 22.2288 12.5742 21.8838 12.5742H15.0938C14.7488 12.5742 14.4688 12.8542 14.4688 13.1992C14.4688 13.5442 14.7488 13.8242 15.0938 13.8242ZM7.04779 17.9228H21.8828C22.229 17.9228 22.5078 17.6428 22.5078 17.2978C22.5078 16.9528 22.229 16.6728 21.8828 16.6728H7.04779C6.70279 16.6728 6.42279 16.9528 6.42279 17.2978C6.42279 17.6428 6.70279 17.9228 7.04779 17.9228ZM7.04779 21.9706H18.1903C18.5353 21.9706 18.8153 21.6906 18.8153 21.3456C18.8153 21.0006 18.5353 20.7206 18.1903 20.7206H7.04779C6.70279 20.7206 6.42279 21.0006 6.42279 21.3456C6.42279 21.6906 6.70279 21.9706 7.04779 21.9706Z" fill="white"/>
</mask>
<g mask="url(#mask0)">
<rect width="30" height="30" fill="#242424"/>
</g>
</svg>