<svg width="980" height="707" viewBox="0 0 980 707" fill="none" xmlns="http://www.w3.org/2000/svg">
<mask id="mask0" mask-type="alpha" maskUnits="userSpaceOnUse" x="0" y="0" width="980" height="707">
<rect width="980" height="707" rx="4" fill="white"/>
</mask>
<g mask="url(#mask0)">
<path d="M140.645 247.49C138.927 242.79 132.723 240.919 134.722 243.57C137.485 247.423 138.026 251.702 135.466 253.15C131.943 255.288 129.595 243.066 122.049 241.087C116.782 239.71 113.768 243.914 113.166 246.194C111.872 251.304 116.231 258.194 130.386 257.863C126.893 266.009 112.83 261.995 113.677 263.041C119.156 269.322 129.468 267.566 133.158 261.321C133.982 259.758 134.732 257.956 136.172 257.117C141.128 254.535 141.689 250.437 140.645 247.49Z" fill="#4FC5D8"/>
<path d="M128.33 254.184C128.487 254.266 119.903 252.74 118.612 250.262C117.634 247.949 119.034 245.291 121.783 246.14C125.157 247.318 128.33 254.184 128.33 254.184Z" fill="white"/>
<path d="M863.08 488.08C857.929 486.919 855.131 480.68 858.176 482.412C862.582 484.782 867.134 484.769 868.301 481.894C870.062 477.918 856.954 477.115 853.862 469.487C851.708 464.162 855.699 460.439 858.003 459.501C863.175 457.454 870.976 461.082 872.546 475.94C880.597 471.182 874.492 457.009 875.701 457.754C883.017 462.636 882.575 473.666 876.54 478.373C875.015 479.446 873.231 480.475 872.548 482.096C870.518 487.631 866.305 488.774 863.08 488.08Z" fill="#FFCF59"/>
<path d="M868.418 474.287C868.525 474.439 865.766 465.664 862.998 464.649C860.445 463.938 857.854 465.764 859.114 468.525C860.804 471.895 868.418 474.287 868.418 474.287Z" fill="white"/>
<path d="M104.524 112.116C102.71 113.497 100.975 114.939 99.0993 116.399C98.3931 116.992 97.5148 116.823 96.9221 116.116C96.2501 115.349 96.5781 114.593 97.205 113.939C98.7999 112.516 100.474 111.153 101.911 109.608C103.043 108.46 103.968 107.91 105.275 109.163C106.521 110.496 104.895 111.139 104.524 112.116Z" fill="#528FD9"/>
<path d="M903.891 29.0847C907.521 31.2353 907.617 33.3802 904.322 35.9188C898.919 40.1178 894.629 40.3091 892.341 36.2479C891.223 34.3956 890.329 32.538 893.906 32.4531C896.679 32.432 899.021 31.2134 901.31 29.6381C902.06 29.2177 902.704 28.084 903.891 29.0847Z" fill="#5F51A4"/>
<path d="M797.889 334.571C795.501 336.094 795.223 339.75 796.445 338.323C798.237 336.326 800.537 335.505 801.648 336.744C803.259 338.43 796.791 341.218 796.617 345.629C796.498 348.707 799.189 349.861 800.522 349.915C803.504 350.008 806.781 346.759 804.872 338.977C809.8 339.914 809.295 348.175 809.77 347.58C812.574 343.787 810.346 338.301 806.445 337.023C805.481 336.759 804.394 336.564 803.755 335.87C801.724 333.446 799.391 333.635 797.889 334.571Z" fill="#528FD9"/>
<path d="M803.09 340.561C803.116 340.465 803.318 345.394 802.106 346.41C800.947 347.232 799.308 346.782 799.442 345.16C799.682 343.152 803.09 340.561 803.09 340.561Z" fill="white"/>
<path d="M836.179 255.906C834.576 253.578 827.072 247.426 830.432 244.35C833.107 241.916 837.765 245.581 840.167 246.496C842.247 247.272 844.127 246.394 845.883 242.98C846.896 245.64 845.967 248.426 844.307 249.54C840.704 251.738 835.503 247.7 833.338 247.519C835.191 249.908 837.636 252.036 839.283 254.617C840.482 256.514 839.988 258.597 838.105 259.404C836.083 260.268 833.144 259.192 831.158 258.034C830.724 257.778 830.256 257.553 829.428 257.151C830.796 259.846 833.54 262.431 834.8 264.049C836.096 265.707 836.563 267.922 833.62 268.765C831.027 269.501 826.958 267.495 824.792 265.252C823.178 263.598 829.073 266.249 831.593 265.434C828.856 263.064 823.606 254.578 825.687 253.365C827.662 252.176 833.987 255.971 836.179 255.906Z" fill="#FFCF59"/>
<path d="M925.158 392.298C929.765 390.999 934.09 389.051 937.612 383.769C937.692 383.681 937.771 383.592 937.85 383.504C939.415 381.199 940.2 381.927 941.527 386.718C942.017 388.564 941.445 388.649 941.17 389.074C938.254 393.882 934.885 397.299 931.109 399.011C928.022 400.391 928 400.241 925.158 392.298Z" fill="#528FD9"/>
<path d="M840.92 362.646C839.641 360.758 838.297 358.946 836.942 356.993C836.389 356.256 836.606 355.388 837.344 354.835C838.147 354.206 838.884 354.575 839.502 355.237C840.836 356.908 842.104 358.655 843.568 360.174C844.652 361.368 845.15 362.322 843.827 363.558C842.427 364.729 841.874 363.069 840.92 362.646Z" fill="#FFCF59"/>
<path d="M851.958 535.736C853.926 536.888 855.92 537.944 857.984 539.122C858.801 539.55 858.979 540.426 858.551 541.243C858.098 542.157 857.273 542.141 856.43 541.81C854.507 540.877 852.61 539.848 850.634 539.107C849.141 538.498 848.28 537.851 848.942 536.165C849.701 534.505 850.914 535.765 851.958 535.736Z" fill="#528FD9"/>
<path d="M132.958 535.736C134.926 536.888 136.92 537.944 138.984 539.122C139.801 539.55 139.979 540.426 139.551 541.243C139.098 542.157 138.273 542.141 137.43 541.81C135.507 540.877 133.61 539.848 131.634 539.107C130.141 538.498 129.28 537.851 129.942 536.165C130.701 534.505 131.914 535.765 132.958 535.736Z" fill="#4FC5D8"/>
<path d="M900.04 514.844C899.351 512.67 898.761 510.493 898.068 508.219C897.831 507.328 897.015 506.961 896.124 507.198C895.133 507.439 894.966 508.246 895.103 509.141C895.589 511.223 896.174 513.301 896.46 515.391C896.725 516.982 897.166 517.964 898.956 517.691C900.742 517.317 899.782 515.855 900.04 514.844Z" fill="#5F51A4"/>
<path d="M910.171 576.437C912.245 577.384 914.256 578.409 916.407 579.42C917.226 579.842 918.046 579.484 918.468 578.664C918.954 577.768 918.468 577.102 917.712 576.603C915.843 575.566 913.909 574.606 912.168 573.415C910.811 572.545 909.786 572.212 908.788 573.723C907.866 575.298 909.595 575.567 910.171 576.437Z" fill="#FF5C4F"/>
<path d="M158.785 401C156.925 398.16 154.085 397.475 151 396.985C153.546 391.207 156.582 385.968 162.017 382.688C165.542 380.582 172.005 383.618 172.838 387.633C172.936 388.172 172.74 388.367 172.348 388.514C166.13 390.718 161.968 395.222 158.785 401Z" fill="#FF5A5A"/>
<path d="M162.114 474.541C161.814 477.019 160.171 478.389 158.304 479.708C161.853 482.708 165.549 485.194 170.184 485.61C173.184 485.866 176.444 481.773 175.687 478.849C175.576 478.461 175.384 478.395 175.079 478.424C170.278 478.973 166.081 477.336 162.114 474.541Z" fill="#5F51A4"/>
<path d="M39.5 236.206C39.5 234.666 41.1667 233.704 42.5 234.474L56 242.268C57.3334 243.038 57.3334 244.962 56 245.732L42.5 253.526C41.1667 254.296 39.5 253.334 39.5 251.794L39.5 236.206Z" fill="#528FD9"/>
<path d="M170.209 290.377C172.035 288.963 174.707 290.056 175.019 292.344L179.911 328.266C180.222 330.555 177.94 332.322 175.803 331.448L142.247 317.723C140.109 316.849 139.72 313.989 141.545 312.575L170.209 290.377Z" fill="#FFCF59"/>
<path d="M865.342 332.195C868.219 330.886 869.825 328.758 870.853 326.123C871.169 325.214 871.476 324.693 872.474 325.53C877.176 329.239 881.516 333.263 883.75 338.997C885.61 343.73 881.558 349.858 876.3 350.145C875.584 350.169 875.308 349.967 875.249 349.323C874.55 342.249 870.639 336.901 865.342 332.195Z" fill="#5F51A4"/>
<path d="M936.454 210.889C937.671 209.946 939.452 210.675 939.66 212.2L941.669 226.95C941.877 228.475 940.355 229.654 938.93 229.071L925.152 223.436C923.727 222.853 923.467 220.946 924.685 220.003L936.454 210.889Z" fill="#5F51A4"/>
<path d="M932.155 543.385C930.785 541.526 931.941 538.88 934.236 538.623L984.398 533.001C986.693 532.744 988.406 535.068 987.481 537.184L967.269 583.437C966.344 585.553 963.475 585.874 962.105 584.015L932.155 543.385Z" fill="#4FC5D8"/>
<path d="M891.475 416.081C889.661 417.463 887.925 418.904 886.05 420.365C885.344 420.958 884.465 420.788 883.873 420.082C883.201 419.315 883.529 418.558 884.156 417.905C885.751 416.482 887.425 415.119 888.861 413.574C889.993 412.426 890.919 411.875 892.226 413.129C893.472 414.462 891.845 415.105 891.475 416.081Z" fill="#4FC5D8"/>
<path d="M60.6423 524.599C63.3107 520.743 66.1115 517.044 68.9373 513.055C70.0891 511.548 69.6597 509.76 68.1535 508.608C66.515 507.299 64.9911 508.043 63.707 509.392C60.9312 512.801 58.2878 516.368 55.2473 519.463C52.9938 521.895 51.9494 523.849 54.6469 526.417C57.5018 528.853 58.6713 525.451 60.6423 524.599Z" fill="#FFCF59"/>
<path d="M8.47512 408.081C6.66057 409.463 4.92538 410.904 3.04999 412.365C2.34375 412.958 1.46547 412.788 0.872831 412.082C0.200823 411.315 0.52876 410.558 1.15563 409.905C2.75062 408.482 4.42497 407.119 5.86122 405.574C6.9933 404.426 7.91911 403.875 9.22606 405.129C10.4722 406.462 8.84536 407.105 8.47512 408.081Z" fill="#FF5A5A"/>
<path d="M819.475 408.081C817.661 409.463 815.925 410.904 814.05 412.365C813.344 412.958 812.465 412.788 811.873 412.082C811.201 411.315 811.529 410.558 812.156 409.905C813.751 408.482 815.425 407.119 816.861 405.574C817.993 404.426 818.919 403.875 820.226 405.129C821.472 406.462 819.845 407.105 819.475 408.081Z" fill="#FF5C4F"/>
<path d="M970.563 452.882C970.19 455.684 966.29 464.57 970.68 465.788C974.168 466.744 976.658 461.367 978.384 459.462C979.886 457.827 981.96 457.757 985.073 460.004C984.77 457.174 982.679 455.112 980.695 454.872C976.486 454.546 973.681 460.503 971.833 461.646C972.402 458.677 973.616 455.671 973.914 452.624C974.123 450.39 972.738 448.757 970.694 448.891C968.5 449.038 966.368 451.329 965.123 453.262C964.852 453.687 964.537 454.099 963.982 454.834C963.979 451.811 965.253 448.263 965.642 446.249C966.046 444.184 965.458 441.999 962.453 442.581C959.808 443.101 957.091 446.733 956.177 449.714C955.488 451.92 959.541 446.885 962.156 446.469C960.791 449.822 959.958 459.766 962.363 459.904C964.663 460.068 968.58 453.818 970.563 452.882Z" fill="#FF5C4F"/>
<path d="M66.0224 167.393C68.6051 174.967 71.7304 182.266 77.5092 188.001C83.2282 193.545 97.4123 190.987 101.177 183.939C101.964 182.435 101.152 181.851 100.215 181.202C90.5338 174.384 84.8537 164.951 81.6719 153.792C81.044 151.788 80.315 150.13 78.0076 151.796C74.4482 154.483 70.4333 154.379 66.5196 153.928C63.4889 153.62 63.1555 154.563 63.6765 157.229C64.4366 160.659 64.6897 164.142 66.0224 167.393Z" fill="#FF5C4F"/>
<path d="M849.093 586.048C837.455 594.22 826.555 603.18 819.645 615.889C813.03 628.402 824.445 651.329 838.34 654.248C841.297 654.842 841.89 653.167 842.532 651.245C849.35 631.34 862.62 616.961 880.075 605.985C883.182 603.918 885.648 601.85 881.659 598.742C875.305 594.005 873.487 587.104 872.31 580.203C871.329 574.88 869.555 574.78 865.265 576.994C859.792 579.995 853.975 582.159 849.093 586.048Z" fill="#FFCF59"/>
<path d="M153.891 142.179C157.521 140.028 157.617 137.883 154.322 135.345C148.919 131.146 144.629 130.955 142.341 135.016C141.223 136.868 140.329 138.726 143.906 138.811C146.679 138.832 149.021 140.05 151.31 141.626C152.06 142.046 152.704 143.18 153.891 142.179Z" fill="#FFCF59"/>
<path d="M40.7852 106C38.9246 103.16 36.0847 102.475 33 101.985C35.5461 96.2074 38.5818 90.9683 44.0167 87.6878C47.5421 85.5823 54.0052 88.6181 54.8376 92.633C54.9355 93.1716 54.7397 93.3675 54.348 93.5144C48.1296 95.7177 43.9678 100.222 40.7852 106Z" fill="#4FC5D8"/>
<path d="M907.262 112.932C912.604 115.467 914.731 120.274 917.204 124.707C920.603 130.751 923.422 137.138 928.182 142.343C932.262 146.804 935.65 147.358 941.071 143.7C929.03 143.168 920.774 119.201 918.804 115.965C915.942 111.303 912.043 107.759 906.536 106.515C904.856 106.121 904.008 105.296 903.051 103.92C895.623 93.4816 885.712 92.1492 876.531 100.932C873.41 103.872 872.622 102.578 871.244 99.8356C868.59 94.484 862.01 89.5228 858.052 87.8216C854.938 86.5268 848.982 85.5234 845.804 85.6521C844.901 85.7151 842.331 86.2202 843.008 87.9177C843.699 89.4979 844.948 91.3882 847.473 91.2352C857.507 90.6745 866.817 98.074 869.184 107.982C869.662 109.833 868.74 110.967 867.988 112.183C865.847 115.845 864.11 119.619 863.399 123.763C862.739 127.973 864.321 130.98 867.629 131.703C871.64 132.517 873.073 129.718 874.221 126.823C875.931 122.33 876.534 117.635 876.014 112.856C875.573 108.862 879.899 103.512 885.012 101.783C889.56 100.279 894.992 102.11 897.203 105.794C898.196 107.353 897.284 107.952 896.275 108.836C889.467 114.941 887.52 124.057 890.808 132.831C892.059 136.093 894.033 138.375 897.702 138.607C901.436 138.789 903.646 136.448 905.058 133.348C907.623 127.772 908.142 121.873 907.554 115.773C907.542 114.936 907.413 114.085 907.262 112.932ZM901.054 112.97C902.569 118.354 902.574 123.425 901.273 128.448C900.894 130.01 899.891 131.313 898.116 131.204C896.508 131.177 895.853 129.78 895.365 128.465C893.642 123.769 896.376 115.948 901.054 112.97ZM871.466 116.686C871.823 119.476 871.654 121.721 871.082 123.855C870.844 124.779 870.576 125.937 869.402 125.787C867.825 125.525 868.241 124.146 868.377 123.09C868.597 120.911 869.521 118.823 871.466 116.686Z" fill="#FFCF59"/>
<path d="M88.6297 593.157C96.7959 589.82 104.233 592.31 111.606 594.044C121.686 596.376 131.56 599.693 142.084 599.681C151.104 599.671 155.123 596.494 156.543 586.84C143.846 599.576 109.128 584.57 103.58 583.488C95.5638 581.952 87.7368 582.686 80.8267 587.505C78.7029 588.959 76.9405 589.064 74.4622 588.735C55.4863 586.423 44.0507 596.006 44.4968 614.958C44.5972 621.355 42.378 620.922 37.9703 619.683C29.4036 617.224 17.3171 619.488 11.4622 622.138C6.90262 624.269 -0.193255 629.823 -3.24777 633.455C-4.0864 634.514 -6.11481 637.855 -3.56322 638.816C-1.12584 639.643 2.21322 640.168 4.58422 637.231C14.058 625.608 31.5767 622.79 44.8766 630.146C47.3975 631.481 47.7213 633.637 48.3041 635.69C50.1874 641.732 52.5991 647.442 56.4511 652.394C60.4276 657.355 65.333 658.636 69.4562 655.718C74.3874 652.115 72.7444 647.72 70.7076 643.544C67.4761 637.141 62.9082 631.754 57.1182 627.52C52.2724 623.99 50.7267 613.842 53.9637 606.466C56.8802 599.942 64.3613 595.797 70.6457 597.065C73.3626 597.539 73.1052 599.146 73.0659 601.147C72.9463 614.792 81.0355 626.104 94.0115 631.305C98.8659 633.207 103.366 633.327 107.312 629.517C111.268 625.583 110.91 620.794 108.914 616.12C105.349 607.685 99.3694 601.18 92.0539 595.693C91.1199 594.865 90.0512 594.151 88.6297 593.157ZM82.4269 600.038C89.8857 603.783 95.4796 608.878 99.7066 615.363C101.046 617.352 101.474 619.768 99.5684 621.615C97.9218 623.359 95.723 622.677 93.7834 621.891C86.8752 619.068 81.0052 608.189 82.4269 600.038ZM56.7652 636.385C60.1996 638.797 62.504 641.241 64.28 644.018C65.0589 645.209 66.0662 646.67 64.7197 647.812C62.8447 649.287 61.7437 647.442 60.7159 646.23C58.5359 643.796 57.1639 640.677 56.7652 636.385Z" fill="#FF5A5A"/>
<path d="M57.7396 326.616C62.2892 329.29 74.2028 342.92 80.3959 335.453C85.2964 329.513 78.2071 321.018 76.4772 316.408C75.0112 312.414 76.8101 308.434 83.6182 304.109C78.3927 302.697 72.8539 305.214 70.5971 308.806C66.1303 316.555 73.9413 326.055 74.2268 330.359C69.5659 327.197 65.44 322.785 60.3913 320.081C56.6811 318.118 52.5463 319.596 50.8883 323.565C49.1127 327.827 51.1416 333.477 53.3653 337.195C53.8581 338.006 54.2863 338.893 55.0548 340.461C49.7709 338.344 44.7527 333.439 41.5945 331.288C38.3601 329.072 33.9973 328.653 32.2325 334.759C30.6912 340.137 34.5218 347.838 38.8829 351.663C42.0994 354.518 37.055 343.3 38.7489 338.051C43.3443 342.992 59.9465 351.55 62.4151 347.089C64.8308 342.844 57.5377 331.032 57.7396 326.616Z" fill="#5F51A4"/>
<path d="M870.176 175C871.176 180.8 874.276 184.7 878.576 187.8C880.076 188.8 880.876 189.6 878.876 191C869.876 197.7 860.476 203.6 848.976 204.9C839.476 206 830.276 195.8 832.276 186.2C832.576 184.9 833.076 184.5 834.276 184.7C847.476 186.8 859.076 182.3 870.176 175Z" fill="#4FC5D8"/>
<path d="M923.733 299.127C924.552 293.298 925.802 288.457 932.77 287.339C918.175 278.09 903.733 270.536 887.507 266.739C884.28 265.939 882.806 266.786 882.097 269.709C881.828 270.718 881.456 271.63 881.284 272.536C879.588 279.092 879.591 279.192 886.144 280.789C899.656 284.169 911.952 290.289 923.733 299.127Z" fill="#FF5C4F"/>
<path d="M760.215 233.32C757.855 237.721 755.51 241.221 750.457 240.215C757.445 251.517 764.855 261.433 774.636 268.852C776.566 270.364 777.824 270.093 779.21 267.967C779.704 267.239 780.238 266.617 780.635 265.945C783.814 261.206 783.843 261.126 779.913 258.079C771.837 251.726 765.431 243.531 760.215 233.32Z" fill="#528FD9"/>
<path d="M71.4328 424.841C76.7764 422.374 81.0505 419.779 80.1081 412.785C93.1787 424.087 104.581 435.732 112.902 450.171C114.599 453.029 114.215 454.685 111.621 456.208C110.732 456.757 109.967 457.376 109.149 457.802C103.362 461.32 103.266 461.346 99.8447 455.533C92.706 443.573 83.2958 433.568 71.4328 424.841Z" fill="#528FD9"/>
<path d="M48.1351 -28.4456C31.6822 39.446 550.364 88.9067 850.344 17.9053C926.465 -0.111574 932.615 -22.5469 932.615 -22.5469" stroke="#FC6597" stroke-width="2"/>
<path d="M582.864 51.0167C577.701 61.2071 572.538 71.3975 567.369 81.6877C565.767 84.7915 564.64 83.617 563.371 81.5315C557.673 71.947 552.074 62.369 546.376 52.7846C547.364 51.4451 548.88 51.2417 550.39 51.1382C560.253 50.4682 570.165 50.6029 580.015 50.1325C581.019 50.0967 582.004 50.3603 582.864 51.0167Z" fill="#FB5858"/>
<path d="M582.864 51.0167C570.711 51.8798 546.376 52.7847 546.376 52.7847C546.376 52.7847 542.766 47.9644 543.001 46.3664C543.206 44.9715 545.022 44.9536 546.026 44.9179C557.766 44.6689 579.284 44.4811 580.892 44.5311C582.5 44.5811 584.437 43.9576 585.231 45.3567C585.989 46.6911 583.99 49.0849 583.99 49.0849L582.864 51.0167Z" fill="#E60000"/>
<path d="M526.939 52.65C522.015 63.5088 515.912 73.6324 509.668 85.1524C503.088 74.2527 496.785 64.1614 491.601 53.4031C492.075 50.9161 494.174 50.9783 495.873 51.0287C504.27 51.2776 512.684 50.9268 521.095 50.6759C523.194 50.7381 525.393 50.8033 526.939 52.65Z" fill="#FF0540"/>
<path d="M529.889 47.6351C529.433 48.6844 529.367 48.3692 528.837 49.3539C528.308 50.3385 526.939 52.6499 526.939 52.6499C526.939 52.6499 503.715 53.1111 491.598 53.503C490.928 52.4827 489.585 50.5421 489.585 50.5421C489.585 50.5421 487.675 48.8702 487.775 47.4871C487.944 45.1403 489.739 45.3687 489.739 45.3687C489.739 45.3687 515.146 45.4973 527.955 45.3768C529.457 45.3213 530.426 46.3997 529.889 47.6351Z" fill="#DD0043"/>
<path d="M472.847 51.555C472.847 51.555 470.417 58.0812 468.749 61.0991C464.53 68.7443 460.209 76.2905 455.498 84.641C448.976 73.2095 442.567 62.977 437.349 51.9318C436.844 51.437 437.344 51.4317 437.344 51.4317L471.347 51.5709L472.847 51.555Z" fill="#BB0233"/>
<path d="M437.249 51.8327C436.538 50.8402 436.352 50.395 435.823 49.4478C435.168 48.2753 434.807 47.9585 434.291 46.4639C433.775 44.9693 435.166 44.4545 436.27 44.4428C438.77 44.4163 465.675 44.7308 473.378 44.9491C476.777 44.9131 475.011 47.8418 474.326 49.5393C473.912 50.5649 472.847 51.5552 472.847 51.5552C472.847 51.5552 448.988 51.7082 437.249 51.8327Z" fill="#960028"/>
<path d="M691.275 46.3868C691.275 46.3868 689.274 53.0571 687.805 56.1769C684.092 64.08 680.271 71.8909 676.111 80.5298C668.861 69.5461 661.8 59.7516 655.877 49.0685C655.34 48.6077 655.839 48.5699 655.839 48.5699L689.779 46.5001L691.275 46.3868Z" fill="#BB0233"/>
<path d="M655.77 48.9763C654.996 48.032 654.782 47.5998 654.192 46.689C653.462 45.5615 653.082 45.2688 652.47 43.8108C651.858 42.3529 653.212 41.7489 654.313 41.6655C656.806 41.4767 683.675 40.0429 691.375 39.7604C694.765 39.5036 693.193 42.5409 692.62 44.2793C692.274 45.3296 691.275 46.387 691.275 46.387C691.275 46.387 667.476 48.0895 655.77 48.9763Z" fill="#960028"/>
<path d="M418.029 51.8153C412.333 62.5263 405.624 72.5566 398.834 83.5886C392.913 72.0999 386.911 61.6129 382.298 50.4992C383.667 48.8727 385.465 48.7382 387.27 49.0037C394.39 49.9676 401.477 49.2317 408.581 49.3957C411.983 49.4306 415.38 49.2656 418.029 51.8153Z" fill="#FF0540"/>
<path d="M418.03 51.8155L382.298 50.4993L380.241 47.5382C380.241 47.5382 378.722 45.724 379.38 44.3374C380.235 42.5322 384.26 43.2604 384.26 43.2604C395.668 43.6892 407.08 43.9076 418.486 44.3053C422.169 44.4338 422.418 45.9013 420.272 48.772C418.126 51.6426 418.03 51.8155 418.03 51.8155Z" fill="#D50745"/>
<path d="M745.909 41.5964C741.884 53.0408 736.756 63.9642 731.698 75.8901C724.12 65.4198 716.613 55.952 710.384 45.6564C711.494 43.8428 713.251 43.4402 715.076 43.4318C722.26 43.3165 729.156 41.5256 736.205 40.6218C739.573 40.146 742.907 39.473 745.909 41.5964Z" fill="#FF0540"/>
<path d="M745.909 41.5965L710.384 45.6565L707.906 43.0375C707.906 43.0375 706.133 41.4717 706.574 40.0022C707.15 38.089 711.238 38.2052 711.238 38.2052C722.581 36.9173 733.896 35.4211 745.233 34.1029C748.894 33.6772 749.36 35.0909 747.669 38.251C745.978 41.4111 745.909 41.5965 745.909 41.5965Z" fill="#D50745"/>
<path d="M362.84 49.6783C357.828 60.1267 350.752 69.2712 344.609 79.0724C343.029 81.6499 342.321 79.3808 341.764 78.2058C336.659 67.6352 331.654 57.0598 326.549 46.4892C333.432 45.9634 340.281 46.8409 347.206 47.2141C350.517 47.3579 353.732 47.6063 357.033 47.5503C359.231 47.4463 361.443 47.6421 362.84 49.6783Z" fill="#FB5858"/>
<path d="M362.841 49.6786C353.104 49.1379 327.315 47.8676 327.315 47.8676L326.55 46.4895C326.55 46.4895 326.012 45.714 325.694 45.3286C325.052 44.458 324.085 43.6833 324.358 42.4885C324.663 41.1567 325.966 40.5103 327.27 40.5488C339.613 41.1664 352.056 41.7793 364.399 42.3969C365.602 42.4401 366.611 43.2787 366.7 44.4905C366.766 45.3794 366.165 45.7822 365.696 46.5402C364.824 47.9491 363.792 48.6325 362.841 49.6786Z" fill="#E60000"/>
<path d="M800.905 33.5836C798.194 44.8504 793.192 55.2748 789.239 66.1459C788.234 68.9974 787.066 66.927 786.276 65.8946C779.069 56.6287 771.959 47.3372 764.752 38.0712C771.371 36.1147 778.252 35.5372 785.102 34.4507C788.369 33.8975 791.565 33.4665 794.781 32.7199C796.908 32.1577 799.112 31.8855 800.905 33.5836Z" fill="#FB5858"/>
<path d="M800.906 33.5837C791.272 35.0956 765.79 39.2584 765.79 39.2584L764.752 38.0713C764.752 38.0713 764.064 37.4256 763.672 37.1156C762.862 36.3988 761.754 35.844 761.771 34.6185C761.79 33.2523 762.929 32.3472 764.211 32.1116C776.409 30.1287 788.704 28.1201 800.903 26.1372C802.088 25.9272 803.25 26.5359 803.592 27.702C803.842 28.5574 803.339 29.0772 803.039 29.9166C802.482 31.477 801.617 32.3613 800.906 33.5837Z" fill="#E60000"/>
<path d="M308.167 46.9231C302.304 57.5308 295.056 67.1469 288.013 78.0507C282.277 66.6765 276.995 55.9677 272.679 44.7795C273.587 43.6024 274.882 43.4975 276.286 43.4842C285.138 43.771 294.006 44.257 302.874 44.7431C304.792 44.8888 306.718 45.1342 308.167 46.9231Z" fill="#FF0540"/>
<path d="M308.167 46.9232C296.269 46.1808 284.613 45.5556 272.714 44.8133C272.027 43.7652 270.763 40.7889 270.763 40.7889C270.763 40.7889 269.925 39.0666 270.8 37.789C271.48 36.7973 272.806 37.3139 273.806 37.3261C274.807 37.3383 298.784 39.0075 309.279 39.7632C311.596 39.8766 312.001 40.4223 311.754 41.7938C311.626 42.5035 311.146 43.1928 310.73 43.7814C309.815 45.0738 309.205 45.7627 308.167 46.9232Z" fill="#D50745"/>
<path d="M636.862 50.1941C632.061 61.323 625.785 71.6001 619.839 83.1388C613.021 72.3782 606.72 62.2354 601.333 51.5215C602.122 50.2615 603.401 50.0307 604.797 49.8806C613.634 49.3028 622.508 48.9217 631.381 48.5407C633.304 48.4987 635.245 48.5551 636.862 50.1941Z" fill="#FF0540"/>
<path d="M636.861 50.1941C624.947 50.6156 613.286 51.1301 601.371 51.5516C600.585 50.5755 599.038 47.7366 599.038 47.7366C599.038 47.7366 598.035 46.1043 598.782 44.7474C599.361 43.6941 600.732 44.0789 601.728 43.9935C602.725 43.9081 626.751 43.2312 637.269 42.9598C639.586 42.8468 640.043 43.3504 639.931 44.7395C639.873 45.4582 639.462 46.191 639.105 46.8174C638.321 48.1929 637.781 48.938 636.861 50.1941Z" fill="#D50745"/>
<path d="M254.076 42.6624C247.128 53.1261 239.231 62.8488 230.993 73.4951C226.317 61.4685 221.506 50.4525 217.966 38.9546C219.474 37.4556 221.402 37.8335 223.124 38.1245C232.439 39.6343 241.99 40.127 251.299 41.537C252.409 41.6665 253.32 41.8088 254.076 42.6624Z" fill="#BB0233"/>
<path d="M254.076 42.6625C241.949 42.6348 230.063 40.0866 217.966 38.9547C217.404 37.9886 216.937 37.2794 216.384 36.1498C215.983 35.3286 215.374 34.9166 215.446 34.0052C215.568 32.4548 217.102 31.695 218.818 31.8862C228.706 32.9586 248.483 35.1034 248.483 35.1034C248.483 35.1034 253.331 35.4234 256.37 35.9309C257.686 36.1475 258.233 36.821 258.004 37.9378C257.588 39.2671 255.993 40.4293 255.993 40.4293C255.993 40.4293 254.83 41.913 254.076 42.6625Z" fill="#960028"/>
<path d="M199.27 36.1513C191.939 46.1763 183.755 55.4579 175.213 65.3655C171.006 53.7259 167.241 42.6576 164.159 31.3419C164.728 29.3985 166.338 29.4886 167.855 29.6852C177.304 31.5432 186.825 32.9953 196.347 34.4473C197.565 34.6645 198.597 35.095 199.27 36.1513Z" fill="#FF0540"/>
<path d="M199.271 36.1514C188.872 35.0602 178.624 33.2569 168.363 31.2542C167.039 30.944 165.574 30.0422 164.16 31.342C163.672 30.0724 163.077 28.7098 162.589 27.4403C161.241 25.3275 160.506 23.3732 164.311 23.3128C169.383 24.0704 199.922 28.5844 202.427 30.0756C204.932 31.5668 201.921 33.8648 201.921 33.8648C201.921 33.8648 200.221 35.3846 199.271 36.1514Z" fill="#D50745"/>
</g>
</svg>
