<svg width="17" height="17" viewBox="0 0 17 17" fill="none" xmlns="http://www.w3.org/2000/svg">
<path fill-rule="evenodd" clip-rule="evenodd" d="M9.95391 1.9024C9.95391 1.57103 9.68528 1.3024 9.35391 1.3024C9.02254 1.3024 8.75391 1.57103 8.75391 1.9024V2.84204H2.85391C2.52254 2.84204 2.25391 3.11067 2.25391 3.44204C2.25391 3.77341 2.52254 4.04204 2.85391 4.04204H15.8539C16.1853 4.04204 16.4539 3.77341 16.4539 3.44204C16.4539 3.11067 16.1853 2.84204 15.8539 2.84204H9.95391V1.9024ZM4.03579 5.56326C4.36716 5.56326 4.63579 5.83189 4.63579 6.16326V13.9024C4.63579 14.6756 5.26259 15.3024 6.03579 15.3024H12.6722C13.4454 15.3024 14.0722 14.6756 14.0722 13.9024V6.16326C14.0722 5.83189 14.3408 5.56326 14.6722 5.56326C15.0035 5.56326 15.2722 5.83189 15.2722 6.16326V13.9024C15.2722 15.3383 14.1081 16.5024 12.6722 16.5024H6.03579C4.59985 16.5024 3.43579 15.3383 3.43579 13.9024V6.16326C3.43579 5.83189 3.70442 5.56326 4.03579 5.56326ZM7.62499 6.30651C7.62499 5.97514 7.35636 5.70651 7.02499 5.70651C6.69362 5.70651 6.42499 5.97514 6.42499 6.30651V13.4676C6.42499 13.799 6.69362 14.0676 7.02499 14.0676C7.35636 14.0676 7.62499 13.799 7.62499 13.4676V6.30651ZM11.6827 5.70651C12.0141 5.70651 12.2827 5.97514 12.2827 6.30651V13.4676C12.2827 13.799 12.0141 14.0676 11.6827 14.0676C11.3513 14.0676 11.0827 13.799 11.0827 13.4676V6.30651C11.0827 5.97514 11.3513 5.70651 11.6827 5.70651Z" fill="#656565"/>
</svg>
