<svg width="24" height="24" viewBox="0 0 24 24" fill="none" xmlns="http://www.w3.org/2000/svg">
<path fill-rule="evenodd" clip-rule="evenodd" d="M12 24C18.6274 24 24 18.6274 24 12C24 5.37258 18.6274 0 12 0C5.37258 0 0 5.37258 0 12C0 18.6274 5.37258 24 12 24ZM7.87324 16.9646C7.53851 16.6299 7.53851 16.0872 7.87324 15.7524L11.1057 12.5199L7.87324 9.28746C7.53851 8.95272 7.53851 8.41001 7.87324 8.07528C8.20798 7.74054 8.75069 7.74054 9.08542 8.07528L12.3179 11.3078L15.7524 7.87324C16.0872 7.53851 16.6299 7.53851 16.9646 7.87324C17.2993 8.20798 17.2993 8.75069 16.9646 9.08542L13.5301 12.5199L16.9646 15.9545C17.2993 16.2892 17.2993 16.8319 16.9646 17.1666C16.6299 17.5014 16.0872 17.5014 15.7524 17.1666L12.3179 13.7321L9.08542 16.9646C8.75069 17.2993 8.20798 17.2993 7.87324 16.9646Z" fill="#EC3E36"/>
</svg>
