<svg width="71" height="54" viewBox="0 0 71 54" fill="none" xmlns="http://www.w3.org/2000/svg">
<path d="M31.592 38.332C31.1063 37.6924 30.5113 37.1622 29.8556 36.7169C29.9649 36.6239 30.0741 36.5308 30.1834 36.4377C30.7056 35.9884 31.2763 35.535 31.4827 34.8469C31.9361 33.325 30.6044 32.0824 29.2201 31.8274C27.8156 31.5684 26.3463 31.6574 24.9539 31.9569C23.6263 32.2443 22.0274 32.8595 21.1046 33.8836C20.5865 34.4584 21.0843 35.446 21.8817 35.2193C22.7722 34.9684 23.5858 34.5231 24.4925 34.2965C25.3991 34.0698 26.3017 33.9281 27.2367 33.9322C27.6537 33.9362 28.0827 33.9524 28.4915 34.0253C28.5927 34.0415 28.7303 34.1022 28.8477 34.1386C28.5482 34.3491 28.1637 34.7174 28.022 34.8227C27.5889 35.1343 27.1639 35.4541 26.7389 35.7779C26.0346 36.3203 25.6744 37.6884 26.7389 38.1498C27.5929 38.5181 28.3579 38.9917 29.0096 39.6596C29.2079 39.862 29.6168 40.2667 29.5965 40.5865C29.5965 40.6148 29.6006 40.631 29.6087 40.6432C29.5844 40.6391 29.5439 40.6391 29.4751 40.6432C28.5725 40.7282 27.6253 40.6593 26.7308 40.4934C25.6298 40.291 24.6341 39.8255 23.5615 39.5584C21.8979 39.1496 20.9224 41.4122 22.3958 42.3189C23.7963 43.181 25.7148 43.4482 27.3258 43.5858C28.8679 43.7153 30.8108 43.772 31.8794 42.4565C32.9075 41.2098 32.4865 39.5098 31.592 38.332Z" fill="#242424" stroke="#242424" stroke-width="2" stroke-miterlimit="10"/>
<path d="M50.4176 20.1257C48.9524 15.3616 46.0341 11.2169 41.9945 8.29446C37.6716 5.16968 32.1264 3.37253 26.7754 3.77325C25.4154 3.87444 24.0675 4.11325 22.7561 4.49372C22.408 4.59492 22.1692 4.7973 22.0316 5.04825C18.0001 5.58254 14.078 7.69136 11.0706 10.2899C7.20102 13.6333 4.45672 18.1585 2.90647 23.0076C1.29147 28.0631 0.65194 33.8593 2.66362 38.8905C4.57815 43.6668 8.34245 48.0625 13.0539 50.2442C22.5011 54.6156 34.6238 52.7213 42.4924 46.0306C49.8915 39.7365 53.2996 29.496 50.4176 20.1257ZM43.1643 41.991C36.8945 49.0582 26.8563 51.7337 17.7573 49.5277C12.8799 48.3458 8.92936 45.4113 6.23363 41.1856C4.93434 39.1496 3.99529 36.887 3.65529 34.4867C3.29505 31.9489 3.546 29.3057 4.04386 26.8043C4.96672 22.1455 6.95411 17.6324 10.0708 14.0178C13.0863 10.5288 16.972 7.99088 21.3597 6.5985C21.5985 6.52159 21.8373 6.44873 22.0761 6.37992C22.327 6.80088 22.8006 7.07612 23.4159 6.89802C32.6566 4.21444 42.9821 9.58565 46.9974 18.0978C50.7657 26.0717 48.9362 35.4865 43.1643 41.991Z" fill="#242424" stroke="#242424" stroke-width="2" stroke-miterlimit="10"/>
<path d="M22.2137 20.4859C22.1287 20.3847 22.0396 20.3159 21.9465 20.2592C21.7725 19.984 21.5579 19.7371 21.2867 19.5428C20.0522 18.6442 18.4048 19.2068 17.9798 20.668C17.6277 21.8742 17.6196 23.2019 17.7815 24.4769C17.8017 25.0638 17.8948 25.6224 18.0851 26.104C18.1174 26.2133 18.1579 26.3104 18.2105 26.3914C18.5789 27.1159 19.2063 27.6097 20.2101 27.6543C21.6632 27.719 22.5172 26.5614 22.7318 25.25C22.9625 23.8616 23.1729 21.6314 22.2137 20.4859Z" fill="#242424" stroke="#242424" stroke-width="2" stroke-miterlimit="10"/>
<path d="M36.3845 25.4927C34.9759 25.6101 33.5754 25.6304 32.183 25.5494C33.4742 24.7884 34.6844 23.9061 35.8178 22.878C36.8014 21.9875 35.3402 20.5344 34.3647 21.4249C32.5878 23.0399 30.572 24.2987 28.3337 25.1689C27.4958 25.4927 27.2246 26.9539 28.3337 27.1523C31.0092 27.6299 33.6806 27.7756 36.3885 27.5489C37.6959 27.4437 37.704 25.3834 36.3845 25.4927Z" fill="#242424" stroke="#242424" stroke-width="2" stroke-miterlimit="10"/>
<path d="M48.3697 34.3976C47.6816 33.2157 46.4025 32.5357 45.087 32.1269C45.8075 30.8276 46.3377 29.3907 45.9208 27.9092C45.4918 26.3792 44.1925 25.8328 42.6989 26.1121C40.9058 26.448 39.5822 27.8162 38.5015 29.1802C36.7448 31.3983 34.9841 33.4302 32.7822 35.2274C32.592 35.3852 32.4786 35.5674 32.4301 35.7576C31.9727 36.2636 32.0982 37.3402 32.9967 37.5669C35.7694 38.255 38.5825 38.7083 41.4361 38.8541C43.3061 38.9512 45.8237 39.3114 47.4873 38.2469C48.8189 37.3929 49.1589 35.7536 48.3697 34.3976ZM45.7387 36.7614C45.5404 36.7857 45.3461 36.81 45.1477 36.8302C44.0346 37.235 42.1322 36.8505 40.9422 36.7695C38.971 36.636 37.0241 36.3486 35.0975 35.9438C36.5465 34.6688 37.8944 33.2886 39.1006 31.7707C39.813 30.8721 40.4484 29.8764 41.3227 29.1195C41.687 28.7471 42.112 28.4638 42.6018 28.2695C43.7432 28.1723 44.0468 28.4759 43.9699 29.3988C44.1885 30.0059 42.9215 31.7707 42.6827 32.1471C42.2618 32.8109 42.5289 33.6488 43.3465 33.8026C44.0346 33.9362 44.8968 34.1143 45.4999 34.5352C46.3985 34.8469 47.1958 35.9074 45.7387 36.7614Z" fill="#242424" stroke="#242424" stroke-width="2" stroke-miterlimit="10"/>
<path d="M62.4877 20.3885C61.1277 19.3806 59.5653 19.3968 58.0677 19.8339C57.9746 18.3566 57.6427 16.8913 56.5174 15.8349C55.3193 14.7096 53.4776 14.3737 52.1176 15.4099C50.5714 16.5877 50.2112 18.8261 50.0007 20.6192C49.6769 23.3513 49.8833 26.0956 49.086 28.7549C48.406 29.3257 48.9645 30.7504 50.0736 30.5359C52.9879 29.9692 55.8617 29.2123 58.6546 28.2045C60.5084 27.5326 62.597 26.7756 63.5158 24.8773C64.2929 23.2825 63.9327 21.4611 62.4877 20.3885ZM61.0832 24.7478C60.0712 25.7475 58.3631 26.1442 57.0598 26.5854C55.1858 27.2168 53.2834 27.739 51.3567 28.168C51.7857 26.1523 51.7979 24.1002 51.9355 22.0237C52.0043 20.9713 51.9962 18.4213 52.8786 17.628C53.3805 16.7335 54.1657 16.5635 54.8215 17.1018C55.4448 17.5673 55.8091 18.1866 55.9184 18.9516C56.0843 19.7085 56.0519 20.5301 56.0479 21.2992C56.0438 22.1371 56.91 22.5013 57.5941 22.1856C58.3591 21.8335 60.1684 21.1211 60.9698 21.8416C61.8927 22.6754 61.921 23.9221 61.0832 24.7478Z" fill="#242424" stroke="#242424" stroke-width="2" stroke-miterlimit="10"/>
<path d="M69.0773 4.69174C67.272 1.44149 63.7344 2.61935 61.5527 4.68769C60.9334 3.37626 60.0834 2.18221 58.6667 1.65196C57.1286 1.08125 55.2789 1.46577 54.441 2.96745C53.3846 4.86174 54.352 6.9908 55.1736 8.77176C56.2989 11.2044 57.6953 13.4832 59.2658 15.6527C59.7717 16.353 60.5975 16.0089 60.897 15.3896C60.9213 15.3735 60.9456 15.3613 60.9658 15.3451C63.2972 13.4873 66.0173 11.7589 68.0532 9.57319C69.2675 8.27795 70.0082 6.36746 69.0773 4.69174ZM67.4542 6.43223C67.4946 7.27818 66.5192 8.22938 65.9768 8.71509C64.1472 10.3706 62.1153 11.8439 60.1684 13.3699C58.9703 11.6172 57.9058 9.78367 57.0113 7.85295C56.7684 7.32675 56.5174 6.80056 56.3434 6.24603C56.052 5.63079 55.967 4.97508 56.0965 4.28293C56.6591 3.54626 56.9222 3.3965 57.9989 3.60293C59.2536 3.74864 59.9701 6.13675 60.3303 7.10413C60.6056 7.84485 61.7187 7.80842 62.1072 7.20937C62.7629 6.19341 63.702 4.98722 64.9891 4.77674C66.0375 4.60269 67.3894 5.12889 67.4542 6.43223Z" fill="#242424" stroke="#242424" stroke-width="2" stroke-miterlimit="10"/>
</svg>
