<svg width="56" height="52" viewBox="0 0 56 52" fill="none" xmlns="http://www.w3.org/2000/svg">
<g clip-path="url(#clip0)">
<path d="M21.099 18.9482C20.5611 18.317 19.7012 18.0629 18.9514 18.4992C18.261 18.8973 17.9899 19.6894 17.8459 20.435C17.7018 21.1805 17.6468 21.9387 17.7611 22.6885C17.7654 22.7012 17.7654 22.7181 17.7696 22.7308C17.7569 22.8833 17.7739 23.04 17.8374 23.1883C18.1763 24.0016 18.7608 24.548 19.6842 24.548C20.4594 24.548 21.1626 24.0948 21.5565 23.4382C22.3444 22.1039 22.086 20.1088 21.099 18.9482Z" fill="#242424" stroke="#242424" stroke-width="2" stroke-miterlimit="10"/>
<path d="M37.1065 20.3579C36.6109 19.2184 35.4248 18.8075 34.4548 19.5022C33.6203 20.0995 33.3238 21.2347 33.2645 22.2768C33.2095 23.2214 33.417 24.2253 34.099 24.8437C34.9335 25.5977 36.1111 25.3139 36.6871 24.3396C36.7846 24.1744 36.8651 24.0008 36.9371 23.8186C37.0472 23.6704 37.1446 23.5052 37.2251 23.3188C37.6275 22.3869 37.5004 21.2686 37.1065 20.3579Z" fill="#242424" stroke="#242424" stroke-width="2" stroke-miterlimit="10"/>
<path d="M25.1951 42.1555C24.1107 42.0412 23.0475 42.1979 21.9589 41.9734C20.9635 41.7658 20.0062 41.4354 19.0954 40.9906C18.1635 40.5374 17.2443 39.9783 16.4183 39.3556C15.55 38.699 14.8934 37.818 14.0039 37.1953C13.4744 36.8268 12.9618 37.4325 13.0381 37.9408C13.2202 39.1904 14.1733 40.3002 14.9908 41.2109C15.8211 42.1343 16.825 42.9053 17.9179 43.4941C19.0107 44.0829 20.2222 44.5276 21.4379 44.7903C22.7171 45.0656 24.2929 45.3282 25.5806 44.9766C27.2241 44.5192 26.7328 42.3165 25.1951 42.1555Z" fill="#242424" stroke="#242424" stroke-width="2" stroke-miterlimit="10"/>
<path d="M54.478 21.7091C53.8384 21.5947 53.1945 21.4888 52.5549 21.3787C52.377 20.1121 52.1017 18.8456 51.7162 17.596C50.1828 12.6104 47.1287 8.27279 42.9013 5.21446C38.3773 1.94011 32.5741 0.059364 26.9742 0.482955C25.551 0.588852 24.1404 0.838771 22.768 1.23695C22.4037 1.34284 22.1538 1.55464 22.0098 1.81727C17.7908 2.37217 13.6862 4.57908 10.5389 7.29853C7.85759 9.61557 5.69728 12.4748 4.07069 15.6136C3.2108 15.5458 2.35091 15.5162 1.4995 15.5628C0.122827 15.639 0.114356 17.7909 1.4995 17.7146C2.02475 17.685 2.55 17.6892 3.07949 17.7104C2.67284 18.6592 2.31279 19.6293 1.9951 20.612C0.304971 25.9026 -0.364302 31.9685 1.74094 37.2337C3.74453 42.2321 7.68392 46.8323 12.6145 49.1154C22.5011 53.6902 35.1877 51.7078 43.4223 44.7058C49.6025 39.4491 53.1225 31.5533 52.7497 23.5898C53.1352 23.6576 53.5164 23.7211 53.9019 23.7889C55.2574 24.0219 55.842 21.9463 54.478 21.7091ZM9.49689 11.1998C12.6526 7.54845 16.7191 4.89253 21.3108 3.43538C21.5608 3.3549 21.8107 3.27865 22.0606 3.20664C22.3232 3.64718 22.8188 3.93522 23.4627 3.74884C33.1333 0.940433 43.9391 6.56148 48.1453 15.4696C48.9756 17.2317 49.5432 19.0574 49.8693 20.9127C48.5265 20.6882 47.1838 20.468 45.841 20.2519C45.8918 19.5276 45.8918 18.816 45.8367 18.1255C45.4767 13.7498 41.0332 5.89644 35.7383 8.37445C30.8798 9.50544 29.5073 14.7791 29.1049 19.4556C28.9016 19.4259 28.694 19.4048 28.4907 19.3836C28.5373 18.5618 28.5373 17.7612 28.4907 17.0115C28.0883 10.2848 22.8019 6.98931 16.376 8.44222C16.1219 8.50153 15.9355 8.62013 15.8084 8.77686C12.1443 9.73841 9.86542 12.7332 8.85727 16.1939C8.01009 16.0923 7.15867 15.9652 6.29878 15.8551C7.19679 14.1988 8.26001 12.6315 9.49689 11.1998ZM43.6468 20.2223C43.2317 24.077 41.19 28.9483 36.8778 29.6684C31.2991 30.6003 30.9475 24.7335 31.1847 20.8153C31.4092 17.0326 31.9769 11.2972 36.5516 10.3865C36.7677 10.3441 36.9286 10.251 37.0515 10.1366C39.449 9.30211 41.1984 12.4367 42.1769 14.1226C43.2994 16.0499 43.8882 17.9857 43.6468 20.2223ZM20.6839 28.9821C18.4685 29.4862 15.8084 28.2451 13.9361 27.1438C11.7335 25.8476 10.5432 23.9838 10.4203 21.421C10.2128 17.0581 11.8775 11.9284 16.5751 10.8059C16.8165 10.7466 16.9944 10.6322 17.1173 10.4882C19.392 10.001 21.8191 10.0561 23.7888 11.4497C25.9534 12.9789 26.3262 15.6094 26.3685 18.062C26.4405 21.8531 25.1909 27.9571 20.6839 28.9821ZM44.1254 40.4742C37.564 47.8701 27.059 50.67 17.5366 48.3614C12.4366 47.1245 8.30237 44.0535 5.48125 39.6312C4.12152 37.5005 3.13879 35.1327 2.78298 32.6208C2.40598 29.9649 2.66861 27.1988 3.18962 24.581C3.64287 22.2852 4.35026 20.0274 5.30334 17.8798C6.34114 17.9984 7.37894 18.1552 8.40403 18.2865C8.20494 19.6674 8.19223 21.0652 8.35743 22.4038C8.72172 25.3731 10.3017 27.508 12.8517 28.9948C15.2577 30.4012 18.4304 31.7397 21.26 31.0493C25.5552 30.003 27.5927 25.7205 28.2662 21.5015C28.5034 21.5269 28.7449 21.5608 28.9778 21.599C28.9609 22.0141 28.9524 22.4207 28.9439 22.8104C28.8974 25.3986 29.2193 28.19 31.2017 30.0708C32.985 31.7651 35.7299 32.2607 38.0596 31.5915C42.088 30.4308 44.6549 26.4745 45.536 22.3614C47.0736 22.6071 48.607 22.8613 50.1447 23.1239C50.5852 29.3634 48.3825 35.6749 44.1254 40.4742Z" fill="#242424" stroke="#242424" stroke-width="2" stroke-miterlimit="10"/>
</g>
<defs>
<clipPath id="clip0">
<rect width="55.6768" height="52" fill="white"/>
</clipPath>
</defs>
</svg>
