<svg width="55" height="54" viewBox="0 0 55 54" fill="none" xmlns="http://www.w3.org/2000/svg">
<path d="M52.7164 18.5918C51.183 13.6061 48.1289 9.26856 43.9015 6.21023C39.3776 2.94011 33.5744 1.05937 27.9745 1.48296C26.5512 1.58886 25.1407 1.83877 23.7682 2.23695C23.4039 2.34285 23.154 2.55464 23.01 2.81727C18.791 3.37217 14.6864 5.57908 11.5392 8.29853C7.48964 11.8016 4.6177 16.5331 2.99534 21.6078C1.30522 26.8984 0.635942 32.9642 2.74119 38.2295C4.74477 43.2278 8.6884 47.828 13.6148 50.1112C23.5014 54.686 36.1879 52.7036 44.4225 45.7016C52.1658 39.119 55.7324 28.3979 52.7164 18.5918ZM45.1257 41.4742C38.5643 48.8701 28.0592 51.67 18.5369 49.3614C13.4369 48.1245 9.30261 45.0535 6.48149 40.6312C5.12177 38.5006 4.13904 36.1327 3.78322 33.6208C3.40623 30.9649 3.66885 28.1988 4.18987 25.581C5.15566 20.7055 7.23549 15.9825 10.4971 12.1998C13.6529 8.54845 17.7194 5.89254 22.3111 4.43539C22.561 4.3549 22.8109 4.27866 23.0608 4.20665C23.3235 4.64718 23.8191 4.93522 24.4629 4.74884C34.1335 1.94044 44.9393 7.56149 49.1413 16.4696C53.0807 24.8143 51.1661 34.6671 45.1257 41.4742Z" fill="#242424" stroke="#242424" stroke-width="2" stroke-miterlimit="10"/>
<path d="M24.8738 20.045C22.9804 18.8124 21.1844 17.4738 19.4688 16.004C18.4226 15.106 16.8934 16.6224 17.9481 17.5247C19.0876 18.5032 20.2694 19.4266 21.4809 20.3077C20.0957 20.4644 18.7106 20.5576 17.3085 20.5661C15.9234 20.5745 15.9191 22.7306 17.3085 22.7179C19.7696 22.701 22.201 22.4553 24.6155 22.0105C25.5855 21.8326 25.5855 20.511 24.8738 20.045Z" fill="#242424" stroke="#242424" stroke-width="2" stroke-miterlimit="10"/>
<path d="M37.0689 16.4188C35.9379 15.47 34.2986 15.4657 33.1295 16.3468C31.9731 17.2194 31.3419 18.7147 31.7444 20.1379C32.1214 21.4722 33.3286 22.366 34.6629 22.4677C34.7137 22.4973 34.7646 22.527 34.8154 22.5524C36.3742 23.3064 37.5942 21.8577 37.9923 20.5065C38.4202 19.062 38.2804 17.4397 37.0689 16.4188Z" fill="#242424" stroke="#242424" stroke-width="2" stroke-miterlimit="10"/>
<path d="M36.1879 40.7753C31.3462 42.8466 25.7845 43.0881 20.909 40.9786C16.7239 39.1699 12.1999 35.3152 11.6111 30.5244C11.6832 30.5201 11.7509 30.5244 11.8145 30.5286C12.1067 30.715 12.488 30.7743 12.8861 30.5752C12.9073 30.5667 12.9243 30.554 12.9455 30.5456C13.2631 30.3846 13.4961 29.9695 13.4792 29.6179C13.4792 29.5925 13.4749 29.5671 13.4749 29.5417C13.4495 29.0461 13.1572 28.6564 12.6828 28.5039C11.967 28.2751 11.0605 28.453 10.3319 28.5589C9.49742 28.686 8.6926 28.9063 7.90896 29.2113C6.63395 29.7069 7.18885 31.7909 8.48081 31.2868C8.82391 31.1555 9.16702 31.0412 9.51437 30.9395C10.3404 36.2895 14.8686 40.6016 19.6382 42.7704C25.3016 45.3458 31.6173 45.0578 37.2723 42.6391C38.543 42.0926 37.4502 40.2373 36.1879 40.7753Z" fill="#242424" stroke="#242424" stroke-width="2" stroke-miterlimit="10"/>
</svg>
