<svg width="55" height="54" viewBox="0 0 55 54" fill="none" xmlns="http://www.w3.org/2000/svg">
<path d="M52.7162 18.5918C51.1828 13.6061 48.1287 9.26856 43.9013 6.21023C39.3773 2.94011 33.5741 1.05937 27.9742 1.48296C26.551 1.58886 25.1404 1.83877 23.768 2.23695C23.4037 2.34285 23.1538 2.55464 23.0098 2.81727C18.7908 3.37217 14.6862 5.57908 11.5389 8.29853C7.4894 11.8016 4.61745 16.5331 2.9951 21.6078C1.30497 26.8984 0.635698 32.9642 2.74094 38.2295C4.74453 43.2278 8.68816 47.828 13.6145 50.1112C23.5011 54.686 36.1877 52.7036 44.4223 45.7016C52.1655 39.119 55.7321 28.3979 52.7162 18.5918ZM45.1254 41.4742C38.564 48.8701 28.059 51.67 18.5366 49.3614C13.4366 48.1245 9.30236 45.0535 6.48125 40.6312C5.12152 38.5006 4.13879 36.1327 3.78298 33.6208C3.40598 30.9649 3.66861 28.1988 4.18962 25.581C5.15541 20.7055 7.23524 15.9825 10.4969 12.1998C13.6526 8.54845 17.7191 5.89254 22.3108 4.43539C22.5608 4.3549 22.8107 4.27866 23.0606 4.20665C23.3232 4.64718 23.8188 4.93522 24.4627 4.74884C34.1333 1.94044 44.9391 7.56149 49.1411 16.4696C53.0805 24.8143 51.1658 34.6671 45.1254 41.4742Z" fill="#242424" stroke="#242424" stroke-width="2" stroke-miterlimit="10"/>
<path d="M42.5626 29.7748C31.7017 29.1733 20.8409 28.5675 9.98423 27.966C9.80632 27.8983 9.60724 27.8898 9.40815 27.9321L9.20906 27.9194C8.1162 27.8601 7.89169 29.186 8.52285 29.7832C9.9334 38.4499 16.1263 44.5793 24.8565 45.9178C29.516 46.6337 33.5994 45.6171 37.5134 43.0204C41.4697 40.3984 42.7659 35.5822 43.6046 31.1345C43.7359 30.4271 43.2996 29.8171 42.5626 29.7748ZM14.4997 35.7686C13.9448 35.7262 13.3899 35.6839 12.835 35.6415C11.8904 33.9937 11.1915 32.1596 10.7721 30.156C12.0259 30.2238 13.284 30.2958 14.5378 30.3636C14.5632 32.1723 14.5463 33.9725 14.4997 35.7686ZM19.8412 42.1817C18.5747 41.5718 17.4225 40.822 16.3889 39.9452C16.4482 39.8181 16.4906 39.6741 16.4991 39.5131C16.5245 39.0345 16.5457 38.5558 16.5668 38.0771C17.7529 38.1661 18.9432 38.2466 20.1335 38.3313C20.053 39.6148 19.9598 40.8983 19.8412 42.1817ZM20.2521 36.1879C19.0491 36.1032 17.8503 36.0185 16.6473 35.9295C16.6981 34.1166 16.7151 32.3036 16.6897 30.4864C17.9139 30.5542 19.1423 30.6219 20.3664 30.6897C20.3664 32.5281 20.3283 34.358 20.2521 36.1879ZM25.8816 43.8846C25.2547 43.8168 24.6151 43.7194 23.967 43.5796C23.2469 43.4271 22.5522 43.2322 21.8829 43.0077C21.9125 42.923 21.938 42.8298 21.9464 42.7282C22.082 41.3134 22.1879 39.8943 22.2768 38.4796C23.6196 38.5685 24.9624 38.649 26.3052 38.7252C26.1866 40.4492 26.0468 42.1648 25.8816 43.8846ZM26.445 36.5861C26.3264 36.5776 26.212 36.5734 26.0934 36.5692C24.8607 36.4971 23.6281 36.4167 22.3954 36.3362C22.4759 34.4978 22.514 32.6594 22.514 30.8168C23.9077 30.893 25.297 30.9693 26.6907 31.0498C26.6398 32.8924 26.5551 34.7392 26.445 36.5861ZM28.8425 31.1641L33.8875 31.4437C33.7011 33.2651 33.4893 35.0866 33.2563 36.8996C33.2394 36.8996 33.2267 36.8996 33.2097 36.8996C31.6678 36.8487 30.1302 36.7767 28.5926 36.6962C28.7027 34.8578 28.7874 33.011 28.8425 31.1641ZM28.4486 38.8438C29.9523 38.9201 31.4603 38.9836 32.9683 39.0387C32.7734 40.4323 32.5701 41.8217 32.3498 43.2111C30.9477 43.6855 29.5118 43.9396 28.0292 43.9778C28.1944 42.2707 28.33 40.5594 28.4486 38.8438ZM36.1537 41.3388C35.6623 41.6607 35.1625 41.9445 34.6669 42.2071C34.8236 41.1821 34.9719 40.157 35.1159 39.1319C36.0732 39.2039 37.2254 39.3479 38.3013 39.3479C37.7082 40.1061 37.0051 40.7839 36.1537 41.3388ZM39.7372 36.9292C39.5763 36.9716 39.4238 37.052 39.2967 37.1579C38.5766 37.2977 37.1406 37.0055 36.5349 36.9927C36.1579 36.9843 35.7809 36.9716 35.4039 36.9631C35.6327 35.1671 35.8444 33.3668 36.0308 31.5623C37.776 31.6597 39.5255 31.7572 41.2706 31.8546C40.9148 33.5828 40.4574 35.3365 39.7372 36.9292Z" fill="#242424" stroke="#242424" stroke-width="2" stroke-miterlimit="10"/>
<path d="M23.6027 18.8213C22.2981 16.9956 19.6887 17.9783 18.9729 19.7871C18.5916 20.7486 18.4942 22.1253 19.1338 23.0021C19.5151 23.5274 20.0403 23.7349 20.5825 23.7222C21.0951 24.0442 21.7389 24.1204 22.459 23.7561C24.1364 22.9132 24.6786 20.3293 23.6027 18.8213Z" fill="#242424" stroke="#242424" stroke-width="2" stroke-miterlimit="10"/>
<path d="M34.091 18.341C32.1594 17.8031 30.4735 19.4212 30.3803 21.3019C30.3041 22.8395 31.2911 24.6822 32.8541 24.7923C33.3582 25.1566 34.0529 25.2244 34.6501 24.9194C35.5143 24.4788 36.1031 23.5088 36.3487 22.5939C36.8359 20.8021 35.9379 18.8578 34.091 18.341Z" fill="#242424" stroke="#242424" stroke-width="2" stroke-miterlimit="10"/>
<path d="M24.217 12.6949C21.7475 12.8135 19.3584 13.2795 17.0414 14.1478C15.7537 14.6307 16.3128 16.7106 17.6132 16.2234C19.7524 15.4228 21.9339 14.9569 24.217 14.8468C25.5979 14.7832 25.6064 12.6271 24.217 12.6949Z" fill="#242424" stroke="#242424" stroke-width="2" stroke-miterlimit="10"/>
<path d="M39.3393 12.5477C37.8101 12.2004 36.5817 11.87 35.1457 11.1668C33.8072 10.5102 32.5152 9.98922 31.0242 9.81131C29.6518 9.65035 29.6602 11.8064 31.0242 11.9632C32.5957 12.1453 33.9512 13.0094 35.3575 13.6618C36.497 14.187 37.5729 14.3522 38.7674 14.6233C40.1187 14.9283 40.6948 12.8569 39.3393 12.5477Z" fill="#242424" stroke="#242424" stroke-width="2" stroke-miterlimit="10"/>
</svg>
