<?xml version="1.0" encoding="UTF-8"?>
<svg width="12px" height="12px" viewBox="0 0 12 12" version="1.1" xmlns="http://www.w3.org/2000/svg" xmlns:xlink="http://www.w3.org/1999/xlink">
    <!-- Generator: Sketch 54.1 (76490) - https://sketchapp.com -->
    <title>Combined Shape</title>
    <desc>Created with Sketch.</desc>
    <g id="Page-1" stroke="none" stroke-width="1" fill="none" fill-rule="evenodd">
        <g id="home-svg" transform="translate(-67.000000, -100.000000)" fill-rule="nonzero" stroke="currentColor" class="svg-fill">
            <g id="Group-16" transform="translate(-1.000000, 72.000000)">
                <path d="M75.5612714,39 L75.5612714,35.8310502 C75.5612714,34.968781 74.8622641,34.2697737 73.9999949,34.2697737 C73.1377256,34.2697737 72.4387183,34.968781 72.4387183,35.8310502 L72.4387183,39 L70.8648035,39 C70.4406488,39 70.0968035,38.6561547 70.0968035,38.232 L70.0968035,34.2697737 L69.7838075,34.2697737 C69.3596528,34.2697737 69.0158075,33.9259284 69.0158075,33.5017737 C69.0158075,33.2816207 69.1102855,33.0720535 69.2752569,32.9262737 L73.4914442,29.200566 C73.7819004,28.9438993 74.2180893,28.9438993 74.5085455,29.200566 L78.7247328,32.9262737 C79.0425727,33.2071384 79.072547,33.6924844 78.7916822,34.0103243 C78.6459024,34.1752957 78.4363352,34.2697737 78.2161822,34.2697737 L77.9031863,34.2697737 L77.9031863,38.232 C77.9031863,38.6561547 77.5593409,39 77.1351863,39 L75.5612714,39 Z" id="Combined-Shape"></path>
            </g>
        </g>
    </g>
</svg>
