<?xml version="1.0" encoding="UTF-8"?>
<svg width="12px" height="12px" viewBox="0 0 12 12" version="1.1" xmlns="http://www.w3.org/2000/svg" xmlns:xlink="http://www.w3.org/1999/xlink">
    <!-- Generator: Sketch 55 (78076) - https://sketchapp.com -->
    <title>Combined Shape</title>
    <desc>Created with Sketch.</desc>
    <g id="Page-1" stroke="none" stroke-width="1" fill="none" fill-rule="evenodd">
        <g id="home-copy" transform="translate(-3.000000, -3.000000)" fill-rule="nonzero" stroke="#C8C8C8">
            <path d="M10.5820314,14.008066 L10.5820314,10.8402496 C10.5820314,9.97524551 9.88080703,9.27402118 9.01580298,9.27402118 C8.15079893,9.27402118 7.4495746,9.97524551 7.4495746,10.8402496 L7.4495746,14.008066 L5.86823202,14.008066 C5.44407733,14.008066 5.10023202,13.6642207 5.10023202,13.240066 L5.10023202,9.27402118 L4.78340099,9.27402118 C4.3592463,9.27402118 4.01540099,8.93017587 4.01540099,8.50602118 C4.01540099,8.28555465 4.11014728,8.07572019 4.27552444,7.92992621 L8.50792644,4.19870514 C8.79816895,3.94283177 9.23343701,3.94283177 9.52367952,4.19870514 L13.7560815,7.92992621 C14.07425,8.21041868 14.1047924,8.69572926 13.8242999,9.01389772 C13.678506,9.17927489 13.4686715,9.27402118 13.248205,9.27402118 L12.9313739,9.27402118 L12.9313739,13.240066 C12.9313739,13.6642207 12.5875286,14.008066 12.1633739,14.008066 L10.5820314,14.008066 Z" id="Combined-Shape"></path>
        </g>
    </g>
</svg>
