<?xml version="1.0" encoding="UTF-8"?>
<svg width="10px" height="10px" viewBox="0 0 10 10" version="1.1" xmlns="http://www.w3.org/2000/svg" xmlns:xlink="http://www.w3.org/1999/xlink">
    <!-- Generator: Sketch 55 (78076) - https://sketchapp.com -->
    <title>Combined Shape</title>
    <desc>Created with Sketch.</desc>
    <g id="Page-1" stroke="none" stroke-width="1" fill="none" fill-rule="evenodd">
        <g id="home-(1)" transform="translate(-4.000000, -4.000000)" fill="#FFFFFF" fill-rule="nonzero">
            <g id="Group-24">
                <path d="M10.5612714,14 L10.5612714,10.8310502 C10.5612714,9.968781 9.8622641,9.26977368 8.99999487,9.26977368 C8.13772563,9.26977368 7.43871831,9.968781 7.43871831,10.8310502 L7.43871831,14 L5.86480347,14 C5.44064879,14 5.09680347,13.6561547 5.09680347,13.232 L5.09680347,9.26977368 L4.78380752,9.26977368 C4.35965283,9.26977368 4.01580752,8.92592837 4.01580752,8.50177368 C4.01580752,8.28162072 4.1102855,8.07205353 4.27525688,7.92627368 L8.49144423,4.20056597 C8.78190039,3.9438993 9.21808934,3.9438993 9.50854551,4.20056597 L13.7247328,7.92627368 C14.0425727,8.20713844 14.072547,8.69248445 13.7916822,9.01032432 C13.6459024,9.1752957 13.4363352,9.26977368 13.2161822,9.26977368 L12.9031863,9.26977368 L12.9031863,13.232 C12.9031863,13.6561547 12.5593409,14 12.1351863,14 L10.5612714,14 Z" id="Combined-Shape"></path>
            </g>
        </g>
    </g>
</svg>
