<svg width="108" height="31" viewBox="0 0 108 31" fill="none" xmlns="http://www.w3.org/2000/svg">
<path fill-rule="evenodd" clip-rule="evenodd" d="M0.687516 19.337C7.70235 19.337 12.6113 10.8029 18.1711 10.8029C25.3449 10.8029 28.5979 17.3642 35.8653 17.3642C44.2946 17.3642 47.3678 0.0644132 54.1326 0.0644132C60.8975 0.0644132 60.2873 14.8533 69.7618 14.8533C79.2363 14.8533 81.4862 8.05588 87.5969 8.05588C93.091 8.05588 98.2532 20.127 107.636 21.3365L107.639 30.612H0.6875L0.687516 19.337Z" fill="#FDC360" fill-opacity="0.47"/>
<g filter="url(#filter0_d)">
<path d="M0.6875 25.337C7.70233 25.337 12.6113 16.8029 18.171 16.8029C25.3449 16.8029 28.5979 23.3642 35.8653 23.3642C44.2946 23.3642 47.3678 6.06445 54.1326 6.06445C60.8975 6.06445 60.2873 20.8534 69.7618 20.8534C79.2363 20.8534 81.4862 14.0559 87.5969 14.0559C93.091 14.0559 98.2532 26.1271 107.636 27.3365" stroke="#FED55F" stroke-linecap="round" stroke-linejoin="round"/>
</g>
<defs>
<filter id="filter0_d" x="-0.8125" y="5.56445" width="109.949" height="24.2721" filterUnits="userSpaceOnUse" color-interpolation-filters="sRGB">
<feFlood flood-opacity="0" result="BackgroundImageFix"/>
<feColorMatrix in="SourceAlpha" type="matrix" values="0 0 0 0 0 0 0 0 0 0 0 0 0 0 0 0 0 0 127 0"/>
<feOffset dy="1"/>
<feGaussianBlur stdDeviation="0.5"/>
<feColorMatrix type="matrix" values="0 0 0 0 0.92549 0 0 0 0 0.243137 0 0 0 0 0.211765 0 0 0 0.42 0"/>
<feBlend mode="normal" in2="BackgroundImageFix" result="effect1_dropShadow"/>
<feBlend mode="normal" in="SourceGraphic" in2="effect1_dropShadow" result="shape"/>
</filter>
</defs>
</svg>
