<svg width="19" height="18" viewBox="0 0 19 18" fill="none" xmlns="http://www.w3.org/2000/svg">
<path d="M2.21035 9.72279L5.49598 6.43832C7.3092 4.62395 10.2509 4.62395 12.0646 6.43832C12.3502 6.72323 12.5739 7.04413 12.7699 7.37499L11.2435 8.90139C11.1708 8.97453 11.0812 9.01665 10.9958 9.06605C10.8901 8.70532 10.7059 8.36412 10.4225 8.08037C9.51685 7.17395 8.0433 7.17548 7.13841 8.08037L3.85393 11.3645C2.94752 12.2705 2.94751 13.7437 3.85393 14.6493C4.7592 15.555 6.23237 15.555 7.13841 14.6493L8.30638 13.4802C9.25415 13.8494 10.2755 13.9485 11.2692 13.8026L8.78046 16.2914C6.96609 18.1054 4.02511 18.1054 2.21074 16.2914C0.396752 14.4778 0.396752 11.5364 2.21035 9.72279ZM10.8954 4.32219L12.0642 3.15308C12.9698 2.24819 14.4434 2.24819 15.349 3.15308C16.2547 4.0595 16.2547 5.53267 15.349 6.4387L12.0642 9.72318C11.1581 10.6292 9.68534 10.6292 8.77969 9.72318C8.4967 9.44019 8.3125 9.09899 8.20566 8.73864C8.1195 8.7888 8.03104 8.8294 7.95867 8.90215L6.43227 10.4282C6.62718 10.7606 6.85197 11.0803 7.13764 11.3656C8.95087 13.1796 11.8926 13.1796 13.7066 11.3656L16.9911 8.08113C18.8051 6.26638 18.8051 3.32617 16.9911 1.5118C15.1771 -0.301806 12.2357 -0.301806 10.4217 1.5118L7.93225 4.00091C8.92712 3.85347 9.94842 3.9538 10.8954 4.32219Z" fill="#FF5A5A"/>
</svg>
