<svg width="16" height="16" viewBox="0 0 16 16" fill="none" xmlns="http://www.w3.org/2000/svg">
<path fill-rule="evenodd" clip-rule="evenodd" d="M2.16667 8C2.16667 11.2162 4.7853 13.8333 8 13.8333C11.2164 13.8333 13.8333 11.2164 13.8333 8C13.8333 4.78359 11.2164 2.16667 8 2.16667C4.78359 2.16667 2.16667 4.78359 2.16667 8ZM1 8C1 11.8607 4.14117 15 8 15C11.8607 15 15 11.8607 15 8C15 4.13925 11.8607 1 8 1C4.13925 1 1 4.13925 1 8ZM7 12L7 7H9L9 12H7ZM8.5 4.13397C8.8094 4.31261 9 4.64273 9 5C9 5.35727 8.8094 5.68739 8.5 5.86603C8.1906 6.04466 7.8094 6.04466 7.5 5.86603C7.1906 5.68739 7 5.35727 7 5C7 4.64273 7.1906 4.31261 7.5 4.13397C7.8094 3.95534 8.1906 3.95534 8.5 4.13397Z" fill="currentColor"/>
</svg>
