<svg fill="currentColor" xmlns="http://www.w3.org/2000/svg" viewBox="0 0 24 24"><path d="M8.25 6h12M8.25 12h12M8.25 18h12" stroke="currentColor" stroke-width="1.5" stroke-linecap="round" stroke-linejoin="round"/><path d="M4.125 10h-.75a.375.375 0 0 0 0 .75h.75c.07 0 .125.056.125.125V11a.125.125 0 0 1-.125.125h-.25A.876.876 0 0 0 3 12v.625c0 .207.168.375.375.375h1.25a.375.375 0 0 0 0-.75H3.75V12c0-.069.056-.125.125-.125h.25A.876.876 0 0 0 5 11v-.125A.876.876 0 0 0 4.125 10ZM4.125 16h-.75a.375.375 0 0 0 0 .75h.75c.07 0 .125.056.125.125V17a.125.125 0 0 1-.125.125h-.5a.375.375 0 0 0 0 .75h.5c.07 0 .125.056.125.125v.125a.125.125 0 0 1-.125.125h-.75a.376.376 0 0 0 0 .75h.75A.876.876 0 0 0 5 18.125V18a.87.87 0 0 0-.159-.5A.868.868 0 0 0 5 17v-.125A.876.876 0 0 0 4.125 16ZM3.375 5.75h.375v1.875a.375.375 0 0 0 .75 0v-2.25A.376.376 0 0 0 4.125 5h-.75a.375.375 0 0 0 0 .75Z"/></svg>
