<?xml version="1.0" encoding="UTF-8"?>
<svg width="18px" height="12px" viewBox="0 0 18 12" version="1.1" xmlns="http://www.w3.org/2000/svg" xmlns:xlink="http://www.w3.org/1999/xlink">
    <!-- Generator: Sketch 54.1 (76490) - https://sketchapp.com -->
    <title>Group</title>
    <desc>Created with Sketch.</desc>
    <defs>
        <path d="M17.0952381,6.28417641 L17.0821177,6.27903237 C16.5684337,7.58923853 15.102133,8.26923077 12.5714286,8.26923077 C11.0038917,8.26923077 9.97693589,7.69773383 8.56475051,6.33279181 C8.58097495,6.34847348 7.89818727,5.67918373 7.70490704,5.49848344 C6.69719346,4.55635839 5.90478225,4.11538462 4.88095238,4.11538462 C3.50339833,4.11538462 2.1464953,4.67376071 0.80952381,5.77425947 L0.80952381,1 C0.80952381,0.44771525 1.25723906,1.01453063e-16 1.80952381,0 L16.0952381,0 C16.6475228,-1.01453063e-16 17.0952381,0.44771525 17.0952381,1 L17.0952381,6.28417641 Z M17.0952381,7.97651808 L17.0952381,11 C17.0952381,11.5522847 16.6475228,12 16.0952381,12 L1.80952381,12 C1.25723906,12 0.80952381,11.5522847 0.80952381,11 L0.80952381,7.11540602 C2.19391997,5.77349978 3.55144169,5.11538462 4.88095238,5.11538462 C5.59187261,5.11538462 6.18233522,5.44397477 7.02197214,6.22896267 C7.20505037,6.40012499 7.87828427,7.06004982 7.8697733,7.05182357 C9.45057261,8.5797387 10.6895607,9.26923077 12.5714286,9.26923077 C14.6106896,9.26923077 16.1316114,8.84410886 17.0952381,7.97651808 Z M13.0238095,6.46153846 C14.273025,6.46153846 15.2857143,5.42834942 15.2857143,4.15384615 C15.2857143,2.87934289 14.273025,1.84615385 13.0238095,1.84615385 C11.774594,1.84615385 10.7619048,2.87934289 10.7619048,4.15384615 C10.7619048,5.42834942 11.774594,6.46153846 13.0238095,6.46153846 Z" id="path-1"></path>
    </defs>
    <g id="Page-1" stroke="none" stroke-width="1" fill="none" fill-rule="evenodd">
        <g id="发文页-封面" transform="translate(-428.000000, -349.000000)">
            <g id="Group" transform="translate(428.000000, 349.000000)">
                <g id="Path-31">
                    <mask id="mask-2" fill="white">
                        <use xlink:href="#path-1"></use>
                    </mask>
                    <use id="Combined-Shape" fill="currentColor" fill-rule="nonzero" xlink:href="#path-1"></use>
                </g>
            </g>
        </g>
    </g>
</svg>
