<?xml version="1.0" encoding="UTF-8"?>
<svg width="11px" height="10px" viewBox="0 0 11 10" version="1.1" xmlns="http://www.w3.org/2000/svg" xmlns:xlink="http://www.w3.org/1999/xlink">
    <!-- Generator: Sketch 54.1 (76490) - https://sketchapp.com -->
    <title>“</title>
    <desc>Created with Sketch.</desc>
    <g id="Page-1" stroke="none" stroke-width="1" fill="currentColor" fill-rule="evenodd">
        <g id="发文页-封面" transform="translate(-609.000000, -350.000000)" fill="currentColor">
            <path d="M619.535473,350 L619.535473,351.428571 C619.101912,351.673103 618.776747,352.113896 618.559966,352.750965 C618.343186,353.388034 618.234797,354.227794 618.234797,355.27027 L618.234797,355.714286 L620,355.714286 L620,360 L615.875,360 L615.875,356.795367 C615.875,354.851985 616.178488,353.314034 616.785473,352.181467 C617.392458,351.0489 618.309115,350.321752 619.535473,350 Z M612.660473,350 L612.660473,351.428571 C612.226912,351.673103 611.901747,352.113896 611.684966,352.750965 C611.468186,353.388034 611.359797,354.227794 611.359797,355.27027 L611.359797,355.714286 L613.125,355.714286 L613.125,360 L609,360 L609,356.795367 C609,354.851985 609.303488,353.314034 609.910473,352.181467 C610.517458,351.0489 611.434115,350.321752 612.660473,350 Z" id="“"></path>
        </g>
    </g>
</svg>
