<svg width="201" height="223" viewBox="0 0 201 223" fill="none" xmlns="http://www.w3.org/2000/svg">
<g filter="url(#filter0_f)">
<path d="M9.47521 44.5186C11.9818 41.668 15.4959 40.6113 19.3541 41.5451C21.9344 42.1595 24.3181 43.5111 26.5052 45.2067C25.2765 37.2692 25.8662 27.931 34.5901 23.7534C41.9378 20.2393 49.8999 26.4566 55.7485 33.0179C55.896 25.7685 58.0585 19.33 63.2437 17.0692C72.1887 13.1373 81.7727 17.6098 88.85 29.0123C88.9729 29.2089 89.0958 29.43 89.2187 29.6266C90.5457 26.4074 92.8556 23.5568 96.6892 22.0578C106.814 18.0522 113.793 27.2921 117.16 31.7154C117.626 32.3544 118.069 32.9196 118.462 33.4111C121.288 36.8515 132.174 55.5279 137.556 65.8736C137.728 65.6525 137.949 65.4067 138.121 65.1856C143.773 58.1082 144.216 55.8228 147.066 40.9062L148 35.9668C152.153 14.5872 174.516 6.79715 175.45 6.47768C176.457 6.13364 185.402 3.23388 191.079 7.28863C192.996 8.66479 195.281 11.368 195.281 16.4794C195.281 24.1711 193.119 29.9707 191.398 34.6152C190.317 37.515 189.383 40.0215 189.113 42.4544C187.098 60.2707 188.253 69.8055 189.015 76.1211C189.285 78.3328 189.531 80.2496 189.58 82.1172C189.604 82.879 189.654 83.9111 189.703 85.1644C190.194 95.8788 191.349 120.994 186.828 132.863C184.198 139.744 180.709 146.281 177.661 152.031C175.13 156.798 172.919 160.902 172.058 163.679C170.068 170.093 166.48 198.378 171.125 212.336C171.764 214.278 170.731 216.366 168.79 217.005C168.397 217.128 168.004 217.202 167.635 217.202C166.087 217.202 164.662 216.219 164.146 214.671C158.838 198.747 162.72 168.938 165.03 161.492C166.087 158.052 168.446 153.653 171.149 148.566C174.123 142.988 177.465 136.697 179.947 130.209C183.928 119.765 182.773 94.8713 182.355 85.4839C182.281 84.1815 182.257 83.1002 182.208 82.3384C182.158 80.8148 181.937 79.0454 181.692 77.0058C180.881 70.3462 179.652 60.2953 181.765 41.6189C182.134 38.2768 183.264 35.2541 184.468 32.0349C186.164 27.5132 187.909 22.8196 187.909 16.4794C187.909 14.0957 187.073 13.5059 186.803 13.3093C184.739 11.8349 179.873 12.7687 177.833 13.4813C177.637 13.5551 158.592 20.1901 155.274 37.3921L154.34 42.3069C151.416 57.6659 150.728 61.3274 143.921 69.8301C142.619 71.452 141.095 73.1722 139.448 74.9907C139.424 75.0153 139.375 75.0644 139.35 75.089C138.195 76.3423 136.991 77.6447 135.762 78.9717C129.324 85.8525 122.025 93.6671 120.035 99.5158C116.766 109.173 114.997 116.964 114.972 130.529C114.972 132.568 113.326 134.215 111.286 134.215C109.247 134.215 107.6 132.544 107.6 130.529C107.625 116.03 109.64 107.306 113.056 97.1567C115.538 89.7844 123.426 81.3554 130.381 73.934C131.044 73.2214 131.708 72.5087 132.371 71.8206C127.997 62.8756 115.366 41.1765 112.835 38.1293C112.392 37.5887 111.876 36.9252 111.335 36.188C107.526 31.1502 103.988 27.1446 99.4415 28.9386C94.3547 30.9536 95.0673 38.9894 95.3131 40.8816C102.218 54.5695 110.5 72.8527 110.967 73.8849C111.802 75.7525 110.991 77.915 109.124 78.7751C107.256 79.6107 105.069 78.7997 104.234 76.9321C104.086 76.588 88.8009 42.8967 82.6082 32.9442C77.5459 24.8101 71.5743 21.5171 66.2172 23.8763C62.8259 25.3753 61.4989 38.0802 66.0697 48.9911C70.96 60.6148 79.1924 76.072 84.4758 84.6975C85.5325 86.4423 84.9919 88.7031 83.2471 89.7598C82.6573 90.1284 81.9938 90.3005 81.3303 90.3005C80.077 90.3005 78.8729 89.6615 78.1848 88.5311C72.631 79.4632 64.3495 63.9323 59.2872 51.8418C58.8449 50.8096 58.4763 49.7038 58.1077 48.5734C57.9602 48.4259 57.8373 48.2539 57.739 48.0819C52.3327 39.2843 42.3556 28.275 37.8093 30.4622C31.0023 33.706 33.5826 45.1576 36.0891 53.4637C38.2025 60.4182 47.8848 81.5029 52.7259 91.652C53.586 93.4951 52.8242 95.6822 50.9811 96.5669C50.4651 96.8126 49.9244 96.9355 49.4084 96.9355C48.0322 96.9355 46.7052 96.1491 46.0909 94.8221C45.6731 93.962 38.8169 79.4632 33.8037 67.7413C33.6563 67.5447 33.558 67.3235 33.4351 67.1024C31.6166 62.8756 24.8095 50.4656 17.7076 48.77C16.3314 48.4259 15.6434 48.7945 15.0536 49.4581C11.5886 53.3899 11.5395 68.0853 16.7246 81.8223C18.8626 87.499 21.2217 92.2664 23.3105 96.4932C25.6205 101.162 27.611 105.192 28.5694 109.001C28.9872 110.697 29.4049 112.417 29.7981 114.162C30.8057 118.561 31.8624 123.033 33.4105 127.53C36.1629 123.181 39.7998 119.372 44.2478 116.325C53.0208 110.304 64.0055 108.068 74.3512 110.156C76.3418 110.574 77.6442 112.516 77.2264 114.506C76.8332 116.497 74.8673 117.774 72.8768 117.381C64.4724 115.686 55.5519 117.504 48.4008 122.394C42.9945 126.105 39.038 131.192 36.8755 137.041C36.8264 137.581 36.6543 138.122 36.3594 138.589C35.9908 139.793 35.6714 141.022 35.4502 142.3C33.3122 154.857 39.7261 165.571 46.5332 176.9C53.242 188.081 60.1719 199.656 59.2381 213.761C59.1152 215.703 57.4933 217.202 55.5765 217.202C55.5028 217.202 55.4045 217.202 55.3308 217.202C53.2911 217.054 51.7675 215.31 51.8904 213.27C52.6768 201.474 46.6069 191.374 40.2176 180.685C32.9682 168.692 25.5468 156.282 28.1516 141.046C28.3974 139.596 28.766 138.171 29.1592 136.77C25.7925 129.595 24.146 122.591 22.5733 115.784C22.1801 114.088 21.7869 112.393 21.3692 110.722C20.6074 107.674 18.7643 103.988 16.6509 99.6878C14.4884 95.3136 12.0309 90.3496 9.77011 84.3289C4.63409 70.7148 2.79102 52.1121 9.47521 44.5186Z" fill="#F1F1F1"/>
<path d="M9.47521 44.5186C11.9818 41.668 15.4959 40.6113 19.3541 41.5451C21.9344 42.1595 24.3181 43.5111 26.5052 45.2067C25.2765 37.2692 25.8662 27.931 34.5901 23.7534C41.9378 20.2393 49.8999 26.4566 55.7485 33.0179C55.896 25.7685 58.0585 19.33 63.2437 17.0692C72.1887 13.1373 81.7727 17.6098 88.85 29.0123C88.9729 29.2089 89.0958 29.43 89.2187 29.6266C90.5457 26.4074 92.8556 23.5568 96.6892 22.0578C106.814 18.0522 113.793 27.2921 117.16 31.7154C117.626 32.3544 118.069 32.9196 118.462 33.4111C121.288 36.8515 132.174 55.5279 137.556 65.8736C137.728 65.6525 137.949 65.4067 138.121 65.1856C143.773 58.1082 144.216 55.8228 147.066 40.9062L148 35.9668C152.153 14.5872 174.516 6.79715 175.45 6.47768C176.457 6.13364 185.402 3.23388 191.079 7.28863C192.996 8.66479 195.281 11.368 195.281 16.4794C195.281 24.1711 193.119 29.9707 191.398 34.6152C190.317 37.515 189.383 40.0215 189.113 42.4544C187.098 60.2707 188.253 69.8055 189.015 76.1211C189.285 78.3328 189.531 80.2496 189.58 82.1172C189.604 82.879 189.654 83.9111 189.703 85.1644C190.194 95.8788 191.349 120.994 186.828 132.863C184.198 139.744 180.709 146.281 177.661 152.031C175.13 156.798 172.919 160.902 172.058 163.679C170.068 170.093 166.48 198.378 171.125 212.336C171.764 214.278 170.731 216.366 168.79 217.005C168.397 217.128 168.004 217.202 167.635 217.202C166.087 217.202 164.662 216.219 164.146 214.671C158.838 198.747 162.72 168.938 165.03 161.492C166.087 158.052 168.446 153.653 171.149 148.566C174.123 142.988 177.465 136.697 179.947 130.209C183.928 119.765 182.773 94.8713 182.355 85.4839C182.281 84.1815 182.257 83.1002 182.208 82.3384C182.158 80.8148 181.937 79.0454 181.692 77.0058C180.881 70.3462 179.652 60.2953 181.765 41.6189C182.134 38.2768 183.264 35.2541 184.468 32.0349C186.164 27.5132 187.909 22.8196 187.909 16.4794C187.909 14.0957 187.073 13.5059 186.803 13.3093C184.739 11.8349 179.873 12.7687 177.833 13.4813C177.637 13.5551 158.592 20.1901 155.274 37.3921L154.34 42.3069C151.416 57.6659 150.728 61.3274 143.921 69.8301C142.619 71.452 141.095 73.1722 139.448 74.9907C139.424 75.0153 139.375 75.0644 139.35 75.089C138.195 76.3423 136.991 77.6447 135.762 78.9717C129.324 85.8525 122.025 93.6671 120.035 99.5158C116.766 109.173 114.997 116.964 114.972 130.529C114.972 132.568 113.326 134.215 111.286 134.215C109.247 134.215 107.6 132.544 107.6 130.529C107.625 116.03 109.64 107.306 113.056 97.1567C115.538 89.7844 123.426 81.3554 130.381 73.934C131.044 73.2214 131.708 72.5087 132.371 71.8206C127.997 62.8756 115.366 41.1765 112.835 38.1293C112.392 37.5887 111.876 36.9252 111.335 36.188C107.526 31.1502 103.988 27.1446 99.4415 28.9386C94.3547 30.9536 95.0673 38.9894 95.3131 40.8816C102.218 54.5695 110.5 72.8527 110.967 73.8849C111.802 75.7525 110.991 77.915 109.124 78.7751C107.256 79.6107 105.069 78.7997 104.234 76.9321C104.086 76.588 88.8009 42.8967 82.6082 32.9442C77.5459 24.8101 71.5743 21.5171 66.2172 23.8763C62.8259 25.3753 61.4989 38.0802 66.0697 48.9911C70.96 60.6148 79.1924 76.072 84.4758 84.6975C85.5325 86.4423 84.9919 88.7031 83.2471 89.7598C82.6573 90.1284 81.9938 90.3005 81.3303 90.3005C80.077 90.3005 78.8729 89.6615 78.1848 88.5311C72.631 79.4632 64.3495 63.9323 59.2872 51.8418C58.8449 50.8096 58.4763 49.7038 58.1077 48.5734C57.9602 48.4259 57.8373 48.2539 57.739 48.0819C52.3327 39.2843 42.3556 28.275 37.8093 30.4622C31.0023 33.706 33.5826 45.1576 36.0891 53.4637C38.2025 60.4182 47.8848 81.5029 52.7259 91.652C53.586 93.4951 52.8242 95.6822 50.9811 96.5669C50.4651 96.8126 49.9244 96.9355 49.4084 96.9355C48.0322 96.9355 46.7052 96.1491 46.0909 94.8221C45.6731 93.962 38.8169 79.4632 33.8037 67.7413C33.6563 67.5447 33.558 67.3235 33.4351 67.1024C31.6166 62.8756 24.8095 50.4656 17.7076 48.77C16.3314 48.4259 15.6434 48.7945 15.0536 49.4581C11.5886 53.3899 11.5395 68.0853 16.7246 81.8223C18.8626 87.499 21.2217 92.2664 23.3105 96.4932C25.6205 101.162 27.611 105.192 28.5694 109.001C28.9872 110.697 29.4049 112.417 29.7981 114.162C30.8057 118.561 31.8624 123.033 33.4105 127.53C36.1629 123.181 39.7998 119.372 44.2478 116.325C53.0208 110.304 64.0055 108.068 74.3512 110.156C76.3418 110.574 77.6442 112.516 77.2264 114.506C76.8332 116.497 74.8673 117.774 72.8768 117.381C64.4724 115.686 55.5519 117.504 48.4008 122.394C42.9945 126.105 39.038 131.192 36.8755 137.041C36.8264 137.581 36.6543 138.122 36.3594 138.589C35.9908 139.793 35.6714 141.022 35.4502 142.3C33.3122 154.857 39.7261 165.571 46.5332 176.9C53.242 188.081 60.1719 199.656 59.2381 213.761C59.1152 215.703 57.4933 217.202 55.5765 217.202C55.5028 217.202 55.4045 217.202 55.3308 217.202C53.2911 217.054 51.7675 215.31 51.8904 213.27C52.6768 201.474 46.6069 191.374 40.2176 180.685C32.9682 168.692 25.5468 156.282 28.1516 141.046C28.3974 139.596 28.766 138.171 29.1592 136.77C25.7925 129.595 24.146 122.591 22.5733 115.784C22.1801 114.088 21.7869 112.393 21.3692 110.722C20.6074 107.674 18.7643 103.988 16.6509 99.6878C14.4884 95.3136 12.0309 90.3496 9.77011 84.3289C4.63409 70.7148 2.79102 52.1121 9.47521 44.5186Z" stroke="#F1F1F1" stroke-width="2.45743" stroke-miterlimit="10"/>
</g>
<defs>
<filter id="filter0_f" x="0.00358582" y="0.00178528" width="200.428" height="222.351" filterUnits="userSpaceOnUse" color-interpolation-filters="sRGB">
<feFlood flood-opacity="0" result="BackgroundImageFix"/>
<feBlend mode="normal" in="SourceGraphic" in2="BackgroundImageFix" result="shape"/>
<feGaussianBlur stdDeviation="1.96098" result="effect1_foregroundBlur"/>
</filter>
</defs>
</svg>