<svg width="30" height="30" viewBox="0 0 30 30" fill="none" xmlns="http://www.w3.org/2000/svg">
<path d="M15 30C23.2843 30 30 23.2843 30 15C30 6.71573 23.2843 0 15 0C6.71573 0 0 6.71573 0 15C0 23.2843 6.71573 30 15 30Z" fill="#F2F2F2"/>
<path fill-rule="evenodd" clip-rule="evenodd" d="M13.0289 14.7523C12.8526 14.6777 12.6578 14.6363 12.4529 14.6363L13.0289 14.7523ZM13.8868 16.0181C13.8868 15.7039 13.778 15.4142 13.5947 15.1821L13.8868 16.0181Z" fill="white"/>
<path d="M13.0289 14.7523L12.9796 14.9974L13.1264 14.5221L13.0289 14.7523ZM12.4529 14.6363V14.3863L12.4035 14.8814L12.4529 14.6363ZM13.8868 16.0181L13.6508 16.1006L14.1368 16.0181H13.8868ZM13.5947 15.1821L13.7909 15.0272L13.3587 15.2646L13.5947 15.1821ZM13.1264 14.5221C12.9196 14.4346 12.6917 14.3863 12.4529 14.3863V14.8863C12.6239 14.8863 12.7856 14.9208 12.9315 14.9826L13.1264 14.5221ZM12.4035 14.8814L12.9796 14.9974L13.0783 14.5073L12.5022 14.3912L12.4035 14.8814ZM14.1368 16.0181C14.1368 15.6449 14.0073 15.3012 13.7909 15.0272L13.3985 15.3371C13.5487 15.5273 13.6368 15.7629 13.6368 16.0181H14.1368ZM13.3587 15.2646L13.6508 16.1006L14.1229 15.9357L13.8307 15.0997L13.3587 15.2646Z" fill="#656565"/>
<path fill-rule="evenodd" clip-rule="evenodd" d="M19.4613 14.7415C19.292 14.6738 19.1064 14.6364 18.9116 14.6364L19.4613 14.7415ZM20.3456 16.0182C20.3456 15.6986 20.233 15.4043 20.0439 15.1702L20.3456 16.0182Z" fill="white"/>
<path d="M19.4613 14.7415L19.4143 14.9871L19.5542 14.5095L19.4613 14.7415ZM18.9116 14.6364V14.3864L18.8646 14.8819L18.9116 14.6364ZM20.3456 16.0182L20.11 16.102L20.5956 16.0182H20.3456ZM20.0439 15.1702L20.2384 15.0131L19.8084 15.254L20.0439 15.1702ZM19.5542 14.5095C19.3557 14.43 19.1386 14.3864 18.9116 14.3864V14.8864C19.0742 14.8864 19.2283 14.9176 19.3684 14.9736L19.5542 14.5095ZM18.8646 14.8819L19.4143 14.9871L19.5083 14.496L18.9586 14.3908L18.8646 14.8819ZM20.5956 16.0182C20.5956 15.6385 20.4615 15.2894 20.2384 15.0131L19.8494 15.3273C20.0044 15.5192 20.0956 15.7586 20.0956 16.0182H20.5956ZM19.8084 15.254L20.11 16.102L20.5811 15.9344L20.2794 15.0864L19.8084 15.254Z" fill="#656565"/>
<rect x="10.1934" y="13.85" width="4.51887" height="4.33636" rx="2.16818" stroke="#656565" stroke-width="0.5"/>
<rect x="16.6462" y="13.85" width="4.51887" height="4.33636" rx="2.16818" stroke="#656565" stroke-width="0.5"/>
<path d="M14.9207 23.9637H12.0945C10.5106 23.9637 9.22656 22.7263 9.22656 21.2V13.7727C9.22656 10.4339 12.0353 7.72729 15.5001 7.72729C18.965 7.72729 21.7737 10.4339 21.7737 13.7727V21.2" stroke="#656565" stroke-width="0.5" stroke-linecap="round"/>
<path d="M7.79248 15.6699C7.79248 15.1789 7.79248 14.4424 7.79248 13.4603C7.79248 9.34011 11.2433 6 15.5 6C19.7568 6 23.2076 9.34011 23.2076 13.4603C23.2076 14.4213 23.2076 15.1421 23.2076 15.6225" stroke="#656565" stroke-width="0.5" stroke-linecap="round"/>
<path d="M8.15097 17.4C8.34896 17.4 8.50946 17.2454 8.50946 17.0546C8.50946 16.8638 8.34896 16.7091 8.15097 16.7091C7.95298 16.7091 7.79248 16.8638 7.79248 17.0546C7.79248 17.2454 7.95298 17.4 8.15097 17.4Z" stroke="#656565" stroke-width="0.5"/>
<path d="M22.849 17.4C23.047 17.4 23.2075 17.2454 23.2075 17.0546C23.2075 16.8638 23.047 16.7091 22.849 16.7091C22.651 16.7091 22.4905 16.8638 22.4905 17.0546C22.4905 17.2454 22.651 17.4 22.849 17.4Z" stroke="#656565" stroke-width="0.5"/>
<path d="M8.15097 19.4728C8.34896 19.4728 8.50946 19.3181 8.50946 19.1273C8.50946 18.9365 8.34896 18.7819 8.15097 18.7819C7.95298 18.7819 7.79248 18.9365 7.79248 19.1273C7.79248 19.3181 7.95298 19.4728 8.15097 19.4728Z" stroke="#656565" stroke-width="0.5"/>
<path d="M22.849 19.4728C23.047 19.4728 23.2075 19.3181 23.2075 19.1273C23.2075 18.9365 23.047 18.7819 22.849 18.7819C22.651 18.7819 22.4905 18.9365 22.4905 19.1273C22.4905 19.3181 22.651 19.4728 22.849 19.4728Z" stroke="#656565" stroke-width="0.5"/>
<path d="M21.7737 21.2C23.4566 21.2 24.8209 19.8853 24.8209 18.2636C24.8209 16.6419 23.4566 15.3273 21.7737 15.3273" stroke="#656565" stroke-width="0.5"/>
<path d="M9.18237 15.3343C7.49947 15.3343 6.1352 16.649 6.1352 18.2707C6.1352 19.8924 7.49947 21.207 9.18237 21.207" stroke="#656565" stroke-width="0.5"/>
<path d="M16.0379 25C16.6318 25 17.1133 24.536 17.1133 23.9636C17.1133 23.3912 16.6318 22.9272 16.0379 22.9272C15.4439 22.9272 14.9624 23.3912 14.9624 23.9636C14.9624 24.536 15.4439 25 16.0379 25Z" stroke="#656565" stroke-width="0.5"/>
<path d="M14.71 15.4773H16.6545" stroke="#656565" stroke-width="0.5"/>
</svg>
