<svg width="24" height="24" viewBox="0 0 24 24" fill="none" xmlns="http://www.w3.org/2000/svg">
<path d="M9.00024 18.75H15.0002" stroke="#FF5A5A" stroke-width="1.5" stroke-linecap="round" stroke-linejoin="round"/>
<path d="M9.75024 21.75H14.2502" stroke="#FF5A5A" stroke-width="1.5" stroke-linecap="round" stroke-linejoin="round"/>
<path d="M7.4996 15.75C6.24046 14.8054 5.31042 13.4887 4.84121 11.9862C4.372 10.4837 4.38741 8.87165 4.88525 7.3784C5.38308 5.88515 6.33812 4.58639 7.61508 3.66606C8.89203 2.74573 10.4262 2.25049 12.0002 2.25049C13.5743 2.25049 15.1084 2.74572 16.3854 3.66605C17.6624 4.58637 18.6174 5.88514 19.1152 7.37838C19.6131 8.87163 19.6285 10.4837 19.1593 11.9861C18.6901 13.4886 17.76 14.8054 16.5009 15.75" stroke="#FF5A5A" stroke-width="1.5" stroke-linecap="round" stroke-linejoin="round"/>
<path d="M12 7C12.5523 7 13 6.55228 13 6C13 5.44772 12.5523 5 12 5C11.4477 5 11 5.44772 11 6C11 6.55228 11.4477 7 12 7Z" fill="#FF5A5A"/>
<path d="M11.25 9.25H12.0001L12 14.5H12.75" stroke="#FF5A5A" stroke-width="1.5" stroke-linecap="round" stroke-linejoin="round"/>
</svg>
