<svg width="24" height="24" viewBox="0 0 24 24" fill="none" xmlns="http://www.w3.org/2000/svg">
<path d="M9 18.75H15" stroke="#67788A" stroke-width="1.5" stroke-linecap="round" stroke-linejoin="round"/>
<path d="M9.75 21.75H14.25" stroke="#67788A" stroke-width="1.5" stroke-linecap="round" stroke-linejoin="round"/>
<path d="M7.49935 15.75C6.24021 14.8054 5.31018 13.4887 4.84097 11.9862C4.37176 10.4837 4.38716 8.87165 4.885 7.3784C5.38284 5.88515 6.33787 4.58639 7.61483 3.66606C8.89179 2.74573 10.4259 2.25049 12 2.25049C13.574 2.25049 15.1082 2.74572 16.3852 3.66605C17.6621 4.58637 18.6172 5.88514 19.115 7.37838C19.6128 8.87163 19.6282 10.4837 19.159 11.9861C18.6898 13.4886 17.7598 14.8054 16.5007 15.75" stroke="#67788A" stroke-width="1.5" stroke-linecap="round" stroke-linejoin="round"/>
<path d="M12 7C12.5523 7 13 6.55228 13 6C13 5.44772 12.5523 5 12 5C11.4477 5 11 5.44772 11 6C11 6.55228 11.4477 7 12 7Z" fill="#67788A"/>
<path d="M11.25 9.25H12.0001L12 14.5H12.75" stroke="#67788A" stroke-width="1.5" stroke-linecap="round" stroke-linejoin="round"/>
</svg>
