<svg width="17" height="16" viewBox="0 0 17 16" fill="none" xmlns="http://www.w3.org/2000/svg">
<mask id="path-1-inside-1" fill="white">
<path fill-rule="evenodd" clip-rule="evenodd" d="M9.64279 0.469746C9.24771 0.048334 8.57879 0.0483331 8.18371 0.469745L1.16483 7.95656C0.446326 8.72296 0.989743 9.97729 2.04027 9.97729H3.91325C4.18939 9.97729 4.41325 10.2011 4.41325 10.4773V14.1201C4.41325 14.6724 4.86096 15.1201 5.41325 15.1201H12.4132C12.9655 15.1201 13.4132 14.6724 13.4132 14.1201V10.4773C13.4132 10.2011 13.6371 9.97729 13.9132 9.97729H15.7862C16.8368 9.97729 17.3802 8.72296 16.6617 7.95656L9.64279 0.469746Z"/>
</mask>
<path d="M8.18371 0.469745L8.9862 1.22208V1.22208L8.18371 0.469745ZM9.64279 0.469746L8.8403 1.22208V1.22208L9.64279 0.469746ZM1.16483 7.95656L0.362335 7.20422L0.362335 7.20422L1.16483 7.95656ZM16.6617 7.95656L15.8592 8.70889L15.8592 8.7089L16.6617 7.95656ZM8.9862 1.22208C8.9467 1.26422 8.8798 1.26422 8.8403 1.22208L10.4453 -0.282589C9.61563 -1.16755 8.21088 -1.16756 7.38122 -0.28259L8.9862 1.22208ZM1.96732 8.70889L8.9862 1.22208L7.38122 -0.28259L0.362335 7.20422L1.96732 8.70889ZM2.04027 8.87729C2.00394 8.87729 1.99069 8.86858 1.98472 8.86445C1.97407 8.85709 1.95923 8.84177 1.94851 8.81704C1.9378 8.79231 1.93677 8.771 1.93869 8.7582C1.93976 8.75102 1.94247 8.73539 1.96732 8.70889L0.362335 7.20422C-1.01479 8.67315 0.0267607 11.0773 2.04027 11.0773V8.87729ZM3.91325 8.87729H2.04027V11.0773H3.91325V8.87729ZM5.51325 10.4773C5.51325 9.59363 4.79691 8.87729 3.91325 8.87729V11.0773C3.58188 11.0773 3.31325 10.8087 3.31325 10.4773H5.51325ZM5.51325 14.1201V10.4773H3.31325V14.1201H5.51325ZM5.41325 14.0201C5.46848 14.0201 5.51325 14.0649 5.51325 14.1201H3.31325C3.31325 15.2799 4.25345 16.2201 5.41325 16.2201V14.0201ZM12.4132 14.0201H5.41325V16.2201H12.4132V14.0201ZM12.3132 14.1201C12.3132 14.0649 12.358 14.0201 12.4132 14.0201V16.2201C13.573 16.2201 14.5132 15.2799 14.5132 14.1201H12.3132ZM12.3132 10.4773V14.1201H14.5132V10.4773H12.3132ZM13.9132 8.87729C13.0296 8.87729 12.3132 9.59363 12.3132 10.4773H14.5132C14.5132 10.8087 14.2446 11.0773 13.9132 11.0773V8.87729ZM15.7862 8.87729H13.9132V11.0773H15.7862V8.87729ZM15.8592 8.7089C15.884 8.7354 15.8867 8.75103 15.8878 8.7582C15.8897 8.771 15.8887 8.79231 15.878 8.81704C15.8673 8.84177 15.8524 8.85709 15.8418 8.86445C15.8358 8.86858 15.8226 8.87729 15.7862 8.87729V11.0773C17.7997 11.0773 18.8413 8.67316 17.4642 7.20422L15.8592 8.7089ZM8.8403 1.22208L15.8592 8.70889L17.4642 7.20422L10.4453 -0.282589L8.8403 1.22208Z" fill="#FF5A5A" mask="url(#path-1-inside-1)"/>
</svg>
