<svg width="17" height="16" viewBox="0 0 17 16" fill="none" xmlns="http://www.w3.org/2000/svg">
<mask id="path-1-inside-1" fill="white">
<path fill-rule="evenodd" clip-rule="evenodd" d="M9.25412 0.85059C8.85904 0.429178 8.19011 0.429177 7.79504 0.850589L0.776154 8.3374C0.0576544 9.1038 0.601071 10.3581 1.6516 10.3581H3.52458C3.80072 10.3581 4.02458 10.582 4.02458 10.8581V14.501C4.02458 15.0533 4.47229 15.501 5.02458 15.501H12.0246C12.5769 15.501 13.0246 15.0533 13.0246 14.501V10.8581C13.0246 10.582 13.2484 10.3581 13.5246 10.3581H15.3976C16.4481 10.3581 16.9915 9.1038 16.273 8.3374L9.25412 0.85059Z"/>
</mask>
<path d="M7.79504 0.850589L8.59753 1.60292V1.60292L7.79504 0.850589ZM9.25412 0.85059L8.45162 1.60292V1.60293L9.25412 0.85059ZM0.776154 8.3374L-0.0263372 7.58507L-0.0263373 7.58507L0.776154 8.3374ZM16.273 8.3374L15.4705 9.08974L15.4705 9.08974L16.273 8.3374ZM8.59753 1.60292C8.55802 1.64507 8.49113 1.64507 8.45162 1.60292L10.0566 0.0982555C9.22695 -0.78671 7.82221 -0.786712 6.99255 0.098254L8.59753 1.60292ZM1.57864 9.08974L8.59753 1.60292L6.99255 0.0982538L-0.0263372 7.58507L1.57864 9.08974ZM1.6516 9.25813C1.61527 9.25813 1.60201 9.24942 1.59605 9.24529C1.5854 9.23794 1.57055 9.22262 1.55984 9.19788C1.54912 9.17315 1.5481 9.15185 1.55001 9.13904C1.55109 9.13187 1.5538 9.11624 1.57864 9.08974L-0.0263373 7.58507C-1.40346 9.054 -0.361911 11.4581 1.6516 11.4581V9.25813ZM3.52458 9.25813H1.6516V11.4581H3.52458V9.25813ZM5.12458 10.8581C5.12458 9.97448 4.40823 9.25813 3.52458 9.25813V11.4581C3.1932 11.4581 2.92458 11.1895 2.92458 10.8581H5.12458ZM5.12458 14.501V10.8581H2.92458V14.501H5.12458ZM5.02458 14.401C5.0798 14.401 5.12458 14.4458 5.12458 14.501H2.92458C2.92458 15.6608 3.86478 16.601 5.02458 16.601V14.401ZM12.0246 14.401H5.02458V16.601H12.0246V14.401ZM11.9246 14.501C11.9246 14.4458 11.9693 14.401 12.0246 14.401V16.601C13.1844 16.601 14.1246 15.6608 14.1246 14.501H11.9246ZM11.9246 10.8581V14.501H14.1246V10.8581H11.9246ZM13.5246 9.25813C12.6409 9.25813 11.9246 9.97447 11.9246 10.8581H14.1246C14.1246 11.1895 13.8559 11.4581 13.5246 11.4581V9.25813ZM15.3976 9.25813H13.5246V11.4581H15.3976V9.25813ZM15.4705 9.08974C15.4954 9.11624 15.4981 9.13187 15.4991 9.13905C15.5011 9.15185 15.5 9.17315 15.4893 9.19788C15.4786 9.22262 15.4638 9.23793 15.4531 9.24529C15.4471 9.24942 15.4339 9.25813 15.3976 9.25813V11.4581C17.4111 11.4581 18.4526 9.054 17.0755 7.58507L15.4705 9.08974ZM8.45162 1.60293L15.4705 9.08974L17.0755 7.58507L10.0566 0.0982549L8.45162 1.60293Z" fill="#656565" mask="url(#path-1-inside-1)"/>
</svg>
