<svg width="13" height="12" viewBox="0 0 13 12" fill="none" xmlns="http://www.w3.org/2000/svg">
<path fill-rule="evenodd" clip-rule="evenodd" d="M1.35693 5.03558C1.35693 7.89465 4.30429 10.4162 5.73652 11.4727C6.19487 11.8108 6.80471 11.8108 7.26306 11.4727C8.69529 10.4162 11.6426 7.89465 11.6426 5.03558C11.6426 2.25162 9.34306 0 6.49979 0C3.65653 0 1.35693 2.25162 1.35693 5.03558ZM4.7855 5.14286C4.7855 4.19657 5.5535 3.42857 6.49979 3.42857C7.44608 3.42857 8.21408 4.19657 8.21408 5.14286C8.21408 6.08914 7.44608 6.85714 6.49979 6.85714C5.5535 6.85714 4.7855 6.08914 4.7855 5.14286Z" fill="#9B9B9B"/>
</svg>