<svg width="18" height="20" viewBox="0 0 18 20" fill="none" xmlns="http://www.w3.org/2000/svg">
<path fill-rule="evenodd" clip-rule="evenodd" d="M0.428711 8.39263C0.428711 13.5235 6.12396 18.0021 8.22966 19.4827C8.69559 19.8103 9.30469 19.8103 9.77062 19.4827C11.8763 18.0021 17.5716 13.5235 17.5716 8.39263C17.5716 3.75271 13.7389 0 9.00014 0C4.26136 0 0.428711 3.75271 0.428711 8.39263ZM6.143 8.57143C6.143 6.99429 7.423 5.71429 9.00014 5.71429C10.5773 5.71429 11.8573 6.99429 11.8573 8.57143C11.8573 10.1486 10.5773 11.4286 9.00014 11.4286C7.423 11.4286 6.143 10.1486 6.143 8.57143Z" fill="#242424"/>
</svg>