<svg width="12" height="12" viewBox="0 0 12 12" fill="none" xmlns="http://www.w3.org/2000/svg">
<path d="M5.83002 0.375234L5.83003 0.375234C6.04216 0.368833 6.2001 0.493608 6.26291 0.658556C6.32498 0.821535 6.29366 1.0207 6.1477 1.16661C6.14767 1.16664 6.14764 1.16667 6.14762 1.1667L6.05926 1.07828C5.9906 1.14703 5.89759 1.18547 5.80039 1.1895L5.83002 0.375234ZM5.83002 0.375234C4.44784 0.417038 3.07782 0.965482 2.02295 2.02052M5.83002 0.375234L5.8338 0.500177C4.48217 0.541056 3.14281 1.07727 2.11134 2.10891M2.11134 2.10891L2.02295 2.02052M2.11134 2.10891L2.02295 2.02053M2.11134 2.10891C0.410861 3.80939 0.0562937 6.34609 1.04764 8.39517C1.10103 8.50547 1.2036 8.56667 1.31222 8.57489C1.40674 8.58211 1.50579 8.54929 1.58117 8.47391C1.67367 8.38141 1.70473 8.2471 1.6725 8.12321L2.02295 2.02053M2.02295 2.02052C2.02295 2.02052 2.02295 2.02052 2.02295 2.02053M2.02295 2.02052L2.02295 2.02053M8.60878 2.10117L8.60877 2.10116C8.36297 1.93631 8.30192 1.57639 8.52285 1.35545C8.67092 1.20739 8.90533 1.17371 9.08651 1.2928C9.40249 1.50034 9.70189 1.74293 9.97939 2.02052C9.9794 2.02052 9.9794 2.02053 9.97941 2.02053L9.89101 2.10891C10.0575 2.27545 10.2113 2.45005 10.352 2.63136L8.60878 2.10117ZM8.60878 2.10117C8.70893 2.16832 8.80703 2.23985 8.90308 2.31568C9.04618 2.42877 9.18423 2.55137 9.31643 2.68357L9.31645 2.68358M8.60878 2.10117L9.31645 2.68358M9.31645 2.68358C9.53731 2.90437 9.73142 3.14158 9.89882 3.39129M9.31645 2.68358L9.89882 3.39129M10.833 5.85265L10.8334 5.85226C10.9793 5.70635 11.1785 5.67501 11.3415 5.73707C11.5064 5.79988 11.6312 5.95782 11.6248 6.16997V6.16999C11.5829 7.55208 11.0344 8.92209 9.97939 9.97713C8.24031 11.7164 5.64596 12.0787 3.55038 11.0648L3.55035 11.0648C3.25981 10.9241 3.22049 10.5477 3.43766 10.3306C3.58746 10.1806 3.81332 10.1522 3.99762 10.2391L3.99768 10.2392C5.7374 11.0611 7.87806 10.7525 9.31643 9.31408L9.40482 9.40247L9.31643 9.31408C10.1822 8.44834 10.6387 7.32842 10.6856 6.19444L10.6856 6.19437C10.6891 6.11102 10.7121 6.0294 10.7534 5.95698C10.7535 5.95694 10.7535 5.95691 10.7535 5.95687L10.862 6.01889L10.833 5.85265ZM10.833 5.85265C10.8207 5.86507 10.8087 5.87838 10.7973 5.89259L10.833 5.85265ZM9.89882 3.39129C10.0636 3.63714 10.4236 3.69815 10.6445 3.47715L9.89882 3.39129ZM10.7071 2.91336L10.6027 2.98206L10.6446 3.47712C10.7926 3.32907 10.8263 3.09461 10.7071 2.91344C10.7071 2.91341 10.7071 2.91338 10.7071 2.91336ZM5.74646 8.77608L5.74657 8.77618C5.82931 8.84943 5.93842 8.89405 6.05758 8.89405C6.31649 8.89405 6.52641 8.68414 6.52641 8.42523V6.48729H8.46434C8.72325 6.48729 8.93317 6.27738 8.93317 6.01847C8.93317 5.75956 8.72325 5.54964 8.46434 5.54964H6.52641V3.61171C6.52641 3.3528 6.31649 3.14288 6.05758 3.14288C5.9481 3.14288 5.84697 3.18058 5.76708 3.24373C5.65853 3.32943 5.58876 3.46256 5.58876 3.61171V5.54964H3.65082C3.39191 5.54964 3.182 5.75956 3.182 6.01847C3.182 6.27738 3.39191 6.48729 3.65082 6.48729H5.58876V8.42523C5.58876 8.48539 5.60019 8.54303 5.62076 8.59593L5.62086 8.5962C5.64817 8.66595 5.69165 8.72744 5.74646 8.77608Z" fill="white" stroke="white" stroke-width="0.25"/>
</svg>
