<svg width="48" height="48" viewBox="0 0 48 48" fill="none" xmlns="http://www.w3.org/2000/svg">
<rect width="48" height="48" rx="8" fill="#FDECEB"/>
<path d="M27.8462 14H20.1539L21.3077 17.5185L22.4616 21.0369H25.5385L26.6923 17.5185L27.8462 14Z" fill="white" stroke="#FF5A5A" stroke-width="1.14802" stroke-linecap="round" stroke-linejoin="round"/>
<path d="M14.574 25.6027C14.574 21.5573 17.8535 18.2778 21.8989 18.2778H26.101C30.1465 18.2778 33.4259 21.5573 33.4259 25.6027V30.4095C33.4259 32.0754 32.0754 33.4259 30.4095 33.4259H17.5904C15.9245 33.4259 14.574 32.0754 14.574 30.4095V25.6027Z" fill="white" stroke="#FF5A5A" stroke-width="1.14802"/>
<mask id="path-4-inside-1" fill="white">
<path fill-rule="evenodd" clip-rule="evenodd" d="M23.9999 20.8683C24.2974 20.8683 24.5385 21.1095 24.5385 21.4069V22.1476C24.5385 22.1807 24.5355 22.2131 24.5298 22.2445H24.9321C25.9893 22.2445 26.8463 23.1015 26.8463 24.1587C26.8463 24.4562 26.6052 24.6973 26.3077 24.6973C26.0103 24.6973 25.7692 24.4562 25.7692 24.1587C25.7692 23.6964 25.3944 23.3216 24.9321 23.3216H23.1285C22.6328 23.3216 22.2309 23.7235 22.2309 24.2192V24.786C22.2309 25.2818 22.6328 25.6836 23.1285 25.6836H24.8716C25.9622 25.6836 26.8463 26.5677 26.8463 27.6583V28.2251C26.8463 29.3157 25.9622 30.1999 24.8716 30.1999H24.5298C24.5355 30.2314 24.5385 30.2639 24.5385 30.2971V31.0378C24.5385 31.3352 24.2974 31.5763 23.9999 31.5763C23.7025 31.5763 23.4614 31.3352 23.4614 31.0378V30.2971C23.4614 30.2639 23.4644 30.2314 23.4701 30.1999H23.1285C22.0379 30.1999 21.1538 29.3157 21.1538 28.2251V27.9417C21.1538 27.6443 21.3949 27.4032 21.6924 27.4032C21.9898 27.4032 22.2309 27.6443 22.2309 27.9417V28.2251C22.2309 28.7209 22.6328 29.1227 23.1285 29.1227H24.8716C25.3673 29.1227 25.7692 28.7209 25.7692 28.2251V27.6583C25.7692 27.1626 25.3673 26.7607 24.8716 26.7607H23.1285C22.0379 26.7607 21.1538 25.8766 21.1538 24.786V24.2192C21.1538 23.1286 22.0379 22.2445 23.1285 22.2445H23.4701C23.4644 22.2131 23.4614 22.1807 23.4614 22.1476L23.4614 21.4069C23.4614 21.1095 23.7025 20.8683 23.9999 20.8683Z"/>
</mask>
<path fill-rule="evenodd" clip-rule="evenodd" d="M23.9999 20.8683C24.2974 20.8683 24.5385 21.1095 24.5385 21.4069V22.1476C24.5385 22.1807 24.5355 22.2131 24.5298 22.2445H24.9321C25.9893 22.2445 26.8463 23.1015 26.8463 24.1587C26.8463 24.4562 26.6052 24.6973 26.3077 24.6973C26.0103 24.6973 25.7692 24.4562 25.7692 24.1587C25.7692 23.6964 25.3944 23.3216 24.9321 23.3216H23.1285C22.6328 23.3216 22.2309 23.7235 22.2309 24.2192V24.786C22.2309 25.2818 22.6328 25.6836 23.1285 25.6836H24.8716C25.9622 25.6836 26.8463 26.5677 26.8463 27.6583V28.2251C26.8463 29.3157 25.9622 30.1999 24.8716 30.1999H24.5298C24.5355 30.2314 24.5385 30.2639 24.5385 30.2971V31.0378C24.5385 31.3352 24.2974 31.5763 23.9999 31.5763C23.7025 31.5763 23.4614 31.3352 23.4614 31.0378V30.2971C23.4614 30.2639 23.4644 30.2314 23.4701 30.1999H23.1285C22.0379 30.1999 21.1538 29.3157 21.1538 28.2251V27.9417C21.1538 27.6443 21.3949 27.4032 21.6924 27.4032C21.9898 27.4032 22.2309 27.6443 22.2309 27.9417V28.2251C22.2309 28.7209 22.6328 29.1227 23.1285 29.1227H24.8716C25.3673 29.1227 25.7692 28.7209 25.7692 28.2251V27.6583C25.7692 27.1626 25.3673 26.7607 24.8716 26.7607H23.1285C22.0379 26.7607 21.1538 25.8766 21.1538 24.786V24.2192C21.1538 23.1286 22.0379 22.2445 23.1285 22.2445H23.4701C23.4644 22.2131 23.4614 22.1807 23.4614 22.1476L23.4614 21.4069C23.4614 21.1095 23.7025 20.8683 23.9999 20.8683Z" fill="#FF5A5A"/>
<path d="M24.5385 21.4069L23.3905 21.4069V21.4069H24.5385ZM24.5298 22.2445L23.4003 22.0393C23.3394 22.3742 23.4304 22.7189 23.6485 22.9802C23.8666 23.2415 24.1894 23.3925 24.5298 23.3925V22.2445ZM24.5298 30.1999V29.0518C24.1893 29.0518 23.8663 29.203 23.6482 29.4645C23.4301 29.7259 23.3393 30.0707 23.4003 30.4057L24.5298 30.1999ZM24.5385 30.2971H23.3905L23.3905 30.2971L24.5385 30.2971ZM24.5385 31.0378H25.6865H24.5385ZM23.4701 30.1999L24.5995 30.4057C24.6606 30.0707 24.5698 29.7259 24.3517 29.4645C24.1336 29.203 23.8106 29.0518 23.4701 29.0518V30.1999ZM23.4701 22.2445V23.3925C23.8105 23.3925 24.1333 23.2415 24.3514 22.9802C24.5695 22.7189 24.6604 22.3742 24.5996 22.0393L23.4701 22.2445ZM23.4614 22.1476L22.3134 22.1476V22.1476H23.4614ZM23.4614 21.4069L24.6094 21.4069V21.4069H23.4614ZM25.6865 21.4069C25.6865 20.4754 24.9314 19.7203 23.9999 19.7203L23.9999 22.0164C23.6633 22.0164 23.3905 21.7435 23.3905 21.4069L25.6865 21.4069ZM25.6865 22.1476V21.4069H23.3905V22.1476H25.6865ZM25.6593 22.4497C25.6773 22.3509 25.6865 22.2498 25.6865 22.1476H23.3905C23.3905 22.1116 23.3937 22.0753 23.4003 22.0393L25.6593 22.4497ZM24.5298 23.3925H24.9321V21.0965H24.5298V23.3925ZM24.9321 23.3925C25.3553 23.3925 25.6983 23.7356 25.6983 24.1587H27.9943C27.9943 22.4675 26.6233 21.0965 24.9321 21.0965V23.3925ZM25.6983 24.1587C25.6983 23.8221 25.9711 23.5493 26.3077 23.5493V25.8453C27.2392 25.8453 27.9943 25.0902 27.9943 24.1587H25.6983ZM26.3077 23.5493C26.6443 23.5493 26.9172 23.8221 26.9172 24.1587H24.6212C24.6212 25.0902 25.3763 25.8453 26.3077 25.8453V23.5493ZM26.9172 24.1587C26.9172 23.0624 26.0284 22.1736 24.9321 22.1736V24.4697C24.7604 24.4697 24.6212 24.3304 24.6212 24.1587H26.9172ZM24.9321 22.1736H23.1285V24.4697H24.9321V22.1736ZM23.1285 22.1736C21.9988 22.1736 21.0829 23.0895 21.0829 24.2192H23.379C23.379 24.3575 23.2668 24.4697 23.1285 24.4697V22.1736ZM21.0829 24.2192V24.786H23.379V24.2192H21.0829ZM21.0829 24.786C21.0829 25.9158 21.9988 26.8316 23.1285 26.8316V24.5356C23.2668 24.5356 23.379 24.6477 23.379 24.786H21.0829ZM23.1285 26.8316H24.8716V24.5356H23.1285V26.8316ZM24.8716 26.8316C25.3282 26.8316 25.6983 27.2018 25.6983 27.6583H27.9943C27.9943 25.9337 26.5962 24.5356 24.8716 24.5356V26.8316ZM25.6983 27.6583V28.2251H27.9943V27.6583H25.6983ZM25.6983 28.2251C25.6983 28.6817 25.3282 29.0518 24.8716 29.0518V31.3479C26.5962 31.3479 27.9943 29.9498 27.9943 28.2251H25.6983ZM24.8716 29.0518H24.5298V31.3479H24.8716V29.0518ZM25.6865 30.2971C25.6865 30.1945 25.6772 30.0931 25.6592 29.994L23.4003 30.4057C23.3938 30.3696 23.3905 30.3332 23.3905 30.2971H25.6865ZM25.6865 31.0378L25.6865 30.2971L23.3905 30.2971L23.3905 31.0378L25.6865 31.0378ZM23.9999 32.7244C24.9314 32.7244 25.6865 31.9693 25.6865 31.0378H23.3905C23.3905 30.7012 23.6633 30.4283 23.9999 30.4283V32.7244ZM22.3134 31.0378C22.3134 31.9693 23.0685 32.7244 23.9999 32.7244V30.4283C24.3365 30.4283 24.6094 30.7012 24.6094 31.0378H22.3134ZM22.3134 30.2971V31.0378H24.6094V30.2971H22.3134ZM22.3407 29.994C22.3226 30.0931 22.3134 30.1945 22.3134 30.2971H24.6094C24.6094 30.3332 24.6061 30.3696 24.5995 30.4057L22.3407 29.994ZM23.4701 29.0518H23.1285V31.3479H23.4701V29.0518ZM23.1285 29.0518C22.672 29.0518 22.3018 28.6817 22.3018 28.2251H20.0058C20.0058 29.9498 21.4039 31.3479 23.1285 31.3479V29.0518ZM22.3018 28.2251V27.9417H20.0058V28.2251H22.3018ZM22.3018 27.9417C22.3018 28.2783 22.029 28.5512 21.6924 28.5512V26.2552C20.7609 26.2552 20.0058 27.0103 20.0058 27.9417H22.3018ZM21.6924 28.5512C21.3558 28.5512 21.0829 28.2783 21.0829 27.9417H23.379C23.379 27.0103 22.6238 26.2552 21.6924 26.2552V28.5512ZM21.0829 27.9417V28.2251H23.379V27.9417H21.0829ZM21.0829 28.2251C21.0829 29.3549 21.9988 30.2707 23.1285 30.2707V27.9747C23.2668 27.9747 23.379 28.0868 23.379 28.2251H21.0829ZM23.1285 30.2707H24.8716V27.9747H23.1285V30.2707ZM24.8716 30.2707C26.0013 30.2707 26.9172 29.3549 26.9172 28.2251H24.6212C24.6212 28.0868 24.7333 27.9747 24.8716 27.9747V30.2707ZM26.9172 28.2251V27.6583H24.6212V28.2251H26.9172ZM26.9172 27.6583C26.9172 26.5286 26.0013 25.6127 24.8716 25.6127V27.9088C24.7333 27.9088 24.6212 27.7966 24.6212 27.6583H26.9172ZM24.8716 25.6127H23.1285V27.9088H24.8716V25.6127ZM23.1285 25.6127C22.672 25.6127 22.3018 25.2426 22.3018 24.786H20.0058C20.0058 26.5107 21.4039 27.9088 23.1285 27.9088V25.6127ZM22.3018 24.786V24.2192H20.0058V24.786H22.3018ZM22.3018 24.2192C22.3018 23.7627 22.672 23.3925 23.1285 23.3925V21.0965C21.4039 21.0965 20.0058 22.4946 20.0058 24.2192H22.3018ZM23.1285 23.3925H23.4701V21.0965H23.1285V23.3925ZM22.3134 22.1476C22.3134 22.2498 22.3226 22.3509 22.3405 22.4497L24.5996 22.0393C24.6061 22.0753 24.6094 22.1116 24.6094 22.1476H22.3134ZM22.3134 21.4069L22.3134 22.1476L24.6094 22.1476L24.6094 21.4069L22.3134 21.4069ZM23.9999 19.7203C23.0685 19.7203 22.3134 20.4754 22.3134 21.4069H24.6094C24.6094 21.7435 24.3365 22.0164 23.9999 22.0164L23.9999 19.7203Z" fill="#FF5A5A" mask="url(#path-4-inside-1)"/>
</svg>
