<svg width="18" height="18" viewBox="0 0 18 18" fill="none" xmlns="http://www.w3.org/2000/svg">
<path d="M9 18C13.9706 18 18 13.9706 18 9C18 4.02944 13.9706 0 9 0C4.02944 0 0 4.02944 0 9C0 13.9706 4.02944 18 9 18Z" fill="#F2F2F2"/>
<path fill-rule="evenodd" clip-rule="evenodd" d="M9.55889 4.91012C9.51655 4.67688 9.31241 4.5 9.06695 4.5C8.7908 4.5 8.56695 4.72386 8.56695 5V5.23011C6.45861 5.47459 5.46232 7.40573 6.60732 8.88531C6.98635 9.37531 7.46662 9.57627 8.56695 9.82128V12.7653C7.89209 12.6726 7.47498 12.3692 7.22978 11.9131C7.07948 11.6335 7.01496 11.3427 7.00195 11.1216L6.9943 10.9301C6.95942 10.6957 6.76101 10.5124 6.51567 10.5046C6.23967 10.4958 6.00879 10.7124 6 10.9884L6.00185 11.15C6.01776 11.5097 6.11296 11.9475 6.34897 12.3865C6.76304 13.1569 7.49817 13.6597 8.56695 13.7716V14L8.575 14.0899C8.61734 14.3231 8.82149 14.5 9.06695 14.5C9.34309 14.5 9.56695 14.2761 9.56695 14V13.7766C10.9832 13.6716 11.9833 13.1069 12.1205 11.6616C12.2703 10.0781 11.4532 9.45192 9.56695 9.01468V6.24834C10.1299 6.34779 10.4914 6.61133 10.7156 6.99437C10.8909 7.2938 10.9507 7.60076 10.9507 7.7793C10.9507 8.05544 11.1746 8.2793 11.4507 8.2793C11.7269 8.2793 11.9507 8.05544 11.9507 7.7793C11.9507 7.43909 11.8588 6.96793 11.5786 6.48923C11.1815 5.81066 10.5137 5.36066 9.56695 5.23809V5L9.55889 4.91012ZM8.56695 6.23763C7.27508 6.43526 6.77805 7.47198 7.39824 8.27338C7.56428 8.48804 7.8773 8.62839 8.56695 8.79447V6.23763ZM9.56695 10.0426V12.7718C10.4858 12.6834 11.052 12.3357 11.125 11.5672C11.2058 10.7127 10.8185 10.3564 9.56695 10.0426Z" fill="#C8C8C8"/>
<path d="M9.55889 4.91012L9.60889 4.90564L9.60809 4.90119L9.55889 4.91012ZM8.56695 5.23011L8.57271 5.27978L8.61695 5.27465V5.23011H8.56695ZM6.60732 8.88531L6.64687 8.85472L6.64687 8.85471L6.60732 8.88531ZM8.56695 9.82128H8.61695V9.78119L8.57781 9.77247L8.56695 9.82128ZM8.56695 12.7653L8.56014 12.8148L8.61695 12.8226V12.7653H8.56695ZM7.22978 11.9131L7.18574 11.9367L7.18574 11.9367L7.22978 11.9131ZM7.00195 11.1216L6.95198 11.1236L6.95204 11.1245L7.00195 11.1216ZM6.9943 10.9301L7.04456 10.9281L7.04376 10.9228L6.9943 10.9301ZM6.51567 10.5046L6.51726 10.4546L6.51726 10.4546L6.51567 10.5046ZM6 10.9884L5.94998 10.9868L5.95 10.9889L6 10.9884ZM6.00185 11.15L5.95183 11.1506L5.9519 11.1522L6.00185 11.15ZM6.34897 12.3865L6.30493 12.4102L6.34897 12.3865ZM8.56695 13.7716H8.61695V13.7266L8.57215 13.7219L8.56695 13.7716ZM8.56695 14H8.51675L8.51715 14.0045L8.56695 14ZM8.575 14.0899L8.525 14.0944L8.52581 14.0988L8.575 14.0899ZM9.56695 13.7766L9.56325 13.7268L9.51695 13.7302V13.7766H9.56695ZM12.1205 11.6616L12.1703 11.6663L12.1703 11.6663L12.1205 11.6616ZM9.56695 9.01468H9.51695V9.05442L9.55566 9.06339L9.56695 9.01468ZM9.56695 6.24834L9.57564 6.1991L9.51695 6.18873V6.24834H9.56695ZM10.7156 6.99437L10.6724 7.01963L10.6724 7.01963L10.7156 6.99437ZM11.5786 6.48923L11.6218 6.46397L11.6218 6.46397L11.5786 6.48923ZM9.56695 5.23809H9.51695V5.28203L9.56053 5.28768L9.56695 5.23809ZM9.56695 5H9.61715L9.61675 4.99554L9.56695 5ZM8.56695 6.23763H8.61695V6.1794L8.55939 6.1882L8.56695 6.23763ZM7.39824 8.27338L7.43779 8.24279L7.43778 8.24278L7.39824 8.27338ZM8.56695 8.79447L8.55524 8.84308L8.61695 8.85794V8.79447H8.56695ZM9.56695 10.0426L9.57911 9.99414L9.51695 9.97856V10.0426H9.56695ZM9.56695 12.7718H9.51695V12.8269L9.57173 12.8216L9.56695 12.7718ZM11.125 11.5672L11.1747 11.5719L11.1747 11.5719L11.125 11.5672ZM9.06695 4.55C9.28781 4.55 9.4716 4.70916 9.50969 4.91905L9.60809 4.90119C9.56151 4.64459 9.337 4.45 9.06695 4.45V4.55ZM8.61695 5C8.61695 4.75147 8.81842 4.55 9.06695 4.55V4.45C8.76319 4.45 8.51695 4.69624 8.51695 5H8.61695ZM8.61695 5.23011V5H8.51695V5.23011H8.61695ZM6.64687 8.85471C6.08628 8.13031 6.05109 7.29873 6.41133 6.61793C6.7721 5.93611 7.53262 5.40039 8.57271 5.27978L8.56119 5.18045C7.49293 5.30432 6.70114 5.8564 6.32294 6.57116C5.94419 7.28695 5.98337 8.16073 6.56778 8.91591L6.64687 8.85471ZM8.57781 9.77247C7.47833 9.52765 7.01416 9.32954 6.64687 8.85472L6.56777 8.9159C6.95854 9.42108 7.45492 9.62489 8.55608 9.87008L8.57781 9.77247ZM8.61695 12.7653V9.82128H8.51695V12.7653H8.61695ZM7.18574 11.9367C7.43936 12.4086 7.87131 12.7202 8.56014 12.8148L8.57375 12.7158C7.91286 12.625 7.51061 12.3299 7.27382 11.8894L7.18574 11.9367ZM6.95204 11.1245C6.96543 11.352 7.03162 11.65 7.18574 11.9367L7.27382 11.8894C7.12735 11.6169 7.0645 11.3333 7.05186 11.1186L6.95204 11.1245ZM6.94434 10.9321L6.95199 11.1236L7.05191 11.1196L7.04426 10.9281L6.94434 10.9321ZM6.51408 10.5545C6.73483 10.5616 6.91346 10.7265 6.94485 10.9375L7.04376 10.9228C7.00538 10.6648 6.78718 10.4632 6.51726 10.4546L6.51408 10.5545ZM6.04997 10.99C6.05789 10.7416 6.26568 10.5466 6.51408 10.5545L6.51726 10.4546C6.21366 10.4449 5.9597 10.6832 5.95003 10.9868L6.04997 10.99ZM6.05185 11.1494L6.05 10.9878L5.95 10.9889L5.95186 11.1506L6.05185 11.1494ZM6.39301 12.3629C6.16089 11.931 6.06741 11.5007 6.0518 11.1478L5.9519 11.1522C5.96811 11.5187 6.06503 11.9639 6.30493 12.4102L6.39301 12.3629ZM8.57215 13.7219C7.51814 13.6115 6.79847 13.1172 6.39301 12.3629L6.30493 12.4102C6.72761 13.1965 7.4782 13.7079 8.56174 13.8213L8.57215 13.7219ZM8.61695 14V13.7716H8.51695V14H8.61695ZM8.6248 14.0854L8.61675 13.9955L8.51715 14.0045L8.5252 14.0943L8.6248 14.0854ZM9.06695 14.45C8.84609 14.45 8.66229 14.2908 8.6242 14.0809L8.52581 14.0988C8.57238 14.3554 8.79689 14.55 9.06695 14.55V14.45ZM9.51695 14C9.51695 14.2485 9.31547 14.45 9.06695 14.45V14.55C9.3707 14.55 9.61695 14.3038 9.61695 14H9.51695ZM9.51695 13.7766V14H9.61695V13.7766H9.51695ZM12.0707 11.6568C12.0033 12.3675 11.7248 12.8564 11.2933 13.1818C10.8598 13.5086 10.2666 13.6746 9.56325 13.7268L9.57064 13.8265C10.2835 13.7736 10.8985 13.6047 11.3535 13.2616C11.8104 12.9171 12.1005 12.4009 12.1703 11.6663L12.0707 11.6568ZM9.55566 9.06339C10.4975 9.28171 11.1615 9.54519 11.5724 9.94416C11.9796 10.3396 12.1447 10.875 12.0707 11.6568L12.1703 11.6663C12.2461 10.8646 12.0776 10.2953 11.6421 9.87242C11.2103 9.45313 10.5227 9.1849 9.57824 8.96597L9.55566 9.06339ZM9.51695 6.24834V9.01468H9.61695V6.24834H9.51695ZM10.7588 6.96911C10.5265 6.57224 10.1516 6.30086 9.57564 6.1991L9.55825 6.29758C10.1081 6.39472 10.4563 6.65041 10.6724 7.01963L10.7588 6.96911ZM11.0007 7.7793C11.0007 7.59194 10.9385 7.27626 10.7588 6.96911L10.6724 7.01963C10.8432 7.31134 10.9007 7.60957 10.9007 7.7793H11.0007ZM11.4507 8.2293C11.2022 8.2293 11.0007 8.02783 11.0007 7.7793H10.9007C10.9007 8.08306 11.147 8.3293 11.4507 8.3293V8.2293ZM11.9007 7.7793C11.9007 8.02783 11.6993 8.2293 11.4507 8.2293V8.3293C11.7545 8.3293 12.0007 8.08306 12.0007 7.7793H11.9007ZM11.5355 6.51449C11.8109 6.9851 11.9007 7.44747 11.9007 7.7793H12.0007C12.0007 7.43072 11.9067 6.95075 11.6218 6.46397L11.5355 6.51449ZM9.56053 5.28768C10.4934 5.40845 11.1469 5.85049 11.5355 6.51449L11.6218 6.46397C11.2161 5.77084 10.534 5.31287 9.57337 5.1885L9.56053 5.28768ZM9.51695 5V5.23809H9.61695V5H9.51695ZM9.50909 4.91459L9.51715 5.00446L9.61675 4.99554L9.60869 4.90566L9.50909 4.91459ZM8.55939 6.1882C7.90196 6.28878 7.43902 6.60426 7.22162 7.00526C7.00341 7.40775 7.0372 7.88855 7.35869 8.30398L7.43778 8.24278C7.13909 7.85681 7.11131 7.41854 7.30953 7.05292C7.50856 6.6858 7.94007 6.38411 8.57451 6.28705L8.55939 6.1882ZM7.35869 8.30397C7.53688 8.53434 7.86743 8.67744 8.55524 8.84308L8.57865 8.74586C7.88717 8.57934 7.59168 8.44174 7.43779 8.24279L7.35869 8.30397ZM8.61695 8.79447V6.23763H8.51695V8.79447H8.61695ZM9.51695 10.0426V12.7718H9.61695V10.0426H9.51695ZM9.57173 12.8216C10.0353 12.777 10.4168 12.6665 10.6927 12.4649C10.9707 12.2617 11.137 11.9692 11.1747 11.5719L11.0752 11.5625C11.04 11.9337 10.8867 12.1993 10.6337 12.3842C10.3784 12.5707 10.0174 12.6783 9.56216 12.7221L9.57173 12.8216ZM11.1747 11.5719C11.216 11.1359 11.1384 10.8157 10.8804 10.5662C10.6269 10.3211 10.2054 10.1512 9.57911 9.99414L9.55479 10.0911C10.18 10.2479 10.578 10.413 10.8109 10.6381C11.0392 10.8589 11.1148 11.144 11.0752 11.5625L11.1747 11.5719Z" fill="#C8C8C8"/>
</svg>
