<svg width="325" height="206" viewBox="0 0 325 206" fill="none" xmlns="http://www.w3.org/2000/svg">
<path d="M119 206C169.258 206 210 203.538 210 200.5C210 197.462 169.258 195 119 195C68.7421 195 28 197.462 28 200.5C28 203.538 68.7421 206 119 206Z" fill="#F2F2F2"/>
<path d="M261.5 204C273.374 204 283 202.433 283 200.5C283 198.567 273.374 197 261.5 197C249.626 197 240 198.567 240 200.5C240 202.433 249.626 204 261.5 204Z" fill="#F2F2F2"/>
<path d="M36.6 26.3999H288C292 26.3999 295.2 29.7999 295.2 33.9999V166.7C295.2 170.9 292 174.3 288 174.3H36.6C32.6 174.3 29.4 170.9 29.4 166.7V33.9999C29.4 29.7999 32.6 26.3999 36.6 26.3999Z" fill="#BDBDBD"/>
<path d="M26.3 23.7H298C302 23.7 305.2 27.0999 305.2 31.2999V164C305.2 168.2 302 171.6 298 171.6H26.3C22.3 171.6 19.1 168.2 19.1 164V31.2999C19.1 27.0999 22.4 23.7 26.3 23.7Z" fill="#CDCCCC"/>
<path d="M7.2 0H317.2C321.2 0 324.4 3.4 324.4 7.6V160C324.4 164.2 321.2 167.6 317.2 167.6H7.2C3.2 167.6 0 164.2 0 160V7.6C0 3.4 3.2 0 7.2 0Z" fill="#F7F7F7"/>
<mask id="mask0" mask-type="alpha" maskUnits="userSpaceOnUse" x="0" y="0" width="325" height="168">
<path d="M7.2 0H317.2C321.2 0 324.4 3.4 324.4 7.6V160.1C324.4 164.3 321.2 167.7 317.2 167.7H7.2C3.2 167.7 0 164.3 0 160.1V7.6C0 3.4 3.2 0 7.2 0Z" fill="white"/>
</mask>
<g mask="url(#mask0)">
<path d="M0 8C0 3.6 3.2 0 7.2 0H75.4V176.4H7.2C3.2 176.4 0 172.8 0 168.4V8Z" fill="#EEEEEE"/>
<path d="M14.3 23.8C16.5643 23.8 18.4 21.8748 18.4 19.5C18.4 17.1251 16.5643 15.2 14.3 15.2C12.0356 15.2 10.2 17.1251 10.2 19.5C10.2 21.8748 12.0356 23.8 14.3 23.8Z" fill="#D8D8D8"/>
<path d="M20.7 158.7C22.9643 158.7 24.8 156.775 24.8 154.4C24.8 152.025 22.9643 150.1 20.7 150.1C18.4356 150.1 16.6 152.025 16.6 154.4C16.6 156.775 18.4356 158.7 20.7 158.7Z" fill="white"/>
<path d="M37.7999 158.7C40.0643 158.7 41.9 156.775 41.9 154.4C41.9 152.025 40.0643 150.1 37.7999 150.1C35.5356 150.1 33.7 152.025 33.7 154.4C33.7 156.775 35.5356 158.7 37.7999 158.7Z" fill="white"/>
<path d="M54.9001 158.7C57.1644 158.7 59 156.775 59 154.4C59 152.025 57.1644 150.1 54.9001 150.1C52.6357 150.1 50.8 152.025 50.8 154.4C50.8 156.775 52.6357 158.7 54.9001 158.7Z" fill="white"/>
<path d="M96.7 40.6001H304.1C307.5 40.6001 310.3 42.4001 310.3 44.6001V154.8C310.3 157 307.5 158.8 304.1 158.8H96.7C93.3 158.8 90.5 157 90.5 154.8V44.6001C90.5 42.4001 93.3 40.6001 96.7 40.6001Z" fill="white"/>
<path d="M24.3 15.1001H61.1C61.5 15.1001 61.8 15.4001 61.8 15.9001V18.8001C61.8 19.2001 61.5 19.6001 61.1 19.6001H24.3C23.9 19.6001 23.6 19.3001 23.6 18.8001V15.9001C23.6 15.5001 23.9 15.1001 24.3 15.1001Z" fill="#D8D8D8"/>
<path d="M24.3 22.3999H48.9C49.3 22.3999 49.6 22.6999 49.6 23.1999V26.0999C49.6 26.4999 49.3 26.8999 48.9 26.8999H24.3C23.9 26.8999 23.6 26.5999 23.6 26.0999V23.1999C23.6 22.7999 23.9 22.3999 24.3 22.3999Z" fill="#D8D8D8"/>
<path d="M24.5 57.3H60.8C61.9 57.3 62.7 58.2001 62.7 59.2001C62.7 60.3001 61.8 61.1 60.8 61.1H24.5C23.4 61.1 22.6 60.2001 22.6 59.2001C22.6 58.2001 23.5 57.3 24.5 57.3Z" fill="#D8D8D8"/>
<path d="M12.1 56.3999H15.9C16.4 56.3999 16.9 56.7999 16.9 57.3999V61.1999C16.9 61.6999 16.5 62.1999 15.9 62.1999H12.1C11.6 62.1999 11.1 61.7999 11.1 61.1999V57.3999C11.2 56.7999 11.6 56.3999 12.1 56.3999Z" fill="#D8D8D8"/>
<path d="M24.5 66.8999H60.8C61.9 66.8999 62.7 67.7999 62.7 68.7999C62.7 69.8999 61.8 70.6999 60.8 70.6999H24.5C23.4 70.6999 22.6 69.7999 22.6 68.7999C22.6 67.7999 23.5 66.8999 24.5 66.8999Z" fill="#D8D8D8"/>
<path d="M12.1 65.8999H15.9C16.4 65.8999 16.9 66.2999 16.9 66.8999V70.6999C16.9 71.1999 16.5 71.6999 15.9 71.6999H12.1C11.6 71.6999 11.1 71.2999 11.1 70.6999V66.8999C11.2 66.3999 11.6 65.8999 12.1 65.8999Z" fill="#D8D8D8"/>
<path d="M24.5 76.5H60.8C61.9 76.5 62.7 77.4 62.7 78.4C62.7 79.5 61.8 80.3 60.8 80.3H24.5C23.4 80.3 22.6 79.4 22.6 78.4C22.6 77.3 23.5 76.5 24.5 76.5Z" fill="#D8D8D8"/>
<path d="M12.1 75.5H15.9C16.4 75.5 16.9 75.9 16.9 76.5V80.3C16.9 80.8 16.5 81.3 15.9 81.3H12.1C11.6 81.3 11.1 80.9 11.1 80.3V76.5C11.2 75.9 11.6 75.5 12.1 75.5Z" fill="#D8D8D8"/>
<path d="M24.5 86H60.8C61.9 86 62.7 86.9 62.7 87.9C62.7 89 61.8 89.8 60.8 89.8H24.5C23.4 89.8 22.6 88.9 22.6 87.9C22.6 86.9 23.5 86 24.5 86Z" fill="#D8D8D8"/>
<path d="M24.5 95.6001H60.8C61.9 95.6001 62.7 96.5001 62.7 97.5001C62.7 98.6001 61.8 99.4001 60.8 99.4001H24.5C23.4 99.4001 22.6 98.5001 22.6 97.5001C22.6 96.4001 23.5 95.6001 24.5 95.6001Z" fill="#D8D8D8"/>
<path d="M12.1 85.1001H15.9C16.4 85.1001 16.9 85.5001 16.9 86.1001V89.9001C16.9 90.4001 16.5 90.9001 15.9 90.9001H12.1C11.6 90.9001 11.1 90.5001 11.1 89.9001V86.0001C11.2 85.5001 11.6 85.1001 12.1 85.1001Z" fill="#D8D8D8"/>
<path d="M12.1 94.6001H15.9C16.4 94.6001 16.9 95.0001 16.9 95.6001V99.4001C16.9 99.9001 16.5 100.4 15.9 100.4H12.1C11.6 100.4 11.1 100 11.1 99.4001V95.6001C11.2 95.0001 11.6 94.6001 12.1 94.6001Z" fill="#D8D8D8"/>
<path d="M93.4 13.3999H307.5C309.1 13.3999 310.4 14.6999 310.4 16.2999V26.7999C310.4 28.3999 309.1 29.6999 307.5 29.6999H93.4C91.8 29.6999 90.5 28.3999 90.5 26.7999V16.1999C90.5 14.6999 91.8 13.3999 93.4 13.3999Z" fill="#D8D8D8"/>
<mask id="mask1" mask-type="alpha" maskUnits="userSpaceOnUse" x="188" y="59" width="14" height="13">
<path fill-rule="evenodd" clip-rule="evenodd" d="M196.3 59.3003C195.3 59.6003 194.4 60.4003 193.9 61.5003C192.9 60.9003 191.7 60.9003 190.8 61.3003C189.9 61.6003 189.1 62.3003 188.7 63.1003C188.4 63.8003 188 64.8003 188.5 66.2003C189.9 70.2003 196.6 71.3003 196.9 71.4003L197.4 71.5003L197.7 71.1003C198.2 70.5003 202.2 65.3003 200.9 61.6003C200.2 59.3003 198 58.7003 196.3 59.3003Z" fill="white"/>
</mask>
<g mask="url(#mask1)">
<path d="M200.401 55.6901L185.302 60.9829L190.595 76.0821L205.694 70.7893L200.401 55.6901Z" fill="#FF5A5A"/>
</g>
<mask id="mask2" mask-type="alpha" maskUnits="userSpaceOnUse" x="204" y="59" width="8" height="8">
<path fill-rule="evenodd" clip-rule="evenodd" d="M210.7 61.4002C210.2 61.1002 209.6 61.0002 209 61.2002C208.9 60.6002 208.5 60.1002 208 59.9002C207.5 59.6002 207 59.6002 206.5 59.7002C206.1 59.8002 205.6 60.0002 205.2 60.7002C204.1 62.6002 205.9 65.7002 206 65.8002L206.2 66.1002H206.5C206.9 66.1002 210.4 65.9002 211.4 64.1002C212.1 62.9002 211.5 61.8002 210.7 61.4002Z" fill="white"/>
</mask>
<g mask="url(#mask2)">
<path d="M206.326 57.4434L202.063 64.7976L209.417 69.0604L213.68 61.7062L206.326 57.4434Z" fill="#FF5A5A"/>
</g>
<mask id="mask3" mask-type="alpha" maskUnits="userSpaceOnUse" x="199" y="51" width="6" height="5">
<path fill-rule="evenodd" clip-rule="evenodd" d="M202.3 51.3002C201.9 51.4002 201.6 51.7002 201.4 52.1002C201 51.9002 200.6 51.9002 200.2 52.0002C199.9 52.1002 199.6 52.4002 199.4 52.7002C199.3 52.9002 199.2 53.3002 199.3 53.9002C199.8 55.4002 202.3 55.8002 202.4 55.8002H202.6L202.7 55.6002C202.9 55.4002 204.4 53.4002 203.9 52.1002C203.8 51.3002 203 51.1002 202.3 51.3002Z" fill="white"/>
</mask>
<g mask="url(#mask3)">
<path d="M203.887 49.9904L198.216 51.95L200.175 57.6212L205.846 55.6616L203.887 49.9904Z" fill="#FF5A5A"/>
</g>
<path d="M285 76.9001C285.1 77.1001 285.1 77.3001 285 77.5001C284.9 77.7001 284.8 77.8001 284.5 77.7001C283.7 77.5001 283.3 77.4001 283.3 77.4001C283.3 77.4001 283.2 77.5001 283.2 77.6001C283 78.2001 282.8 78.7001 282.6 79.3001L282.5 79.6001C282.4 79.9001 282.2 79.9001 282 79.9001C281.2 79.7001 281 78.8001 281.4 77.5001C281.5 77.3001 281.5 77.1001 281.3 77.1001L280.5 77.0001C280.3 76.9001 280.1 76.8001 280 76.5001C279.9 76.3001 279.9 76.0001 280 75.9001C280.1 75.7001 280.2 75.6001 280.5 75.6001C281.4 75.8001 281.9 75.9001 281.9 75.8001C281.9 75.8001 282 75.7001 282.1 75.4001C282.5 74.1001 283 73.5001 283.5 73.6001C283.8 73.7001 284.1 73.9001 284.2 74.3001C284.3 74.6001 284.3 74.9001 284.2 75.4001C284.1 75.6001 284 75.8001 283.9 76.2001C283.9 76.3001 283.9 76.4001 284 76.4001C284.1 76.4001 284.3 76.5001 284.5 76.6001C284.8 76.6001 284.9 76.7001 285 76.9001ZM289.2 74.3001C289 74.1001 288.9 74.0001 288.7 73.9001C288.4 73.8001 288.2 73.9001 287.9 74.3001C287.4 75.0001 286.7 76.5001 285.9 78.7001C285.8 79.0001 285.7 79.2001 285.7 79.4001C285.3 80.6001 285.2 81.5001 285.2 82.0001C285.3 82.4001 285.5 82.7001 285.8 82.8001C286.1 82.9001 286.3 82.8001 286.4 82.6001C286.4 82.6001 286.4 82.5001 286.4 82.4001C286.4 82.1001 286.5 81.7001 286.7 81.1001C287.3 79.3001 288.1 77.4001 289.2 75.3001C289.3 75.2001 289.4 75.0001 289.4 74.9001C289.5 74.7001 289.4 74.5001 289.2 74.3001ZM278.7 55.6001L279.5 55.8001C279.6 55.8001 279.6 56.0001 279.5 56.2001C279 57.6001 279.2 58.4001 279.9 58.7001C280.2 58.8001 280.4 58.7001 280.4 58.5001L280.5 58.2001C280.7 57.6001 280.9 57.1001 281.2 56.5001C281.2 56.4001 281.3 56.3001 281.3 56.3001C281.3 56.3001 281.7 56.4001 282.5 56.7001C282.7 56.8001 282.9 56.7001 283 56.5001C283.1 56.3001 283.1 56.1001 283 55.9001C282.9 55.7001 282.8 55.5001 282.6 55.5001C282.3 55.4001 282.2 55.3001 282.1 55.3001C282 55.3001 282 55.2001 282 55.1001C282.2 54.8001 282.3 54.5001 282.4 54.3001C282.5 53.9001 282.5 53.5001 282.4 53.2001C282.3 52.8001 282 52.6001 281.7 52.5001C281.2 52.3001 280.8 52.9001 280.3 54.2001C280.2 54.4001 280.1 54.5001 280.1 54.6001C280.1 54.6001 279.6 54.5001 278.7 54.3001C278.5 54.3001 278.3 54.3001 278.2 54.5001C278.1 54.7001 278.1 54.9001 278.2 55.1001C278.3 55.4001 278.5 55.5001 278.7 55.6001ZM287.5 59.3001C287.7 58.6001 287.7 57.9001 287.4 57.3001C287.4 57.2001 287.4 57.2001 287.4 57.2001C287.4 57.2001 287.4 57.1001 287.5 57.1001C288.1 56.6001 288.6 56.1001 288.8 55.5001C289 55.0001 289 54.5001 288.8 54.0001C288.7 53.7001 288.5 53.5001 288.2 53.4001C288 53.3001 287.7 53.3001 287.3 53.4001C286.5 53.7001 285.8 54.2001 285.2 54.9001C285.1 55.0001 285 55.2001 284.9 55.3001C284.8 55.5001 284.8 55.7001 284.9 55.9001C285 56.2001 285.1 56.3001 285.3 56.4001C285.5 56.5001 285.6 56.4001 285.6 56.2001V56.1001C285.6 56.0001 285.6 56.0001 285.6 55.9001C285.6 55.8001 285.7 55.7001 285.9 55.4001C286.3 55.0001 286.7 54.6001 287.2 54.4001C287.4 54.3001 287.5 54.3001 287.7 54.3001C287.7 54.3001 287.7 54.3001 287.7 54.4001L287.6 54.6001C287.2 55.2001 286.7 55.6001 286.1 56.0001L285.7 56.3001C285.6 56.4001 285.6 56.4001 285.5 56.5001C285.5 56.7001 285.5 57.0001 285.6 57.1001C285.7 57.3001 285.8 57.4001 285.9 57.4001C286 57.4001 286.1 57.4001 286.2 57.4001C286.3 57.4001 286.4 57.4001 286.5 57.4001C286.7 57.5001 286.7 57.6001 286.6 57.9001C286.4 58.4001 286.1 58.8001 285.7 59.1001C285.3 59.4001 284.9 59.6001 284.5 59.7001C284.1 59.8001 283.8 59.7001 283.5 59.6001C283.4 59.6001 283.3 59.5001 283.2 59.5001L283.1 59.4001C282.9 59.3001 282.7 59.4001 282.6 59.7001C282.5 59.9001 282.6 60.1001 282.7 60.4001C283 60.9001 283.3 61.2001 283.8 61.4001C284.1 61.5001 284.5 61.5001 284.8 61.4001C286.2 61.3001 287 60.5001 287.5 59.3001ZM273.3 66.8001C273 66.8001 272.8 66.8001 272.7 66.8001C272.6 66.8001 272.5 66.8001 272.5 66.6001C272.5 66.2001 272.5 65.9001 272.5 65.7001C272.4 65.3001 272.3 65.0001 272 64.8001C271.7 64.5001 271.4 64.4001 271.1 64.5001C270.6 64.6001 270.4 65.3001 270.6 66.7001C270.6 66.9001 270.6 67.1001 270.6 67.1001C270.6 67.1001 270.1 67.2001 269.2 67.5001C269 67.6001 268.9 67.7001 268.9 67.9001C268.9 68.1001 269 68.3001 269.2 68.5001C269.4 68.7001 269.6 68.8001 269.8 68.7001L270.6 68.5001C270.7 68.5001 270.8 68.6001 270.8 68.9001C271 70.3001 271.5 71.0001 272.3 70.9001C272.6 70.9001 272.7 70.7001 272.7 70.4001V70.1001C272.6 69.5001 272.6 68.9001 272.6 68.3001C272.6 68.2001 272.6 68.1001 272.6 68.1001C272.6 68.1001 273 68.0001 273.8 67.9001C274 67.9001 274.2 67.7001 274.1 67.5001C274.1 67.3001 274 67.1001 273.8 67.0001C273.6 66.9001 273.4 66.8001 273.3 66.8001ZM280.3 69.8001C280.3 69.6001 280.2 69.5001 280 69.3001L279.7 69.1001C279.5 69.0001 279.3 68.9001 279.1 68.8001C279 68.7001 278.9 68.7001 278.9 68.7001C278.9 68.7001 278.9 68.6001 278.9 68.5001C279.1 67.9001 279.3 67.2001 279.4 66.4001C279.5 65.6001 279.5 64.9001 279.5 64.4001L279.4 64.0001C279.3 63.4001 279.1 62.9001 278.6 62.6001C278.3 62.4001 278 62.3001 277.7 62.3001C277.3 62.3001 277 62.6001 276.6 63.0001C276.1 63.7001 275.7 64.4001 275.5 65.3001C275.5 65.5001 275.4 65.7001 275.5 65.8001C275.5 66.0001 275.6 66.1001 275.7 66.3001C275.8 66.5001 276.1 66.6001 276.3 66.7001C276.4 66.7001 276.4 66.7001 276.5 66.7001C276.6 66.7001 276.7 66.6001 276.8 66.5001C276.8 66.4001 276.9 66.4001 276.9 66.3001C276.9 66.2001 276.9 66.1001 276.8 66.0001L276.7 65.9001C276.7 65.8001 276.7 65.8001 276.7 65.7001C276.9 65.0001 277.2 64.4001 277.6 63.8001C277.7 63.6001 277.8 63.5001 278 63.5001V63.6001C278 63.7001 278 64.0001 277.9 64.4001C277.6 65.7001 277.3 67.0001 276.8 68.2001C276.7 68.3001 276.7 68.4001 276.6 68.4001C275.9 68.7001 275.5 69.4001 275.4 70.4001V70.7001C275.4 71.0001 275.6 71.3001 275.9 71.4001C276.2 71.6001 276.4 71.6001 276.7 71.6001C277.2 71.5001 277.6 71.2001 278 70.4001C278.2 70.1001 278.3 69.9001 278.4 69.6001C278.4 69.5001 278.5 69.4001 278.5 69.4001C278.6 69.4001 278.9 69.5001 279.3 69.7001C279.6 69.9001 279.9 70.0001 280 69.9001C280.2 70.0001 280.3 69.9001 280.3 69.8001Z" fill="black"/>
<path d="M119.7 87.5H264.1C265.2 87.5 266 88.3 266 89.3V95.9C266 96.9 265.1 97.7 264.1 97.7H119.7C118.6 97.7 117.8 96.9 117.8 95.9V89.3C117.8 88.3 118.6 87.5 119.7 87.5Z" fill="#F1F1F1"/>
<path fill-rule="evenodd" clip-rule="evenodd" d="M304.5 86.9H304C304.5 86.9 304.5 86.9 304.5 86.9C304.5 87 304.5 87 304.5 87.1C304.5 87.2 304.5 87.4 304.4 87.6C304.3 88 304.2 88.6 304 89.2C303.6 90.5 302.9 92 301.5 93.1C300.2 94.1 298.8 94.5 297.6 94.7C297 94.8 296.6 94.8 296.2 94.8V96.4C296.2 96.6 296.1 96.8 295.9 96.8C295.7 96.9 295.5 96.9 295.4 96.7L290.6 92.7C290.5 92.6 290.4 92.5 290.4 92.3C290.4 92.2 290.5 92 290.6 91.9L295.4 87.8C295.5 87.7 295.7 87.7 295.9 87.7C296.1 87.8 296.2 87.9 296.2 88.1V89.9C298.4 89.7 299.8 89.4 301 88.8C302.2 88.3 302.9 87.5 303.6 86.3C303.7 86.1 303.9 86 304.2 86.1C304.4 86.4 304.5 86.6 304.5 86.9Z" fill="#D8D8D8"/>
<path fill-rule="evenodd" clip-rule="evenodd" d="M280 87L279.9 87.3C279.9 87.4 279.8 87.5 279.8 87.6C279.7 88 279.5 88.4 279.3 88.8C279.1 89.2 278.9 89.6 278.7 89.8L278.6 89.9C278.3 90.2 278 90.5 277.7 90.8C277.5 90.6 277.2 90.4 276.9 90.4H275.8C275.2 90.4 274.7 90.9 274.7 91.5V95.6C274.7 96.2 275.2 96.7 275.8 96.7H276.9C277.3 96.7 277.6 96.5 277.8 96.2H277.9C278.3 96.3 278.8 96.4 279.3 96.5C279.8 96.6 280.3 96.7 280.8 96.8C281.6 96.9 282.3 97 282.9 97C283 97 283.1 97 283.1 97C283.2 97 283.2 97 283.3 97C284 96.8 284.5 96.3 284.7 95.6L285.5 92C285.6 91.7 285.5 91.4 285.4 91.1V91C285.2 90.6 284.8 90.4 284.3 90.3L282.3 90.1V90C282.3 89.4 282.3 88.6 282.5 87.5C282.6 86.8 282.2 86.1 281.5 86C280.9 86 280.2 86.4 280 87Z" fill="#D8D8D8"/>
<path fill-rule="evenodd" clip-rule="evenodd" d="M304.5 106H304C304.5 106 304.5 106 304.5 106C304.5 106.1 304.5 106.1 304.5 106.2C304.5 106.3 304.5 106.5 304.4 106.7C304.3 107.1 304.2 107.7 304 108.3C303.6 109.6 302.9 111.1 301.5 112.2C300.2 113.2 298.8 113.6 297.6 113.8C297 113.9 296.6 113.9 296.2 113.9V115.5C296.2 115.7 296.1 115.9 295.9 115.9C295.7 116 295.5 116 295.4 115.8L290.6 111.8C290.5 111.7 290.4 111.6 290.4 111.4C290.4 111.3 290.5 111.1 290.6 111L295.4 106.9C295.5 106.8 295.7 106.8 295.9 106.8C296.1 106.9 296.2 107 296.2 107.2V109C298.4 108.8 299.8 108.5 301 107.9C302.2 107.4 302.9 106.6 303.6 105.4C303.7 105.2 303.9 105.1 304.2 105.2C304.4 105.5 304.5 105.7 304.5 106Z" fill="#D8D8D8"/>
<path fill-rule="evenodd" clip-rule="evenodd" d="M280 106.1L279.9 106.4C279.9 106.5 279.8 106.6 279.8 106.7C279.7 107.1 279.5 107.5 279.3 107.9C279.1 108.3 278.9 108.7 278.7 108.9L278.6 109C278.3 109.3 278 109.6 277.7 109.9C277.5 109.7 277.2 109.5 276.9 109.5H275.8C275.2 109.5 274.7 110 274.7 110.6V114.7C274.7 115.3 275.2 115.8 275.8 115.8H276.9C277.3 115.8 277.6 115.6 277.8 115.3H277.9C278.3 115.4 278.8 115.5 279.3 115.6C279.8 115.7 280.3 115.8 280.8 115.9C281.6 116 282.3 116.1 282.9 116.1C283 116.1 283.1 116.1 283.1 116.1C283.2 116.1 283.2 116.1 283.3 116.1C284 115.9 284.5 115.4 284.7 114.7L285.5 111.1C285.6 110.8 285.5 110.5 285.4 110.2V110.1C285.2 109.7 284.8 109.5 284.3 109.4L282.3 109.2V109.1C282.3 108.5 282.3 107.7 282.5 106.6C282.6 105.9 282.2 105.2 281.5 105.1C280.9 105.1 280.2 105.5 280 106.1Z" fill="#D8D8D8"/>
<path d="M136.708 107H264.292C265.253 107 266 107.792 266 108.782V115.218C266 116.208 265.253 117 264.292 117H136.708C135.747 117 135 116.208 135 115.218V108.782C135 107.792 135.747 107 136.708 107Z" fill="#F1F1F1"/>
<path d="M106.5 98.6001C109.814 98.6001 112.5 95.9138 112.5 92.6001C112.5 89.2864 109.814 86.6001 106.5 86.6001C103.186 86.6001 100.5 89.2864 100.5 92.6001C100.5 95.9138 103.186 98.6001 106.5 98.6001Z" fill="#D8D8D8"/>
<path d="M124 117.7C127.314 117.7 130 115.014 130 111.7C130 108.386 127.314 105.7 124 105.7C120.686 105.7 118 108.386 118 111.7C118 115.014 120.686 117.7 124 117.7Z" fill="#D8D8D8"/>
<path d="M236.2 147.6H164.2C159.8 147.6 156.2 144 156.2 139.6C156.2 135.2 159.8 131.6 164.2 131.6H236.2C240.6 131.6 244.2 135.2 244.2 139.6C244.2 144 240.7 147.6 236.2 147.6Z" fill="#242424"/>
<path d="M192.162 145.563C191.869 145.563 191.542 145.45 191.183 145.222C190.831 144.995 190.563 144.368 190.38 143.341C190.365 143.253 190.358 143.162 190.358 143.066C190.358 142.751 190.468 142.516 190.688 142.362C190.827 142.296 190.945 142.263 191.04 142.263C191.289 142.263 191.414 142.472 191.414 142.89C191.539 143.807 191.777 144.265 192.129 144.265C192.488 144.265 192.994 143.767 193.647 142.769C193.896 142.439 194.039 142.069 194.076 141.658C194.076 141.182 193.658 140.786 192.822 140.47C192.646 140.397 192.29 140.258 191.755 140.052C190.758 139.664 190.259 139.04 190.259 138.182C190.259 137.735 190.336 137.295 190.49 136.862C190.71 136.18 191.04 135.542 191.48 134.948C191.971 134.288 192.496 133.958 193.053 133.958C193.42 133.958 193.772 134.072 194.109 134.299C194.732 134.71 195.044 135.344 195.044 136.202C195.037 136.73 194.938 137.244 194.747 137.742C194.637 138.05 194.472 138.204 194.252 138.204C193.981 138.197 193.772 138.094 193.625 137.896C193.596 137.845 193.581 137.797 193.581 137.753C193.581 137.709 193.592 137.665 193.614 137.621C193.841 137.167 193.955 136.69 193.955 136.191C193.955 135.832 193.885 135.524 193.746 135.267C193.709 135.194 193.68 135.157 193.658 135.157C193.629 135.157 193.588 135.183 193.537 135.234C193.383 135.381 193.251 135.542 193.141 135.718C192.782 136.268 192.51 136.848 192.327 137.456C192.21 137.801 192.129 138.153 192.085 138.512C192.085 138.703 192.089 138.846 192.096 138.941C192.125 139.103 192.221 139.22 192.382 139.293L193.086 139.612C194.787 140.324 195.638 141.163 195.638 142.131C195.638 142.344 195.601 142.56 195.528 142.78C195.367 143.25 195.106 143.675 194.747 144.056C194.146 144.687 193.544 145.131 192.943 145.387C192.672 145.505 192.411 145.563 192.162 145.563ZM197.804 140.261C198.09 139.946 198.266 139.579 198.332 139.161C198.112 139.418 197.936 139.785 197.804 140.261ZM197.738 143.748H197.661C197.389 143.748 197.118 143.646 196.847 143.44C196.48 143.125 196.256 142.725 196.176 142.241C196.139 142.073 196.121 141.908 196.121 141.746C196.135 140.764 196.484 139.829 197.166 138.941C197.378 138.648 197.65 138.439 197.98 138.314C198.075 138.285 198.167 138.27 198.255 138.27C198.416 138.27 198.566 138.325 198.706 138.435C198.904 138.582 199.003 138.791 199.003 139.062C199.003 139.187 198.988 139.304 198.959 139.414C198.827 139.979 198.57 140.478 198.189 140.91C198.035 141.108 197.84 141.251 197.606 141.339C197.503 141.369 197.452 141.589 197.452 141.999C197.452 142.256 197.477 142.509 197.529 142.758C197.551 142.854 197.584 142.901 197.628 142.901C197.657 142.901 197.697 142.887 197.749 142.857C197.888 142.791 198.016 142.703 198.134 142.593C198.706 142.065 199.208 141.471 199.641 140.811C199.707 140.709 199.78 140.657 199.861 140.657C199.971 140.657 200.07 140.694 200.158 140.767C200.253 140.841 200.301 140.914 200.301 140.987C200.301 141.024 200.286 141.072 200.257 141.13L200.246 141.141C199.967 141.706 199.41 142.432 198.574 143.319C198.324 143.583 198.046 143.726 197.738 143.748ZM202.63 144.342C202.601 144.342 202.509 144.331 202.355 144.309C202.208 144.295 202.058 144.192 201.904 144.001C201.64 143.664 201.497 143.217 201.475 142.659L201.464 142.274C201.464 141.541 201.541 140.811 201.695 140.085L201.673 140.019C201.622 140.056 201.57 140.111 201.519 140.184C201.211 140.595 200.943 141.028 200.716 141.482C200.672 141.585 200.639 141.688 200.617 141.79C200.536 142.106 200.434 142.417 200.309 142.725C200.236 142.909 200.107 143 199.924 143C199.491 143 199.257 142.795 199.22 142.384V142.186C199.22 141.424 199.374 140.683 199.682 139.964C199.836 139.598 200.056 139.414 200.342 139.414C200.54 139.414 200.723 139.513 200.892 139.711C200.899 139.726 200.907 139.744 200.914 139.766C200.929 139.781 200.94 139.796 200.947 139.81C200.962 139.825 200.984 139.84 201.013 139.854L201.145 139.667C201.57 139.088 201.911 138.798 202.168 138.798C202.212 138.798 202.289 138.817 202.399 138.853C202.516 138.883 202.612 139.011 202.685 139.238C202.714 139.334 202.729 139.433 202.729 139.535C202.729 139.689 202.725 139.843 202.718 139.997C202.689 140.239 202.674 140.775 202.674 141.603C202.674 142.549 202.7 143.14 202.751 143.374C202.795 143.374 202.832 143.345 202.861 143.286C203.037 142.993 203.184 142.685 203.301 142.362L203.873 140.855C203.917 140.716 203.994 140.646 204.104 140.646C204.141 140.646 204.181 140.654 204.225 140.668C204.379 140.712 204.456 140.804 204.456 140.943C204.456 140.98 204.419 141.108 204.346 141.328C204.053 142.179 203.77 142.92 203.499 143.55C203.257 144.078 202.967 144.342 202.63 144.342ZM207.95 138.666C208.684 137.684 209.153 136.789 209.358 135.982C208.94 136.62 208.643 137.093 208.467 137.401C208.24 137.797 208.068 138.219 207.95 138.666ZM204.914 142.164C204.951 142.157 205.032 142.073 205.156 141.911C205.457 141.515 205.725 141.189 205.959 140.932C205.996 140.896 206.04 140.632 206.091 140.14C205.798 140.302 205.538 140.588 205.31 140.998C205.083 141.402 204.951 141.79 204.914 142.164ZM207.598 144.496C207.32 144.496 207.067 144.401 206.839 144.21C206.399 143.822 206.135 143.268 206.047 142.549L205.97 141.966C205.934 141.988 205.901 142.021 205.871 142.065C205.739 142.263 205.567 142.487 205.354 142.736C205.068 143.066 204.779 143.231 204.485 143.231C204.119 143.231 203.84 143.066 203.649 142.736C203.547 142.531 203.495 142.3 203.495 142.043C203.495 141.801 203.536 141.563 203.616 141.328C203.763 140.874 203.987 140.456 204.287 140.074C204.603 139.671 204.951 139.469 205.332 139.469C205.45 139.469 205.571 139.488 205.695 139.524L206.157 139.667C206.187 139.638 206.209 139.598 206.223 139.546V139.502C206.531 138.248 207.037 137.082 207.741 136.004C208.013 135.579 208.361 135.227 208.786 134.948C209.006 134.809 209.204 134.739 209.38 134.739C209.49 134.739 209.604 134.772 209.721 134.838C209.912 134.948 210.007 135.165 210.007 135.487C210.007 135.612 209.989 135.737 209.952 135.861C209.835 136.404 209.644 136.921 209.38 137.412C208.904 138.358 208.332 139.242 207.664 140.063C207.613 140.115 207.576 140.181 207.554 140.261C207.481 140.665 207.444 141.072 207.444 141.482C207.444 141.717 207.455 141.952 207.477 142.186C207.514 142.663 207.664 143.114 207.928 143.539C208.06 143.393 208.214 143.147 208.39 142.802C208.779 141.996 209.025 141.332 209.127 140.811C209.149 140.701 209.215 140.646 209.325 140.646C209.553 140.646 209.666 140.749 209.666 140.954C209.666 141.138 209.575 141.504 209.391 142.054C209.032 143.147 208.687 143.855 208.357 144.177C208.152 144.39 207.899 144.496 207.598 144.496Z" fill="white"/>
<path d="M106.48 73.0433C105.504 73.0433 104.632 72.7793 103.864 72.2513C102.712 71.4193 101.904 70.3313 101.44 68.9873C100.864 67.3073 100.576 65.3393 100.576 63.0833C100.576 60.2993 101.096 57.5873 102.136 54.9473C102.632 53.6033 103.376 52.4193 104.368 51.3953C105.408 50.3073 106.456 49.7633 107.512 49.7633C108.856 49.7633 109.848 50.3713 110.488 51.5873C110.792 52.1313 110.944 52.5873 110.944 52.9553C110.944 53.3393 110.752 53.5313 110.368 53.5313C109.84 53.5313 109.424 53.2833 109.12 52.7873L108.592 51.9473C108.064 52.3633 107.656 52.8433 107.368 53.3873C106.536 54.8273 105.928 56.3553 105.544 57.9713C105 60.0993 104.728 62.2193 104.728 64.3313C104.728 67.3073 105.208 69.4753 106.168 70.8353C106.28 70.9953 106.368 71.0753 106.432 71.0753C106.496 71.0753 106.592 71.0353 106.72 70.9553C107.664 70.3953 109.464 67.9873 112.12 63.7313L112.504 63.1313C112.76 62.7953 113.088 62.6273 113.488 62.6273C113.856 62.6273 114.168 62.7713 114.424 63.0593C114.536 63.1713 114.592 63.2753 114.592 63.3713C114.592 63.4833 114.552 63.6113 114.472 63.7553C114.392 63.8833 114.312 64.0193 114.232 64.1633C113.032 66.2593 111.744 68.3313 110.368 70.3793C109.232 72.1393 107.936 73.0273 106.48 73.0433ZM115.596 67.5473C115.628 67.5473 115.644 67.5393 115.644 67.5233C116.076 66.9313 116.42 66.0753 116.676 64.9553C116.676 64.8913 116.636 64.8433 116.556 64.8113C116.14 64.6193 115.716 64.3633 115.284 64.0433C115.204 64.4753 115.164 64.9073 115.164 65.3393C115.164 66.1073 115.292 66.8433 115.548 67.5473H115.596ZM116.964 63.3233C117.06 62.8593 117.108 62.3153 117.108 61.6913C117.108 60.0433 116.86 58.8673 116.364 58.1633C116.252 58.0193 116.148 57.9473 116.052 57.9473C115.972 57.9473 115.868 58.0033 115.74 58.1153C115.276 58.5793 115.044 59.2433 115.044 60.1073C115.044 61.5473 115.684 62.6193 116.964 63.3233ZM115.428 70.0673C114.484 70.0673 113.7 69.8033 113.076 69.2753C112.18 68.4913 111.732 67.3713 111.732 65.9153C111.732 65.1313 111.892 64.3713 112.212 63.6353C112.436 63.0113 112.82 62.5233 113.364 62.1713C113.492 62.0913 113.556 62.0033 113.556 61.9073C113.556 61.8593 113.54 61.8033 113.508 61.7393C113.316 61.2113 113.22 60.6673 113.22 60.1073C113.22 59.0993 113.508 58.2673 114.084 57.6113C114.564 57.0993 115.068 56.8433 115.596 56.8433H116.028C116.3 56.8593 116.644 57.0273 117.06 57.3473C118.228 58.4513 118.828 60.3153 118.86 62.9393L118.908 63.7073C119.484 63.4673 119.948 63.2593 120.3 63.0833C120.668 62.9073 120.9 62.7953 120.996 62.7473C121.108 62.6833 121.22 62.6513 121.332 62.6513H121.524C121.684 62.6513 121.844 62.6993 122.004 62.7953C122.18 62.8753 122.268 63.0193 122.268 63.2273C122.268 63.4993 122.148 63.7393 121.908 63.9473C121.364 64.4433 120.444 64.8433 119.148 65.1473C118.908 65.1953 118.78 65.3393 118.764 65.5793C118.54 68.5713 117.428 70.0673 115.428 70.0673ZM132.817 69.2993C132.225 69.2993 131.761 69.0353 131.425 68.5073C130.865 67.4993 130.585 66.1153 130.585 64.3553C130.585 63.6353 130.641 62.9153 130.753 62.1953C130.993 60.1153 131.113 58.9793 131.113 58.7873C131.113 58.7233 131.097 58.6433 131.065 58.5473C130.905 58.6913 130.785 58.8433 130.705 59.0033C130.033 60.0113 129.345 62.0593 128.641 65.1473L128.329 66.4673C128.265 66.7393 128.153 66.9393 127.993 67.0673C127.849 67.1953 127.593 67.2593 127.225 67.2593C126.361 67.2593 125.857 66.8193 125.713 65.9393C125.633 65.3313 125.593 64.7153 125.593 64.0913C125.593 63.4353 125.665 62.1473 125.809 60.2273C125.681 60.2753 125.577 60.3793 125.497 60.5393C124.601 62.1233 123.953 64.1153 123.553 66.5153C123.457 67.1553 123.097 67.4753 122.473 67.4753C121.577 67.4753 121.057 67.0673 120.913 66.2513C120.833 65.7713 120.793 65.2913 120.793 64.8113C120.793 62.8433 121.177 61.8593 121.945 61.8593C122.249 61.8593 122.641 62.0033 123.121 62.2913L123.337 61.8593C123.849 60.5313 124.585 59.3233 125.545 58.2353C125.881 57.8193 126.209 57.6113 126.529 57.6113C127.217 57.6593 127.681 57.9873 127.921 58.5953C128.081 59.0593 128.201 59.8193 128.281 60.8753C128.393 60.7953 128.473 60.6833 128.521 60.5393C128.761 59.8193 129.121 59.0273 129.601 58.1633C130.209 57.1393 130.761 56.6273 131.257 56.6273C131.417 56.6273 131.585 56.6673 131.761 56.7473C132.161 56.9233 132.449 57.2033 132.625 57.5873C132.913 58.1953 133.057 58.8513 133.057 59.5553L133.081 60.6833L133.033 62.8433C133.001 63.8353 132.985 64.5393 132.985 64.9553C132.985 65.9313 133.073 66.7713 133.249 67.4753C133.457 67.3953 134.209 65.8913 135.505 62.9633C135.601 62.6913 135.825 62.5553 136.177 62.5553C136.433 62.5553 136.633 62.6593 136.777 62.8673C136.825 62.9473 136.849 63.0193 136.849 63.0833C136.849 63.1793 136.753 63.4353 136.561 63.8513C135.537 66.2833 134.881 67.7553 134.593 68.2673C134.241 68.9553 133.649 69.2993 132.817 69.2993ZM147.161 69.2993C146.569 69.2993 146.105 69.0353 145.769 68.5073C145.209 67.4993 144.929 66.1153 144.929 64.3553C144.929 63.6353 144.985 62.9153 145.097 62.1953C145.337 60.1153 145.457 58.9793 145.457 58.7873C145.457 58.7233 145.441 58.6433 145.409 58.5473C145.249 58.6913 145.129 58.8433 145.049 59.0033C144.377 60.0113 143.689 62.0593 142.985 65.1473L142.673 66.4673C142.609 66.7393 142.497 66.9393 142.337 67.0673C142.193 67.1953 141.937 67.2593 141.569 67.2593C140.705 67.2593 140.201 66.8193 140.057 65.9393C139.977 65.3313 139.937 64.7153 139.937 64.0913C139.937 63.4353 140.009 62.1473 140.153 60.2273C140.025 60.2753 139.921 60.3793 139.841 60.5393C138.945 62.1233 138.297 64.1153 137.897 66.5153C137.801 67.1553 137.441 67.4753 136.817 67.4753C135.921 67.4753 135.401 67.0673 135.257 66.2513C135.177 65.7713 135.137 65.2913 135.137 64.8113C135.137 62.8433 135.521 61.8593 136.289 61.8593C136.593 61.8593 136.985 62.0033 137.465 62.2913L137.681 61.8593C138.193 60.5313 138.929 59.3233 139.889 58.2353C140.225 57.8193 140.553 57.6113 140.873 57.6113C141.561 57.6593 142.025 57.9873 142.265 58.5953C142.425 59.0593 142.545 59.8193 142.625 60.8753C142.737 60.7953 142.817 60.6833 142.865 60.5393C143.105 59.8193 143.465 59.0273 143.945 58.1633C144.553 57.1393 145.105 56.6273 145.601 56.6273C145.761 56.6273 145.929 56.6673 146.105 56.7473C146.505 56.9233 146.793 57.2033 146.969 57.5873C147.257 58.1953 147.401 58.8513 147.401 59.5553L147.425 60.6833L147.377 62.8433C147.345 63.8353 147.329 64.5393 147.329 64.9553C147.329 65.9313 147.417 66.7713 147.593 67.4753C147.801 67.3953 148.553 65.8913 149.849 62.9633C149.945 62.6913 150.169 62.5553 150.521 62.5553C150.777 62.5553 150.977 62.6593 151.121 62.8673C151.169 62.9473 151.193 63.0193 151.193 63.0833C151.193 63.1793 151.097 63.4353 150.905 63.8513C149.881 66.2833 149.225 67.7553 148.937 68.2673C148.585 68.9553 147.993 69.2993 147.161 69.2993ZM153.153 61.8353C153.777 61.1473 154.161 60.3473 154.305 59.4353C153.825 59.9953 153.441 60.7953 153.153 61.8353ZM153.009 69.4433H152.841C152.249 69.4433 151.657 69.2193 151.065 68.7713C150.265 68.0833 149.777 67.2113 149.601 66.1553C149.521 65.7873 149.481 65.4273 149.481 65.0753C149.513 62.9313 150.273 60.8913 151.761 58.9553C152.225 58.3153 152.817 57.8593 153.537 57.5873C153.745 57.5233 153.945 57.4913 154.137 57.4913C154.489 57.4913 154.817 57.6113 155.121 57.8513C155.553 58.1713 155.769 58.6273 155.769 59.2193C155.769 59.4913 155.737 59.7473 155.673 59.9873C155.385 61.2193 154.825 62.3073 153.993 63.2513C153.657 63.6833 153.233 63.9953 152.721 64.1873C152.497 64.2513 152.385 64.7313 152.385 65.6273C152.385 66.1873 152.441 66.7393 152.553 67.2833C152.601 67.4913 152.673 67.5953 152.769 67.5953C152.833 67.5953 152.921 67.5633 153.033 67.4993C153.337 67.3553 153.617 67.1633 153.873 66.9233C155.121 65.7713 156.217 64.4753 157.161 63.0353C157.305 62.8113 157.465 62.6993 157.641 62.6993C157.881 62.6993 158.097 62.7793 158.289 62.9393C158.497 63.0993 158.601 63.2593 158.601 63.4193C158.601 63.4993 158.569 63.6033 158.505 63.7313L158.481 63.7553C157.873 64.9873 156.657 66.5713 154.833 68.5073C154.289 69.0833 153.681 69.3953 153.009 69.4433ZM163.683 70.7393C163.619 70.7393 163.419 70.7153 163.083 70.6673C162.763 70.6353 162.435 70.4113 162.099 69.9953C161.523 69.2593 161.211 68.2833 161.163 67.0673L161.139 66.2273C161.139 64.6273 161.307 63.0353 161.643 61.4513L161.595 61.3073C161.483 61.3873 161.371 61.5073 161.259 61.6673C160.587 62.5633 160.003 63.5073 159.507 64.4993C159.411 64.7233 159.339 64.9473 159.291 65.1713C159.115 65.8593 158.891 66.5393 158.619 67.2113C158.459 67.6113 158.179 67.8113 157.779 67.8113C156.835 67.8113 156.323 67.3633 156.243 66.4673V66.0353C156.243 64.3713 156.579 62.7553 157.251 61.1873C157.587 60.3873 158.067 59.9873 158.691 59.9873C159.123 59.9873 159.523 60.2033 159.891 60.6353C159.907 60.6673 159.923 60.7073 159.939 60.7553C159.971 60.7873 159.995 60.8193 160.011 60.8513C160.043 60.8833 160.091 60.9153 160.155 60.9473L160.443 60.5393C161.371 59.2753 162.115 58.6433 162.675 58.6433C162.771 58.6433 162.939 58.6833 163.179 58.7633C163.435 58.8273 163.643 59.1073 163.803 59.6033C163.867 59.8113 163.899 60.0273 163.899 60.2513C163.899 60.5873 163.891 60.9233 163.875 61.2593C163.811 61.7873 163.779 62.9553 163.779 64.7633C163.779 66.8273 163.835 68.1153 163.947 68.6273C164.043 68.6273 164.123 68.5633 164.187 68.4353C164.571 67.7953 164.891 67.1233 165.147 66.4193L166.395 63.1313C166.491 62.8273 166.659 62.6753 166.899 62.6753C166.979 62.6753 167.067 62.6913 167.163 62.7233C167.499 62.8193 167.667 63.0193 167.667 63.3233C167.667 63.4033 167.587 63.6833 167.427 64.1633C166.787 66.0193 166.171 67.6353 165.579 69.0113C165.051 70.1633 164.419 70.7393 163.683 70.7393ZM169.723 59.6513C170.091 59.2513 170.371 58.6913 170.563 57.9713L170.491 57.9473C170.155 57.9473 169.979 58.0273 169.963 58.1873L169.723 59.6513ZM171.139 55.8113C171.331 55.8113 171.443 55.7233 171.475 55.5473C171.811 54.2833 171.979 53.4513 171.979 53.0513C171.979 52.8273 171.955 52.6033 171.907 52.3793C171.475 53.0513 171.019 54.1793 170.539 55.7633C170.635 55.7953 170.739 55.8113 170.851 55.8113C170.979 55.8113 171.075 55.8113 171.139 55.8113ZM170.755 70.6673C169.539 70.6673 168.547 70.1633 167.779 69.1553C167.027 68.1473 166.587 67.0273 166.459 65.7953C166.395 65.1713 166.363 64.5473 166.363 63.9233C166.363 62.2753 166.579 60.4513 167.011 58.4513C167.011 58.3713 166.963 58.3313 166.867 58.3313L166.411 58.3553C166.091 58.3553 165.843 58.2273 165.667 57.9713C165.475 57.6993 165.379 57.3873 165.379 57.0353C165.379 56.5713 165.627 56.2913 166.123 56.1953C166.507 56.0673 166.891 55.9873 167.275 55.9553C167.547 55.9553 167.723 55.8273 167.803 55.5713C168.443 53.9073 169.155 52.5793 169.939 51.5873C170.451 50.9633 170.979 50.6513 171.523 50.6513C171.779 50.6513 172.043 50.7313 172.315 50.8913C173.019 51.3073 173.395 51.9233 173.443 52.7393L173.467 53.0753C173.467 53.7953 173.371 54.4913 173.179 55.1633C173.083 55.4513 173.035 55.6753 173.035 55.8353L173.779 55.8833C174.403 55.8833 175.059 55.9873 175.747 56.1953C176.275 56.4193 176.547 56.8273 176.563 57.4193C176.547 57.8033 176.387 57.9953 176.083 57.9953L175.867 57.9713C175.499 57.8913 175.131 57.8513 174.763 57.8513H172.555C172.315 57.8513 172.155 57.9793 172.075 58.2353C171.547 59.5473 170.875 60.7873 170.059 61.9553C169.979 62.0993 169.867 62.2433 169.723 62.3873C169.467 62.6593 169.339 62.9953 169.339 63.3953C169.291 64.1633 169.267 64.6513 169.267 64.8593C169.267 66.4113 169.507 67.6113 169.987 68.4593C170.291 68.9073 170.499 69.1313 170.611 69.1313C170.979 69.1313 171.803 67.5553 173.083 64.4033L173.635 63.1553C173.795 62.8193 174.019 62.6513 174.307 62.6513C174.435 62.6513 174.587 62.6913 174.763 62.7713C174.955 62.8513 175.051 62.9713 175.051 63.1313C175.051 63.3233 174.667 64.3953 173.899 66.3473C173.435 67.5793 173.035 68.5713 172.699 69.3233C172.315 70.2193 171.667 70.6673 170.755 70.6673ZM176.436 71.2193C176.852 70.9473 177.236 70.4593 177.588 69.7553C177.956 69.0673 178.14 68.2993 178.14 67.4513C177.212 68.9393 176.644 70.1953 176.436 71.2193ZM176.508 73.2113C176.252 73.2113 175.98 73.1713 175.692 73.0913C174.892 72.8513 174.492 72.3393 174.492 71.5553C174.492 70.4993 175.364 68.7153 177.108 66.2033L177.18 66.1073C177.26 66.0113 177.332 65.8913 177.396 65.7473C177.252 65.6673 177.092 65.6273 176.916 65.6273C176.484 65.6273 175.988 65.5313 175.428 65.3393C174.132 64.8913 173.484 63.9233 173.484 62.4353C173.484 61.0273 173.916 59.7713 174.78 58.6673C175.356 57.9793 176.02 57.6353 176.772 57.6353C177.268 57.6353 177.748 57.7713 178.212 58.0433C178.692 58.2993 179.052 58.6513 179.292 59.0993C179.404 59.2913 179.46 59.4593 179.46 59.6033C179.46 59.9073 179.284 60.0593 178.932 60.0593C178.58 60.0593 178.252 59.8673 177.948 59.4833C177.74 59.7073 177.604 59.9393 177.54 60.1793C177.044 61.4113 176.796 62.5713 176.796 63.6593C176.796 63.7233 176.812 63.7793 176.844 63.8273C176.876 63.8593 177.18 63.9393 177.756 64.0673C178.22 64.1793 178.476 64.2353 178.524 64.2353C178.636 64.2353 178.724 64.1873 178.788 64.0913C179.7 63.1313 180.476 62.6513 181.116 62.6513C181.34 62.6513 181.548 62.7233 181.74 62.8673C181.932 62.9953 182.028 63.1233 182.028 63.2513C182.028 63.3793 181.924 63.4913 181.716 63.5873C181.108 63.8753 180.596 64.2753 180.18 64.7873C180.052 64.9153 179.988 65.0113 179.988 65.0753C179.988 65.1233 180.044 65.2033 180.156 65.3153C180.636 65.8753 180.876 66.5073 180.876 67.2113L180.852 67.6433C180.692 69.0193 180.212 70.2833 179.412 71.4353C179.012 72.0113 178.508 72.4753 177.9 72.8273C177.452 73.0833 176.988 73.2113 176.508 73.2113Z" fill="black"/>
</g>
</svg>
