<svg width="18" height="18" viewBox="0 0 18 18" fill="none" xmlns="http://www.w3.org/2000/svg">
<mask id="mask0" mask-type="alpha" maskUnits="userSpaceOnUse" x="6" y="12" width="5" height="6">
<path d="M10.3438 15.2403C10.3438 16.1951 9.53564 17 8.5 17C7.46436 17 6.65625 16.1951 6.65625 15.2403C6.65625 14.2855 7.46436 13.4806 8.5 13.4806C9.53564 13.4806 10.3438 14.2855 10.3438 15.2403Z" stroke="#656565"/>
</mask>
<g mask="url(#mask0)">
<rect x="4.20215" y="15.6395" width="9.375" height="4.51941" fill="#656565"/>
</g>
<path fill-rule="evenodd" clip-rule="evenodd" d="M6.71289 2.18451C6.71289 1.23988 7.52533 0.5 8.5 0.5C9.47467 0.5 10.2871 1.23988 10.2871 2.18451V2.39543C12.8256 3.12653 14.2422 5.36587 14.2422 7.93649V11.8538L16 13.4972V14.9621H1V13.4972L2.75781 11.8538V7.93649C2.75781 5.35813 4.16636 3.12527 6.71289 2.39507V2.18451ZM8.5 1.40388C8.01569 1.40388 7.65039 1.7651 7.65039 2.18451V3.10315L7.2866 3.18374C5.01751 3.68638 3.69531 5.57339 3.69531 7.93649V12.2363L1.9375 13.8798V14.0582H15.0625V13.8798L13.3047 12.2363V7.93649C13.3047 5.582 11.974 3.68624 9.71305 3.18366L9.34961 3.10287V2.18451C9.34961 1.7651 8.98431 1.40388 8.5 1.40388Z" fill="#656565" stroke="#656565" stroke-width="0.2"/>
</svg>
