<svg width="13" height="13" viewBox="0 0 13 13" fill="#242424" xmlns="http://www.w3.org/2000/svg">
<path fill-rule="evenodd" clip-rule="evenodd" d="M10.9825 1.18182L4.30944 7.85489C4.07867 8.08566 4.07867 8.4598 4.30944 8.69056C4.5402 8.92133 4.91435 8.92133 5.14511 8.69056L11.8182 2.01749V5.90909C11.8182 6.23544 12.0827 6.5 12.4091 6.5C12.7354 6.5 13 6.23544 13 5.90909V0.592829C13 0.591549 13 0.590269 13 0.588989V0H12.4092C12.4091 0 12.4091 0 12.409 0H7.09091C6.76456 0 6.5 0.264559 6.5 0.590909C6.5 0.917259 6.76456 1.18182 7.09091 1.18182H10.9825ZM0 2.36364H7.09091C7.41726 2.36364 7.68182 2.6282 7.68182 2.95455C7.68182 3.2809 7.41726 3.54546 7.09091 3.54546H1.18182V11.8182H9.45455V6.50001C9.45455 6.17366 9.7191 5.9091 10.0455 5.9091C10.3718 5.9091 10.6364 6.17366 10.6364 6.50001V13H0V2.36364Z"/>
</svg>
