<svg width="48" height="48" viewBox="0 0 48 48" fill="none" xmlns="http://www.w3.org/2000/svg">
<rect width="48" height="48" rx="8" fill="#FDECEB"/>
<path d="M24 24.25C26.6234 24.25 28.75 22.1234 28.75 19.5C28.75 16.8766 26.6234 14.75 24 14.75C21.3766 14.75 19.25 16.8766 19.25 19.5C19.25 22.1234 21.3766 24.25 24 24.25Z" fill="white" stroke="#FF5A5A" stroke-width="1.5" stroke-linecap="round" stroke-linejoin="round"/>
<mask id="path-3-inside-1" fill="white">
<path d="M14.9052 32.2491C15.8272 30.6531 17.1531 29.3278 18.7495 28.4064C20.346 27.485 22.1568 27 24 27C25.8433 27 27.6541 27.4851 29.2505 28.4065C30.8469 29.3279 32.1728 30.6533 33.0948 32.2493"/>
</mask>
<path d="M14.9052 32.2491C15.8272 30.6531 17.1531 29.3278 18.7495 28.4064C20.346 27.485 22.1568 27 24 27C25.8433 27 27.6541 27.4851 29.2505 28.4065C30.8469 29.3279 32.1728 30.6533 33.0948 32.2493" fill="white"/>
<path d="M13.6063 31.4987C13.1919 32.2161 13.4375 33.1335 14.1548 33.5479C14.8721 33.9624 15.7896 33.7168 16.204 32.9995L13.6063 31.4987ZM31.796 32.9997C32.2104 33.717 33.1278 33.9626 33.8452 33.5481C34.5625 33.1337 34.8081 32.2163 34.3937 31.499L31.796 32.9997ZM16.204 32.9995C16.9944 31.6314 18.1309 30.4954 19.4993 29.7056L17.9997 27.1073C16.1753 28.1602 14.6601 29.6748 13.6063 31.4987L16.204 32.9995ZM19.4993 29.7056C20.8678 28.9158 22.42 28.5 24 28.5L24.0001 25.5C21.8936 25.5 19.8242 26.0543 17.9997 27.1073L19.4993 29.7056ZM24 28.5C25.58 28.5 27.1322 28.9158 28.5007 29.7057L30.0003 27.1074C28.1759 26.0544 26.1065 25.5 24.0001 25.5L24 28.5ZM28.5007 29.7057C29.8691 30.4955 31.0056 31.6315 31.796 32.9997L34.3937 31.499C33.3399 29.675 31.8247 28.1604 30.0003 27.1074L28.5007 29.7057Z" fill="#FF5A5A" mask="url(#path-3-inside-1)"/>
</svg>
