<svg xmlns="http://www.w3.org/2000/svg" width="70" height="70" viewBox="0 0 70 70">
    <g fill="none" fill-rule="nonzero">
        <circle cx="35" cy="35" r="35" fill="#FF5A5A"/>
        <g stroke="#FFF" stroke-width="1.2" transform="translate(12 18)">
            <path d="M7.32 35.4h35.048c1.676 0 3.032-1.344 3.032-3V3.6c0-1.656-1.356-3-3.032-3H12.105c-1.675 0-3.031 1.344-3.031 3v29.592L7.32 35.4z"/>
            <path d="M9.084 15H2.4a1.8 1.8 0 0 0-1.8 1.8v16.8a1.8 1.8 0 0 0 1.8 1.8h4.884a1.8 1.8 0 0 0 1.8-1.8V15z"/>
            <rect width="10.905" height="10.8" x="16.337" y="7.8" rx="2.4"/>
            <path d="M31.474 9H40.5M15.737 24h24.42M31.474 13.8H40.5M15.737 28.8h24.42M31.474 18.6H40.5"/>
        </g>
    </g>
</svg>
