<svg width="12" height="12" viewBox="0 0 12 12" fill="none" xmlns="http://www.w3.org/2000/svg">
<path d="M6 6.875V6.5C6.29667 6.5 6.58668 6.41203 6.83336 6.24721C7.08003 6.08238 7.27229 5.84812 7.38582 5.57403C7.49935 5.29994 7.52906 4.99834 7.47118 4.70737C7.4133 4.41639 7.27044 4.14912 7.06066 3.93934C6.85088 3.72956 6.58361 3.5867 6.29264 3.52882C6.00166 3.47094 5.70006 3.50065 5.42598 3.61418C5.15189 3.72771 4.91762 3.91997 4.7528 4.16665C4.58797 4.41332 4.5 4.70333 4.5 5" stroke="#656565" stroke-linecap="round" stroke-linejoin="round"/>
<path d="M5.94995 9.2998C6.36416 9.2998 6.69995 8.96402 6.69995 8.5498C6.69995 8.13559 6.36416 7.7998 5.94995 7.7998C5.53574 7.7998 5.19995 8.13559 5.19995 8.5498C5.19995 8.96402 5.53574 9.2998 5.94995 9.2998Z" fill="#656565"/>
<path d="M6 11C8.76142 11 11 8.76142 11 6C11 3.23858 8.76142 1 6 1C3.23858 1 1 3.23858 1 6C1 8.76142 3.23858 11 6 11Z" stroke="#656565" stroke-width="0.9" stroke-linecap="round" stroke-linejoin="round"/>
</svg>
