<svg width="18" height="18" viewBox="0 0 18 18" fill="none" xmlns="http://www.w3.org/2000/svg">
<path d="M9 18C13.9706 18 18 13.9706 18 9C18 4.02944 13.9706 0 9 0C4.02944 0 0 4.02944 0 9C0 13.9706 4.02944 18 9 18Z" fill="#FF5A5A"/>
<path d="M8.60547 10.1846L8.60547 8.60562" stroke="white" stroke-width="0.690789"/>
<path d="M10.9736 10.1846L10.9736 6.30338" stroke="white" stroke-width="0.690789"/>
<path d="M9.75684 10.1846L9.75684 7.45469" stroke="white" stroke-width="0.690789"/>
<path d="M6.63158 6.89474V4.63158C6.63158 4.28277 6.91435 4 7.26316 4H12.5789C12.9278 4 13.2105 4.28277 13.2105 4.63158V12.1053C13.2105 13.1517 12.3622 14 11.3158 14H6.63158M6.63158 6.89474H4.63158C4.28277 6.89474 4 7.1775 4 7.52632V12.1053C4 13.1517 4.8483 14 5.89474 14H6.63158M6.63158 6.89474V14" stroke="white" stroke-width="1.1"/>
</svg>
