<svg width="17" height="17" viewBox="0 0 17 17" fill="none" xmlns="http://www.w3.org/2000/svg">
<path fill-rule="evenodd" clip-rule="evenodd" d="M16.8514 3.23667L16.304 3.183C16.8514 3.23667 16.8514 3.23683 16.8514 3.23701L16.8513 3.23747L16.8512 3.23868L16.8508 3.24237L16.8496 3.2547L16.8446 3.29855C16.8403 3.3361 16.8337 3.39003 16.8243 3.45862C16.8056 3.59573 16.776 3.79172 16.7317 4.03267C16.6433 4.51382 16.4958 5.17821 16.2587 5.91325C15.7898 7.36657 14.9457 9.17407 13.4407 10.3442C11.9671 11.4899 10.2974 11.9748 9.01528 12.1767C8.37164 12.2781 7.81777 12.3095 7.42277 12.3155C7.4047 12.3157 7.38695 12.316 7.36953 12.3161V14.1629C7.36953 14.376 7.24635 14.57 7.05342 14.6607C6.86048 14.7513 6.63254 14.7223 6.46845 14.5862L0.978458 10.0336C0.853337 9.92983 0.78052 9.77604 0.779551 9.6135C0.778582 9.45096 0.84956 9.29631 0.973435 9.19107L6.46343 4.52686C6.62679 4.38807 6.8559 4.35683 7.05044 4.44683C7.24499 4.53683 7.36953 4.73165 7.36953 4.94601V6.99461C9.83571 6.73634 11.5447 6.37146 12.8188 5.78246C14.1633 5.1609 15.0518 4.27601 15.8256 2.91165C15.9538 2.68571 16.2226 2.58023 16.4702 2.65869C16.7178 2.73715 16.8768 2.97815 16.8514 3.23667ZM6.8655 11.2046L6.8699 11.2049L6.89395 11.2065C6.91637 11.2079 6.95135 11.2098 6.99785 11.2116C7.09087 11.2152 7.22975 11.2183 7.40619 11.2156C7.75952 11.2103 8.26072 11.182 8.84411 11.0901C10.016 10.9055 11.4881 10.469 12.7655 9.47577C14.0117 8.50688 14.768 6.9509 15.2118 5.57548C15.2233 5.53983 15.2346 5.50436 15.2456 5.46908C14.6892 5.99426 14.0476 6.42623 13.2804 6.78093C11.7265 7.4993 9.68742 7.88586 6.87075 8.14933C6.71665 8.16374 6.5636 8.11256 6.44917 8.00833C6.33475 7.90411 6.26953 7.7565 6.26953 7.60172V6.13498L2.18501 9.60512L6.26953 12.9923V11.7527C6.26953 11.5988 6.33398 11.452 6.44723 11.3478C6.56033 11.2438 6.71176 11.1919 6.86487 11.2045C6.86495 11.2045 6.86502 11.2045 6.8651 11.2046L6.86519 11.2046" fill="#656565"/>
</svg>
