<svg width="24" height="24" viewBox="0 0 24 24" fill="none" xmlns="http://www.w3.org/2000/svg">
<path d="M2.69527 15.8146C2.42443 15.935 2.24988 16.2036 2.24988 16.5C2.24988 16.7964 2.42443 17.065 2.69527 17.1854L11.6953 21.1854C11.8944 21.2738 12.1221 21.2714 12.3192 21.1786L20.8192 17.1786C21.0821 17.0549 21.2499 16.7905 21.2499 16.5C21.2499 16.2095 21.0821 15.9451 20.8192 15.8214L12.3192 11.8214C12.1221 11.7286 11.8944 11.7262 11.6953 11.8146L2.69527 15.8146Z" fill="white" stroke="#FF5A5A" stroke-width="1.5" stroke-linecap="round" stroke-linejoin="round"/>
<path d="M2.69527 11.3146C2.42443 11.435 2.24988 11.7036 2.24988 12C2.24988 12.2964 2.42443 12.565 2.69527 12.6854L11.6953 16.6854C11.8944 16.7738 12.1221 16.7714 12.3192 16.6786L20.8192 12.6786C21.0821 12.5549 21.2499 12.2905 21.2499 12C21.2499 11.7095 21.0821 11.4451 20.8192 11.3214L12.3192 7.32139C12.1221 7.22862 11.8944 7.22616 11.6953 7.31464L2.69527 11.3146Z" fill="white" stroke="#FF5A5A" stroke-width="1.5" stroke-linecap="round" stroke-linejoin="round"/>
<path d="M2.69527 6.31464C2.42443 6.43502 2.24988 6.70361 2.24988 7C2.24988 7.29639 2.42443 7.56498 2.69527 7.68536L11.6953 11.6854C11.8944 11.7738 12.1221 11.7714 12.3192 11.6786L20.8192 7.67861C21.0821 7.55491 21.2499 7.29052 21.2499 7C21.2499 6.70948 21.0821 6.44509 20.8192 6.32139L12.3192 2.32139C12.1221 2.22862 11.8944 2.22616 11.6953 2.31464L2.69527 6.31464Z" fill="white" stroke="#FF5A5A" stroke-width="1.5" stroke-linecap="round" stroke-linejoin="round"/>
</svg>
