<svg width="18" height="18" viewBox="0 0 18 18" fill="none" xmlns="http://www.w3.org/2000/svg">
<path d="M15.3604 1.94971L2.33599 5.62327C2.22642 5.65418 2.12889 5.71779 2.05644 5.80561C1.98399 5.89342 1.94007 6.00126 1.93055 6.11471C1.92103 6.22816 1.94636 6.34181 2.00316 6.44048C2.05996 6.53914 2.14552 6.61812 2.24841 6.66686L8.23267 9.50151C8.34938 9.55679 8.44337 9.65078 8.49865 9.76749L11.3333 15.7518C11.382 15.8546 11.461 15.9402 11.5597 15.997C11.6583 16.0538 11.772 16.0791 11.8854 16.0696C11.9989 16.0601 12.1067 16.0162 12.1946 15.9437C12.2824 15.8713 12.346 15.7737 12.3769 15.6642L16.0504 2.63972C16.0774 2.54405 16.0784 2.44291 16.0533 2.34673C16.0282 2.25054 15.9779 2.16279 15.9077 2.0925C15.8374 2.02221 15.7496 1.97193 15.6534 1.94683C15.5572 1.92173 15.4561 1.92272 15.3604 1.94971Z" stroke="black" stroke-opacity="0.3" stroke-width="1.28571" stroke-linecap="round" stroke-linejoin="round"/>
<path d="M8.62488 9.375L11.2499 6.75" stroke="black" stroke-opacity="0.3" stroke-width="1.28571" stroke-linecap="round" stroke-linejoin="round"/>
</svg>