<svg width="24" height="24" viewBox="0 0 24 24" fill="none" xmlns="http://www.w3.org/2000/svg">
<path d="M12 21.25C17.1086 21.25 21.25 17.1086 21.25 12C21.25 6.89137 17.1086 2.75 12 2.75C6.89137 2.75 2.75 6.89137 2.75 12C2.75 17.1086 6.89137 21.25 12 21.25Z" stroke="#FF5A5A" stroke-width="1.5" stroke-linecap="round" stroke-linejoin="round"/>
<path d="M15.8979 14.2495C15.5026 14.9333 14.9343 15.5011 14.2501 15.8959C13.5659 16.2906 12.7899 16.4984 12 16.4984C11.2101 16.4984 10.4341 16.2906 9.74993 15.8959C9.06574 15.5012 8.49742 14.9334 8.10205 14.2496" stroke="#FF5A5A" stroke-width="1.5" stroke-linecap="round" stroke-linejoin="round"/>
<path d="M8.625 11.0625C9.14277 11.0625 9.5625 10.6428 9.5625 10.125C9.5625 9.60723 9.14277 9.1875 8.625 9.1875C8.10723 9.1875 7.6875 9.60723 7.6875 10.125C7.6875 10.6428 8.10723 11.0625 8.625 11.0625Z" fill="#FF5A5A"/>
<path d="M15.375 11.0625C15.8928 11.0625 16.3125 10.6428 16.3125 10.125C16.3125 9.60723 15.8928 9.1875 15.375 9.1875C14.8572 9.1875 14.4375 9.60723 14.4375 10.125C14.4375 10.6428 14.8572 11.0625 15.375 11.0625Z" fill="#FF5A5A"/>
</svg>
