<svg width="48" height="48" viewBox="0 0 48 48" fill="none" xmlns="http://www.w3.org/2000/svg">
<g clip-path="url(#clip0)">
<path d="M7.99544 16.0048C7.57237 16.0009 7.16798 15.83 6.87022 15.5295C6.57246 15.2289 6.40542 14.8229 6.40544 14.3998C6.40544 13.7695 6.28128 13.1453 6.04006 12.563C5.79884 11.9806 5.44527 11.4515 4.99955 11.0058C4.55383 10.56 4.02468 10.2065 3.44232 9.96525C2.85996 9.72403 2.23578 9.59988 1.60544 9.59988C1.38264 9.62149 1.15779 9.59626 0.945327 9.52581C0.732862 9.45537 0.537482 9.34126 0.371737 9.19082C0.205992 9.04037 0.0735489 8.85693 -0.0170855 8.65226C-0.10772 8.44759 -0.154541 8.22623 -0.154541 8.00239C-0.154541 7.77855 -0.10772 7.55719 -0.0170855 7.35252C0.0735489 7.14785 0.205992 6.9644 0.371737 6.81396C0.537482 6.66352 0.732862 6.54941 0.945327 6.47896C1.15779 6.40851 1.38264 6.38329 1.60544 6.4049C2.44545 6.40345 3.27028 6.18089 3.99701 5.75961C4.72373 5.33832 5.32675 4.73314 5.74544 4.00492C6.18086 3.28037 6.40915 2.45025 6.40544 1.60494C6.38382 1.38214 6.40905 1.15729 6.4795 0.944831C6.54995 0.732367 6.66406 0.536988 6.8145 0.371245C6.96494 0.205501 7.14839 0.0730588 7.35306 -0.0175749C7.55773 -0.108209 7.7791 -0.155029 8.00294 -0.155029C8.22678 -0.155029 8.44814 -0.108209 8.65281 -0.0175749C8.85748 0.0730588 9.04093 0.205501 9.19138 0.371245C9.34182 0.536988 9.45593 0.732367 9.52638 0.944831C9.59683 1.15729 9.62205 1.38214 9.60044 1.60494C9.59947 2.44516 9.82766 3.26973 10.2604 3.98992C10.4353 4.29189 10.5069 4.64261 10.4646 4.98896C10.4222 5.33531 10.2682 5.65842 10.0257 5.90936C9.78323 6.16029 9.4656 6.32537 9.12091 6.37961C8.77622 6.43384 8.42324 6.37426 8.11544 6.2099C7.63764 6.89171 7.05552 7.49407 6.39044 7.99489C6.99812 8.4519 7.53842 8.9922 7.99544 9.59988C8.74137 8.60627 9.70862 7.80019 10.8204 7.24559C11.9322 6.691 13.158 6.40315 14.4004 6.4049C14.6232 6.38329 14.8481 6.40851 15.0606 6.47896C15.273 6.54941 15.4684 6.66352 15.6341 6.81396C15.7999 6.9644 15.9323 7.14785 16.023 7.35252C16.1136 7.55719 16.1604 7.77855 16.1604 8.00239C16.1604 8.22623 16.1136 8.44759 16.023 8.65226C15.9323 8.85693 15.7999 9.04037 15.6341 9.19082C15.4684 9.34126 15.273 9.45537 15.0606 9.52581C14.8481 9.59626 14.6232 9.62149 14.4004 9.59988C13.1274 9.59988 11.9065 10.1056 11.0063 11.0058C10.1062 11.9059 9.60044 13.1268 9.60044 14.3998C9.60044 14.6106 9.55892 14.8193 9.47827 15.014C9.39761 15.2088 9.27938 15.3857 9.13035 15.5347C8.98131 15.6838 8.80437 15.802 8.60965 15.8827C8.41492 15.9633 8.20621 16.0048 7.99544 16.0048Z" fill="#242424"/>
<path d="M7.99518 48C7.56951 48 7.16127 47.8309 6.86027 47.5299C6.55928 47.2289 6.39018 46.8207 6.39018 46.395C6.39115 45.5548 6.16296 44.7302 5.73018 44.01C5.55936 43.7094 5.49018 43.3617 5.53293 43.0186C5.57569 42.6755 5.7281 42.3554 5.96747 42.1059C6.20685 41.8564 6.52039 41.6909 6.86143 41.6339C7.20247 41.577 7.55276 41.6318 7.86018 41.79C8.33798 41.1082 8.9201 40.5058 9.58518 40.005C8.9828 39.5469 8.4476 39.0067 7.99518 38.4C7.25081 39.3964 6.28426 40.2054 5.17236 40.7626C4.06047 41.3199 2.8339 41.61 1.59018 41.61C1.36739 41.6316 1.14253 41.6064 0.930068 41.536C0.717603 41.4655 0.522223 41.3514 0.356478 41.201C0.190734 41.0505 0.0582901 40.8671 -0.0323443 40.6624C-0.122979 40.4577 -0.1698 40.2364 -0.1698 40.0125C-0.1698 39.7887 -0.122979 39.5673 -0.0323443 39.3626C0.0582901 39.158 0.190734 38.9745 0.356478 38.8241C0.522223 38.6736 0.717603 38.5595 0.930068 38.4891C1.14253 38.4186 1.36739 38.3934 1.59018 38.415C2.22052 38.415 2.8447 38.2909 3.42706 38.0496C4.00942 37.8084 4.53857 37.4549 4.98429 37.0091C5.43001 36.5634 5.78358 36.0343 6.0248 35.4519C6.26602 34.8695 6.39018 34.2454 6.39018 33.615C6.36857 33.3922 6.39379 33.1674 6.46424 32.9549C6.53469 32.7424 6.6488 32.5471 6.79924 32.3813C6.94969 32.2156 7.13313 32.0831 7.3378 31.9925C7.54247 31.9019 7.76384 31.855 7.98768 31.855C8.21152 31.855 8.43288 31.9019 8.63756 31.9925C8.84223 32.0831 9.02567 32.2156 9.17612 32.3813C9.32656 32.5471 9.44067 32.7424 9.51112 32.9549C9.58157 33.1674 9.60679 33.3922 9.58518 33.615C9.58518 34.8881 10.0909 36.109 10.9911 37.0091C11.8912 37.9093 13.1121 38.415 14.3852 38.415C14.608 38.3934 14.8328 38.4186 15.0453 38.4891C15.2578 38.5595 15.4531 38.6736 15.6189 38.8241C15.7846 38.9745 15.9171 39.158 16.0077 39.3626C16.0983 39.5673 16.1452 39.7887 16.1452 40.0125C16.1452 40.2364 16.0983 40.4577 16.0077 40.6624C15.9171 40.8671 15.7846 41.0505 15.6189 41.201C15.4531 41.3514 15.2578 41.4655 15.0453 41.536C14.8328 41.6064 14.608 41.6316 14.3852 41.61C13.5452 41.6115 12.7203 41.834 11.9936 42.2553C11.2669 42.6766 10.6639 43.2818 10.2452 44.01C9.80976 44.7346 9.58147 45.5647 9.58518 46.41C9.58127 46.8305 9.41249 47.2327 9.11516 47.53C8.81782 47.8273 8.41566 47.9961 7.99518 48Z" fill="#242424"/>
<path d="M28.7994 43.2C28.3737 43.2 27.9655 43.0309 27.6645 42.7299C27.3635 42.4289 27.1944 42.0207 27.1944 41.595C27.1814 39.4221 26.728 37.2743 25.8618 35.2814C24.9956 33.2885 23.7344 31.4919 22.1544 30C21.8934 29.6996 21.7532 29.313 21.7612 28.9151C21.7692 28.5172 21.9247 28.1364 22.1976 27.8467C22.4704 27.557 22.8412 27.3791 23.2379 27.3473C23.6346 27.3156 24.029 27.4324 24.3444 27.675C26.2548 29.4551 27.7855 31.6032 28.8444 33.99C30.7685 29.5372 34.2971 25.971 38.7294 24C34.291 22.0528 30.7467 18.5084 28.7994 14.07C27.3043 17.4942 24.844 20.4086 21.7193 22.4572C18.5946 24.5057 14.9408 25.5995 11.2044 25.605C10.8074 25.5665 10.439 25.3816 10.171 25.0863C9.9029 24.7909 9.75439 24.4064 9.75439 24.0075C9.75439 23.6087 9.9029 23.2241 10.171 22.9288C10.439 22.6335 10.8074 22.4485 11.2044 22.41C15.4454 22.4021 19.5102 20.7128 22.5076 17.7126C25.505 14.7124 27.1905 10.646 27.1944 6.40504C27.2329 6.00806 27.4179 5.63964 27.7132 5.37158C28.0085 5.10352 28.3931 4.95502 28.7919 4.95502C29.1908 4.95502 29.5753 5.10352 29.8706 5.37158C30.166 5.63964 30.3509 6.00806 30.3894 6.40504C30.3974 10.646 32.0866 14.7108 35.0869 17.7082C38.0871 20.7056 42.1534 22.3911 46.3944 22.395C46.7914 22.4335 47.1598 22.6185 47.4279 22.9138C47.6959 23.2091 47.8444 23.5937 47.8444 23.9925C47.8444 24.3914 47.6959 24.7759 47.4279 25.0713C47.1598 25.3666 46.7914 25.5515 46.3944 25.59C42.1535 25.598 38.0887 27.2872 35.0913 30.2875C32.0938 33.2877 30.4084 37.3541 30.4044 41.595C30.4044 42.0207 30.2353 42.4289 29.9343 42.7299C29.6333 43.0309 29.2251 43.2 28.7994 43.2Z" fill="#242424"/>
</g>
<defs>
<clipPath id="clip0">
<rect width="48" height="48" fill="white"/>
</clipPath>
</defs>
</svg>
