<svg width="28" height="15" viewBox="0 0 28 15" fill="none" xmlns="http://www.w3.org/2000/svg">
<rect x="0.5" y="0.5" width="27" height="14" rx="7" fill="#F63535" stroke="white"/>
<path d="M11.0898 10H10.1016L7.56641 5.96484V10H6.57812V4.3125H7.56641L10.1094 8.36328V4.3125H11.0898V10ZM14.0502 10.0781C13.4486 10.0781 12.9604 9.88932 12.5854 9.51172C12.213 9.13151 12.0268 8.6263 12.0268 7.99609V7.87891C12.0268 7.45703 12.1075 7.08073 12.269 6.75C12.433 6.41667 12.6622 6.15755 12.9565 5.97266C13.2507 5.78776 13.5788 5.69531 13.9408 5.69531C14.5163 5.69531 14.9604 5.87891 15.2729 6.24609C15.588 6.61328 15.7455 7.13281 15.7455 7.80469V8.1875H12.9838C13.0124 8.53646 13.1283 8.8125 13.3315 9.01562C13.5372 9.21875 13.795 9.32031 14.1049 9.32031C14.5398 9.32031 14.894 9.14453 15.1674 8.79297L15.6791 9.28125C15.5098 9.53385 15.2833 9.73047 14.9994 9.87109C14.7182 10.0091 14.4018 10.0781 14.0502 10.0781ZM13.9369 6.45703C13.6765 6.45703 13.4656 6.54818 13.3041 6.73047C13.1453 6.91276 13.0437 7.16667 12.9994 7.49219H14.808V7.42188C14.7872 7.10417 14.7025 6.86458 14.5541 6.70312C14.4057 6.53906 14.1999 6.45703 13.9369 6.45703ZM20.2215 8.69141L20.8934 5.77344H21.8192L20.6668 10H19.8856L18.9793 7.09766L18.0887 10H17.3074L16.1512 5.77344H17.077L17.7606 8.66016L18.6277 5.77344H19.3426L20.2215 8.69141Z" fill="white"/>
</svg>