<svg width="18" height="18" viewBox="0 0 18 18" fill="none" xmlns="http://www.w3.org/2000/svg">
<path d="M17.2308 3.86973C16.1471 3.91984 16.1707 3.9165 16.0495 3.92653L16.6923 2.10581C16.6923 2.10581 14.6899 2.83743 14.1817 2.96772C12.8423 1.77841 10.8601 1.72496 9.44327 2.59022C8.28221 3.29846 7.65962 4.5145 7.86827 5.93767C5.60673 5.62364 3.70192 4.56127 2.20096 2.77062L1.72644 2.20269L1.36971 2.8508C0.922115 3.66929 0.770673 4.6047 0.949039 5.48667C1.02308 5.84747 1.1476 6.19157 1.31923 6.51562L0.912019 6.35861L0.864904 7.03344C0.814423 7.72164 1.04663 8.52343 1.48077 9.17822C1.60192 9.36196 1.7601 9.56575 1.96202 9.76619L1.75 9.73278L2.00577 10.5078C2.34231 11.5268 3.04567 12.3152 3.95769 12.7528C3.04904 13.137 2.31202 13.3809 1.10385 13.7751L0 14.1359L1.01971 14.6905C1.4101 14.901 2.78317 15.6059 4.14279 15.8197C7.1649 16.2907 10.5639 15.9065 12.8558 13.8586C14.7841 12.1348 15.4168 9.68267 15.2856 7.13032C15.2654 6.74279 15.3731 6.37531 15.5851 6.09134C16.0125 5.52341 17.2274 3.87307 17.2308 3.86973ZM14.6529 5.56016C14.3063 6.02119 14.1313 6.60916 14.1615 7.21718C14.2928 9.73947 13.5995 11.6972 12.1053 13.0335C10.3587 14.5936 7.54519 15.205 4.38173 14.7139C3.80962 14.6237 3.21731 14.4266 2.72596 14.2261C3.71875 13.8887 4.48606 13.5847 5.72452 13.0034L7.45433 12.1916L5.54615 12.0713C4.63077 12.0145 3.87019 11.5735 3.4024 10.8586C3.65144 10.8453 3.89038 10.8052 4.12933 10.7384L5.95 10.2339L4.11587 9.78624C3.22404 9.56909 2.71587 9.04124 2.44663 8.63367C2.26827 8.36641 2.15385 8.09247 2.08654 7.84191C2.27163 7.89202 2.48365 7.92543 2.83029 7.95883L4.52981 8.12587L3.18365 7.08355C2.21106 6.33522 1.82404 5.20604 2.10673 4.12363C5.13221 7.24057 8.68606 7.00672 9.04279 7.08689C8.96539 6.32854 8.96202 6.3252 8.94183 6.25504C8.48414 4.64813 9.48702 3.83298 9.94135 3.5557C10.887 2.97775 12.388 2.89089 13.4279 3.84301C13.6534 4.04679 13.9563 4.13031 14.2389 4.06016C14.4947 3.99668 14.7034 3.92987 14.9087 3.85971L14.4813 5.06907H15.0264C14.9255 5.19936 14.801 5.36306 14.6529 5.56016Z" fill="#656565"/>
</svg>
