<svg width="20" height="19" viewBox="0 0 20 19" fill="none" xmlns="http://www.w3.org/2000/svg">
<path fill-rule="evenodd" clip-rule="evenodd" d="M9.73752 2.0625C9.52287 2.0625 9.33223 2.16526 9.21209 2.32427C9.18472 2.34422 9.15855 2.36655 9.13384 2.39125L5.19542 6.32968C4.93841 6.58668 4.93841 7.00338 5.19542 7.26038C5.45243 7.51739 5.86912 7.51739 6.12613 7.26038L9.07941 4.30711V11.2218C9.07941 11.5852 9.37405 11.8799 9.73752 11.8799C10.101 11.8799 10.3956 11.5852 10.3956 11.2218V4.30179L13.2684 7.17457C13.5254 7.43158 13.9421 7.43158 14.1991 7.17457C14.4561 6.91756 14.4561 6.50087 14.1991 6.24386L10.2607 2.30544C10.2403 2.28503 10.2189 2.26625 10.1966 2.24909C10.0781 2.13362 9.91609 2.0625 9.73752 2.0625ZM16.0379 18.2659C15.9637 18.3145 15.8791 18.3421 15.7893 18.3421H3.53284C3.23924 18.3421 3.0012 18.0477 3.00098 17.6845C3.00033 17.6725 3 17.6604 3 17.6483V10.3548C3 9.99133 3.29465 9.69669 3.65811 9.69669C4.02158 9.69669 4.31622 9.99133 4.31622 10.3548V17.0258H15.1519V10.3548C15.1519 9.99133 15.4466 9.69669 15.81 9.69669C16.1735 9.69669 16.4681 9.99133 16.4681 10.3548V17.6483C16.4681 17.9317 16.2891 18.1732 16.0379 18.2659Z" fill="currentColor"/>
</svg>
