<svg width="24" height="24" viewBox="0 0 24 24" fill="none" xmlns="http://www.w3.org/2000/svg">
<path fill-rule="evenodd" clip-rule="evenodd" d="M21.125 5.875H18.1163L17.0297 3.96785C16.6888 3.36947 16.0531 3 15.3644 3H9.63552C8.94683 3 8.31109 3.36949 7.97017 3.96787L6.88363 5.875H3.875C2.28718 5.875 1 7.16218 1 8.75V17.375C1 18.9628 2.28718 20.25 3.875 20.25H21.125C22.7128 20.25 24 18.9628 24 17.375V8.75C24 7.16218 22.7128 5.875 21.125 5.875ZM16.3333 12.5833C16.3333 14.7004 14.6171 16.4167 12.5 16.4167C10.3829 16.4167 8.66667 14.7004 8.66667 12.5833C8.66667 10.4662 10.3829 8.75 12.5 8.75C14.6171 8.75 16.3333 10.4662 16.3333 12.5833ZM18.25 12.5833C18.25 15.759 15.6756 18.3333 12.5 18.3333C9.32436 18.3333 6.75 15.759 6.75 12.5833C6.75 9.4077 9.32436 6.83333 12.5 6.83333C15.6756 6.83333 18.25 9.4077 18.25 12.5833Z" fill="#242424"/>
</svg>
