<svg width="129" height="128" viewBox="0 0 129 128" fill="none" xmlns="http://www.w3.org/2000/svg">
<rect x="0.5" width="128" height="128" rx="24" fill="#F7F7F7"/>
<path fill-rule="evenodd" clip-rule="evenodd" d="M62.8045 37.932C63.2999 37.4898 63.9653 37.292 64.6129 37.3387C65.2604 37.292 65.9258 37.4898 66.4212 37.932L81.1765 51.1045C82.0726 51.9045 82.0726 53.2016 81.1765 54.0016C80.2804 54.8016 78.8275 54.8016 77.9314 54.0016L66.7955 44.0603V65.7563C66.7955 67.0236 65.7682 68.051 64.5009 68.051C63.2335 68.051 62.2062 67.0236 62.2062 65.7563V44.2603L52.4809 52.9423C51.5848 53.7423 50.1319 53.7423 49.2357 52.9423C48.3396 52.1423 48.3396 50.8453 49.2357 50.0453L62.8045 37.932ZM84.0585 88.0002C84.962 88.0002 85.6946 87.0831 85.6946 85.9517C85.6946 85.9051 85.6933 85.8589 85.6909 85.8132C85.6925 85.7775 85.6934 85.7415 85.6934 85.7054V63.2544C85.6934 61.987 84.666 60.9597 83.3987 60.9597C82.1314 60.9597 81.104 61.987 81.104 63.2544V83.9032H49.2734V63.2544C49.2734 61.987 48.2461 60.9597 46.9788 60.9597C45.7114 60.9597 44.6841 61.987 44.6841 63.2544V85.7054C44.6841 85.8577 44.6989 86.0064 44.7272 86.1504C44.807 87.1885 45.5056 88.0002 46.3557 88.0002H84.0585Z" fill="#242424"/>
</svg>
