<svg width="25" height="24" viewBox="0 0 25 24" fill="none" xmlns="http://www.w3.org/2000/svg">
<path fill-rule="evenodd" clip-rule="evenodd" d="M12.5 24C19.1274 24 24.5 18.6274 24.5 12C24.5 5.37258 19.1274 0 12.5 0C5.87258 0 0.5 5.37258 0.5 12C0.5 18.6274 5.87258 24 12.5 24ZM11.5223 4.7635C11.5223 4.43213 11.791 4.1635 12.1223 4.1635H12.8815C13.2129 4.1635 13.4815 4.43213 13.4815 4.7635V13.3594C13.4815 13.6908 13.2129 13.9594 12.8815 13.9594H12.1223C11.791 13.9594 11.5223 13.6908 11.5223 13.3594V4.7635ZM11.5232 16.8978C11.5232 17.2477 11.7099 17.5711 12.013 17.7461C12.316 17.9211 12.6895 17.9211 12.9925 17.7461C13.2956 17.5711 13.4823 17.2477 13.4823 16.8978C13.4823 16.5478 13.2956 16.2244 12.9925 16.0494C12.6895 15.8744 12.316 15.8744 12.013 16.0494C11.7099 16.2244 11.5232 16.5478 11.5232 16.8978Z" fill="#F5A623"/>
</svg>
