<svg width="41" height="36" viewBox="-6 -9 48 45" fill="none" xmlns="http://www.w3.org/2000/svg">
<path d="M8.75303 30.3053L13.4278 11.1602L18.3059 20.3125L9.60986 30.6513C9.52495 30.7359 9.28565 30.8819 9.03092 30.7666C8.77403 30.6503 8.73759 30.4129 8.75303 30.3053Z" fill="#91BABE" stroke="#91BABE" stroke-width="1.92857" stroke-linecap="round" stroke-linejoin="round"/>
<path d="M22.9832 7.7959L13.4404 11.126L23.3741 29.8347L29.1167 16.9067L22.9832 7.7959Z" fill="#91BABE" stroke="#91BABE" stroke-width="1.92857" stroke-linecap="round" stroke-linejoin="round"/>
<path d="M36.2473 5.1164L23.3545 29.8344L34.1485 24.0469L37.2391 5.5545C37.2545 5.40846 37.3083 5.04722 36.9162 4.90888C36.6049 4.79906 36.3165 4.97805 36.2473 5.1164Z" fill="#91BABE" stroke="#91BABE" stroke-width="1.92857" stroke-linecap="round" stroke-linejoin="round"/>
<path d="M8.42783 11.1602L3.75303 30.3053C3.73759 30.4129 3.77403 30.6503 4.03092 30.7666C4.28565 30.8819 4.52495 30.7359 4.60986 30.6513L13.3059 20.3125" stroke="#242424" stroke-width="1.92857" stroke-linecap="round" stroke-linejoin="round"/>
<path d="M18.375 29.8347L8.44141 11.126L17.9841 7.7959L24.1177 16.9067" stroke="#242424" stroke-width="1.92857" stroke-linecap="round" stroke-linejoin="round"/>
<path d="M31.2473 5.1164L18.3545 29.8344L29.1485 24.0469L32.2391 5.5545C32.2545 5.40846 32.3083 5.04722 31.9162 4.90888C31.6049 4.79906 31.3165 4.97805 31.2473 5.1164Z" stroke="#242424" stroke-width="1.92857" stroke-linecap="round" stroke-linejoin="round"/>
</svg>
