<svg width="116" height="116" viewBox="0 0 116 116" fill="none" xmlns="http://www.w3.org/2000/svg">
<path d="M87.451 100.773C66.031 100.773 51.3203 111.869 40.9994 111.869C30.6784 111.869 9 105.935 9 58.4529C9 10.9706 38.1658 4 49.5174 4C102.678 4 125.387 100.773 87.451 100.773Z" fill="#E6EFF2"/>
<path d="M69 13.1973L71.189 11.0083L75.5671 15.3893L73.3781 17.5783L69 13.1973Z" fill="#9F8B70"/>
<path d="M81.5859 25.7921L83.775 23.603L88.153 27.9811L85.964 30.1701L81.5859 25.7921Z" fill="#9F8B70"/>
<path d="M81.0312 15.3781L85.4093 11L87.5984 13.189L83.2203 17.57L81.0312 15.3781Z" fill="#9F8B70"/>
<path d="M23.5885 90.4524C21.0279 90.4524 18.9434 88.3679 18.9434 85.8073C18.9434 83.2466 21.0279 81.1621 23.5885 81.1621C26.1492 81.1621 28.2337 83.2466 28.2337 85.8073C28.2337 88.3679 26.1492 90.4524 23.5885 90.4524ZM23.5885 84.2599C22.735 84.2599 22.0382 84.9566 22.0382 85.8073C22.0382 86.6579 22.7321 87.3547 23.5885 87.3547C24.4421 87.3547 25.1359 86.6579 25.1359 85.8073C25.1359 84.9566 24.4421 84.2599 23.5885 84.2599Z" fill="#9F8B70"/>
<path d="M92.4915 92.7747L68.8447 69.1279L92.4915 92.7747Z" fill="#F3F3F1"/>
<path d="M49.9093 23C34.9432 23 22.8135 35.1297 22.8135 50.0958C22.8135 65.059 34.9432 77.1945 49.9093 77.1945C64.8783 77.1945 77.008 65.0619 77.008 50.0958C77.008 35.1297 64.8783 23 49.9093 23ZM49.9093 63.259C41.2983 63.259 33.5873 58.0158 30.5564 50.0958C33.5873 42.1787 41.2983 36.9355 49.9093 36.9355C58.5202 36.9355 66.2341 42.1787 69.2651 50.0958C66.2341 58.0158 58.5232 63.259 49.9093 63.259Z" fill="#F3F3F1"/>
<path d="M55.3299 50.1933C55.3299 53.1865 52.9057 55.6136 49.9096 55.6136C46.9164 55.6136 44.4922 53.1894 44.4922 50.1933C44.4922 47.2001 46.9164 44.7759 49.9096 44.7759C52.9057 44.7759 55.3299 47.2001 55.3299 50.1933Z" fill="#2FDF84"/>
<path d="M52.9989 40C46.3252 40 40.3491 44.1829 38 50.4988C40.3491 56.8171 46.3252 61 52.9989 61C59.6725 61 65.6509 56.8171 68 50.4988C65.6509 44.1829 59.6748 40 52.9989 40Z" fill="#EBA62B"/>
<path d="M29.7812 50.1935C29.7812 36.4119 40.0761 25.0602 53.3932 23.3444C52.2522 23.1993 51.0909 23.0977 49.9093 23.0977C34.9432 23.0977 22.8135 35.2273 22.8135 50.1935C22.8135 65.1567 34.9432 77.2922 49.9093 77.2922C51.0909 77.2922 52.2522 77.1906 53.3932 77.0425C40.0761 75.3267 29.7812 63.9751 29.7812 50.1935Z" fill="#C8C8C8"/>
<path d="M43.1869 50.5012C45.132 45.0537 49.6748 41.209 55 40.2478C54.1506 40.095 53.2862 40 52.4066 40C45.9964 40 40.2563 44.1829 38 50.4988C40.2563 56.8171 45.9964 61 52.4066 61C53.2862 61 54.1506 60.9027 55 60.7522C49.6748 59.7956 45.132 55.9486 43.1869 50.5012Z" fill="#CF8747"/>
<path d="M49.9096 79.6146C33.6893 79.6146 20.4912 66.4165 20.4912 50.1933C20.4912 33.973 33.6893 20.7749 49.9096 20.7749C55.1296 20.7749 60.2364 22.1597 64.6841 24.7814L62.3267 28.7849C58.5931 26.5843 54.2993 25.4201 49.9096 25.4201C36.2499 25.4201 25.1364 36.5336 25.1364 50.1933C25.1364 63.853 36.2499 74.9694 49.9096 74.9694C63.5693 74.9694 74.6857 63.853 74.6857 50.1933C74.6857 43.2981 71.9277 36.8907 66.9254 32.1555L70.1189 28.782C76.0618 34.4055 79.3309 42.012 79.3309 50.1962C79.3309 66.4165 66.1328 79.6146 49.9096 79.6146Z" fill="black"/>
<path d="M67.1895 70.7772L70.473 67.4937L94.1169 91.1375L90.8333 94.4211L67.1895 70.7772Z" fill="black"/>
<path d="M49.9094 65.9658C40.3926 65.9658 31.741 60.0781 28.3878 51.3161C28.1845 50.779 28.1845 50.1897 28.3878 49.6526C31.741 40.8877 40.3955 35 49.9094 35C59.4262 35 68.0778 40.8877 71.431 49.6526C71.6371 50.1868 71.6371 50.779 71.431 51.3161C68.0778 60.0781 59.4262 65.9658 49.9094 65.9658ZM33.0678 50.48C35.9536 56.9948 42.6136 61.3207 49.9123 61.3207C57.2139 61.3207 63.8681 56.9977 66.7568 50.48C63.871 43.9652 57.2139 39.6423 49.9123 39.6423C42.6107 39.6423 35.9536 43.9652 33.0678 50.48Z" fill="black"/>
<path d="M49.4986 58C45.364 58 42 54.636 42 50.4986C42 46.3611 45.364 43 49.4986 43C53.6332 43 57 46.3611 57 50.4986C57 54.636 53.6332 58 49.4986 58ZM49.4986 47.5003C47.8476 47.5003 46.5003 48.8447 46.5003 50.4986C46.5003 52.1553 47.8476 53.4997 49.4986 53.4997C51.1525 53.4997 52.4997 52.1553 52.4997 50.4986C52.4997 48.8447 51.1525 47.5003 49.4986 47.5003Z" fill="black"/>
<circle cx="49.5" cy="50.5" r="1.5" fill="#CF8747"/>
</svg>
