<svg width="116" height="116" viewBox="0 0 116 116" fill="none" xmlns="http://www.w3.org/2000/svg">
<path d="M26.5347 18.4127C20.7683 39.7468 5.75175 51.4084 2.9719 61.692C0.192059 71.9756 0.263953 95.161 47.5603 107.949C94.8566 120.737 109.648 93.5674 112.704 82.2563C127.026 29.3044 36.7494 -19.3729 26.5347 18.4127Z" fill="#E6EFF2"/>
<path d="M22.9893 25.0832L27.5095 20.5659L29.7681 22.8245L25.2479 27.3418L22.9893 25.0832Z" fill="#9F8B70"/>
<path d="M10 38.0719L14.5173 33.5547L16.7759 35.8133L12.2586 40.3306L10 38.0719Z" fill="#9F8B70"/>
<path d="M10 22.2586L12.2586 20L16.7789 24.5172L14.5202 26.7759L10 22.2586Z" fill="#9F8B70"/>
<path d="M101.793 105.586C99.1508 105.586 97 103.435 97 100.793C97 98.1508 99.1508 96 101.793 96C104.435 96 106.586 98.1508 106.586 100.793C106.586 103.435 104.438 105.586 101.793 105.586ZM101.793 99.1932C100.909 99.1932 100.193 99.9122 100.193 100.793C100.193 101.674 100.909 102.389 101.793 102.389C102.674 102.389 103.389 101.671 103.389 100.793C103.389 99.9151 102.674 99.1932 101.793 99.1932Z" fill="#9F8B70"/>
<path d="M48.5371 58.1483L69.3051 37.3804L48.5371 58.1483Z" fill="#EBA62B"/>
<path d="M78.0936 36.5807H70.1045V28.5916L76.4939 22.2021V30.1912H84.483L78.0936 36.5807Z" fill="#EBA62B"/>
<path d="M66.9082 76.5198L72.5008 81.3127L82.8863 70.1304L66.9082 76.5198Z" fill="#EBA62B"/>
<path d="M49.3369 31.7876C49.1961 31.7876 49.0583 31.8056 48.9205 31.8086C48.7798 31.8056 48.645 31.7876 48.5042 31.7876C33.9579 31.7876 22.1436 43.6049 22.1436 58.1482C22.1436 72.6915 33.9579 84.5088 48.5042 84.5088H48.5641L48.9175 83.9576L49.271 84.5088H49.3309C63.8742 84.5088 75.6915 72.6945 75.6915 58.1482C75.6915 43.6019 63.8802 31.7876 49.3369 31.7876Z" fill="#F3F3F1"/>
<path d="M28.5301 58.1482C28.5301 44.5425 38.8707 33.3273 52.1109 31.9374C51.1973 31.8415 50.2687 31.7876 49.3311 31.7876C49.1903 31.7876 49.0525 31.8056 48.9147 31.8086C48.7739 31.8056 48.6391 31.7876 48.4983 31.7876C33.955 31.7876 22.1377 43.6049 22.1377 58.1482C22.1377 72.6915 33.955 84.5088 48.4983 84.5088H48.5582L48.9117 83.9576L49.2652 84.5088H49.3251C50.2657 84.5088 51.1913 84.4549 52.1049 84.359C38.8737 82.9691 28.5301 71.7539 28.5301 58.1482Z" fill="#C8C8C8"/>
<path d="M102.068 75.7232C102.068 85.869 93.8426 94.0947 83.6968 94.0947C73.551 94.0947 65.3223 85.869 65.3223 75.7232C65.3223 65.5743 73.548 57.3486 83.6968 57.3486C93.8426 57.3486 102.068 65.5743 102.068 75.7232Z" fill="#EBA62B"/>
<path d="M71.7147 75.7231C71.7147 66.6676 78.2719 59.1609 86.89 57.6481C85.8536 57.4654 84.7872 57.3516 83.6968 57.3516C73.548 57.3516 65.3223 65.5773 65.3223 75.7261C65.3223 85.8749 73.548 94.0977 83.6968 94.0977C84.7902 94.0977 85.8536 93.9838 86.89 93.8011C78.2689 92.2824 71.7147 84.7756 71.7147 75.7231Z" fill="#CF8747"/>
<path d="M48.564 86.9052C32.6488 86.9052 19.7471 74.0064 19.7471 58.1481C19.7471 42.2898 32.6488 29.3911 48.5041 29.3911C56.1846 29.3911 63.4068 32.3866 68.8347 37.8175C71.294 40.2768 73.2861 43.1615 74.7509 46.3997L70.3864 48.3797C69.1612 45.6688 67.4987 43.2574 65.4468 41.2085C60.9175 36.6822 54.9025 34.1899 48.5011 34.1899C35.2849 34.1899 24.5369 44.9379 24.5369 58.1541C24.5369 71.3704 35.2849 82.1183 48.5011 82.1183L48.564 86.9052Z" fill="black"/>
<path d="M46.8023 75.6184C37.7439 74.7616 30.9141 67.2519 30.9141 58.1455C30.9141 48.4579 38.7953 40.5737 48.4858 40.5737C53.1558 40.5737 57.5742 42.392 60.9142 45.6991C62.0136 46.8014 62.9632 48.0535 63.745 49.4405L59.5692 51.798C59.0001 50.7885 58.3141 49.8778 57.5323 49.096C55.1089 46.6966 51.8887 45.3666 48.4858 45.3666C41.4403 45.3666 35.7069 51.1 35.7069 58.1455C35.7069 64.7626 40.6675 70.2204 47.2516 70.8435L46.8023 75.6184Z" fill="black"/>
<path d="M46.832 56.453L67.597 35.688L70.9849 39.0759L50.22 59.8409L46.832 56.453Z" fill="black"/>
<path d="M78.0935 38.977H70.1044C68.7834 38.977 67.708 37.9016 67.708 36.5805V28.5915C67.708 27.9564 67.9596 27.3453 68.412 26.899L74.8014 20.5096C75.4874 19.8236 76.5208 19.6229 77.4105 19.9883C78.3062 20.3568 78.8903 21.2345 78.8903 22.202V27.7947H84.4829C85.4505 27.7947 86.3282 28.3788 86.6966 29.2745C87.0681 30.1701 86.8614 31.2006 86.1754 31.8836L79.786 38.273C79.3396 38.7253 78.7285 38.977 78.0935 38.977ZM72.5008 34.1841H77.099L78.6986 32.5875H76.4969C75.1758 32.5875 74.1005 31.5121 74.1005 30.1911V27.9894L72.5008 29.586V34.1841Z" fill="black"/>
<path d="M75.6977 96.4911C64.2458 96.4911 54.9268 87.172 54.9268 75.7231C54.9268 64.2712 64.2458 54.9521 75.6977 54.9521C80.7242 54.9521 85.574 56.7704 89.3573 60.0775L86.206 63.6841C83.2944 61.1439 79.5619 59.745 75.6977 59.745C66.8879 59.745 59.7196 66.9133 59.7196 75.7231C59.7196 84.5329 66.8879 91.6982 75.6977 91.6982C84.5076 91.6982 91.6728 84.5299 91.6728 75.7231C91.6728 73.2937 91.1426 70.9662 90.0942 68.7915L94.4137 66.7156C95.7737 69.5374 96.4657 72.5718 96.4657 75.7231C96.4657 87.172 87.1466 96.4911 75.6977 96.4911Z" fill="black"/>
<path d="M72.5009 83.7089C71.9497 83.7089 71.3926 83.5172 70.9402 83.1308L65.3506 78.3379L68.4719 74.6984L72.3152 77.9934L81.131 68.4946L84.6448 71.7568L74.2623 82.939C73.786 83.4513 73.1419 83.7089 72.5009 83.7089Z" fill="black"/>
</svg>
