<svg width="116" height="116" viewBox="0 0 116 116" fill="none" xmlns="http://www.w3.org/2000/svg">
<path d="M27.1801 14.2913C48.9769 14.2913 63.9464 3 74.4489 3C84.9515 3 107.011 9.03859 107.011 57.3562C107.011 105.674 77.3353 112.764 65.784 112.764C11.6877 112.767 -11.4208 14.2913 27.1801 14.2913Z" fill="#E6EFF2"/>
<path d="M93.7464 35.8224C91.1407 35.8224 89.0195 33.7012 89.0195 31.0955C89.0195 28.4898 91.1407 26.3687 93.7464 26.3687C96.3521 26.3687 98.4733 28.4898 98.4733 31.0955C98.4733 33.7042 96.3521 35.8224 93.7464 35.8224ZM93.7464 29.5209C92.8749 29.5209 92.1688 30.227 92.1688 31.0955C92.1688 31.967 92.8749 32.6731 93.7464 32.6731C94.615 32.6731 95.3211 31.967 95.3211 31.0955C95.3211 30.227 94.615 29.5209 93.7464 29.5209Z" fill="#9F8B70"/>
<path d="M36.2353 95.6973V93.3338C36.2353 90.7252 34.1171 88.6069 31.5084 88.6069H26.7816C24.1729 88.6069 22.0547 90.7252 22.0547 93.3338V95.6973H36.2353Z" fill="#F3F3F1"/>
<path d="M92.958 95.6973V93.3338C92.958 90.7252 90.8398 88.6069 88.2311 88.6069H83.5042C80.8956 88.6069 78.7773 90.7252 78.7773 93.3338V95.6973H92.958Z" fill="#F3F3F1"/>
<path d="M64.5966 95.6973V93.3338C64.5966 90.7252 62.4784 88.6069 59.8698 88.6069H55.1429C52.5342 88.6069 50.416 90.7252 50.416 93.3338V95.6973H64.5966Z" fill="#F3F3F1"/>
<path d="M53.4668 42.9128L51 29.781L58.2262 32.9893L64.3919 22.4307L70.5575 32.9893L77.7837 29.781L75.3169 42.9128H53.4668Z" fill="#EBA62B"/>
<path d="M32.6902 88.7753C32.3091 88.6778 31.9191 88.6069 31.5085 88.6069H26.7816C24.1729 88.6069 22.0547 90.7252 22.0547 93.3338V95.6973H29.145V93.3338C29.145 91.1329 30.6547 89.3012 32.6902 88.7753Z" fill="#C8C8C8"/>
<path d="M89.4128 88.7753C89.0317 88.6778 88.6418 88.6069 88.2311 88.6069H83.5042C80.8956 88.6069 78.7773 90.7252 78.7773 93.3338V95.6973H85.8677V93.3338C85.8677 91.1329 87.3773 89.3012 89.4128 88.7753Z" fill="#C8C8C8"/>
<path d="M61.0515 88.7753C60.6704 88.6778 60.2804 88.6069 59.8698 88.6069H55.1429C52.5342 88.6069 50.416 90.7252 50.416 93.3338V95.6973H57.5063V93.3338C57.5063 91.1329 59.016 89.3012 61.0515 88.7753Z" fill="#C8C8C8"/>
<path d="M51 29.7808L58.2262 32.9891L60.3887 42.9126H53.4668L51 29.7808Z" fill="#CF8747"/>
<path d="M88.2307 67.3359H83.5038V58.671C83.5038 58.2367 83.1493 57.8822 82.715 57.8822H32.2969C31.8626 57.8822 31.5081 58.2337 31.5081 58.671V67.3359H26.7812V58.671C26.7812 55.631 29.254 53.1553 32.2969 53.1553H82.715C85.755 53.1553 88.2307 55.631 88.2307 58.671V67.3359Z" fill="black"/>
<path d="M59.8694 42.127H55.1426V67.336H59.8694V42.127Z" fill="black"/>
<path d="M66.9603 95.6969H62.2334V93.3335C62.2334 92.0306 61.1728 90.9701 59.8699 90.9701H55.1431C53.8402 90.9701 52.7796 92.0306 52.7796 93.3335V95.6969H48.0527V93.3335C48.0527 89.422 51.2316 86.2432 55.1431 86.2432H59.8699C63.7814 86.2432 66.9603 89.422 66.9603 93.3335V95.6969Z" fill="black"/>
<path d="M95.3216 95.6969H90.5947V93.3335C90.5947 92.0306 89.5341 90.9701 88.2313 90.9701H83.5044C82.2015 90.9701 81.1409 92.0306 81.1409 93.3335V95.6969H76.4141V93.3335C76.4141 89.422 79.5929 86.2432 83.5044 86.2432H88.2313C92.1428 86.2432 95.3216 89.422 95.3216 93.3335V95.6969Z" fill="black"/>
<path d="M38.5989 95.6969H33.8721V93.3335C33.8721 92.0306 32.8115 90.9701 31.5086 90.9701H26.7817C25.4789 90.9701 24.4183 92.0306 24.4183 93.3335V95.6969H19.6914V93.3335C19.6914 89.422 22.8702 86.2432 26.7817 86.2432H31.5086C35.4201 86.2432 38.5989 89.422 38.5989 93.3335V95.6969Z" fill="black"/>
<path d="M68.4306 45.2762H46.5777C45.4403 45.2762 44.4683 44.4667 44.2556 43.35L41.7888 30.2181C41.6292 29.3555 41.9572 28.4721 42.6455 27.9286C43.3368 27.385 44.2674 27.2638 45.071 27.6213L50.3651 29.9729L55.4642 21.243C56.3151 19.7895 58.6962 19.7895 59.5471 21.243L64.6462 29.9729L69.9403 27.6213C70.7439 27.2638 71.6774 27.385 72.3687 27.9286C73.06 28.4721 73.388 29.3555 73.2255 30.2181L70.7586 43.35C70.5459 44.4667 69.568 45.2762 68.4306 45.2762ZM48.5393 40.5493H66.4719L67.7452 33.7692L64.6285 35.1518C63.5236 35.6334 62.2355 35.2227 61.6298 34.1828L57.5056 27.1191L53.3814 34.1828C52.7699 35.2227 51.4759 35.6363 50.3799 35.1548L47.2631 33.7722L48.5393 40.5493Z" fill="black"/>
<circle cx="29" cy="79" r="2" fill="#CF8747"/>
<circle cx="58" cy="79" r="2" fill="#CF8747"/>
<circle cx="86" cy="79" r="2" fill="#CF8747"/>
<path d="M57.7239 83.45C55.1194 83.45 53 81.3306 53 78.7239C53 76.1194 55.1194 74 57.7239 74C60.3306 74 62.45 76.1194 62.45 78.7239C62.45 81.3306 60.3306 83.45 57.7239 83.45ZM57.7239 77.5435C57.0728 77.5435 56.5435 78.0728 56.5435 78.7239C56.5435 79.3772 57.0728 79.9065 57.7239 79.9065C58.3772 79.9065 58.9065 79.3772 58.9065 78.7239C58.9065 78.0728 58.3772 77.5435 57.7239 77.5435Z" fill="black"/>
<path d="M29.2239 82.95C26.8957 82.95 25 81.0546 25 78.7239C25 76.3956 26.8956 74.5 29.2239 74.5C31.5546 74.5 33.45 76.3957 33.45 78.7239C33.45 81.0544 31.5544 82.95 29.2239 82.95ZM29.2239 77.0435C28.2966 77.0435 27.5435 77.7966 27.5435 78.7239C27.5435 79.6528 28.296 80.4065 29.2239 80.4065C30.1534 80.4065 30.9065 79.6534 30.9065 78.7239C30.9065 77.796 30.1528 77.0435 29.2239 77.0435Z" fill="black" stroke="black"/>
<path d="M85.7239 83.45C83.1194 83.45 81 81.3306 81 78.7239C81 76.1194 83.1194 74 85.7239 74C88.3306 74 90.45 76.1194 90.45 78.7239C90.45 81.3306 88.3306 83.45 85.7239 83.45ZM85.7239 77.5435C85.0728 77.5435 84.5435 78.0728 84.5435 78.7239C84.5435 79.3772 85.0728 79.9065 85.7239 79.9065C86.3772 79.9065 86.9065 79.3772 86.9065 78.7239C86.9065 78.0728 86.3772 77.5435 85.7239 77.5435Z" fill="black"/>
</svg>
