<svg width="155" height="155" viewBox="0 0 155 155" fill="none" xmlns="http://www.w3.org/2000/svg">
<path d="M57.865 150.035C84.8064 137.805 109.647 143.366 122.631 137.476C135.614 131.581 159.492 111.741 132.384 52.0143C105.276 -7.71205 64.6196 0.167616 50.3361 6.64845C-16.5342 36.9993 10.1464 171.694 57.865 150.035Z" fill="#E6EFF2"/>
<path d="M29.3849 35.5721C25.8472 35.5721 22.9683 32.6932 22.9683 29.1555C22.9683 25.6178 25.8472 22.7388 29.3849 22.7388C32.9226 22.7388 35.8016 25.6178 35.8016 29.1555C35.8016 32.6932 32.9226 35.5721 29.3849 35.5721ZM29.3849 27.0166C28.2085 27.0166 27.246 27.9791 27.246 29.1555C27.246 30.3319 28.2085 31.2944 29.3849 31.2944C30.5613 31.2944 31.5238 30.3319 31.5238 29.1555C31.5238 27.9791 30.5613 27.0166 29.3849 27.0166Z" fill="#9F8B70"/>
<path d="M120.271 90.6848H124.549V99.2403H120.271V90.6848Z" fill="#9F8B70"/>
<path d="M120.271 115.259H124.549V123.815H120.271V115.259Z" fill="#9F8B70"/>
<path d="M105.307 104.551H113.863V108.829H105.307V104.551Z" fill="#9F8B70"/>
<path d="M129.896 104.551H138.452V108.829H129.896V104.551Z" fill="#9F8B70"/>
<path d="M114.38 29.1752H60.6259C58.3415 29.1752 56.4893 31.036 56.4893 33.3289V64.4668C56.6561 89.3763 87.5031 99.7585 87.5031 99.7585C87.5031 99.7585 118.517 89.3806 118.517 64.4668V33.3289C118.517 31.036 116.665 29.1752 114.38 29.1752Z" fill="#EBA62B"/>
<path d="M62.4792 69.7944L59.3179 51.2588L69.5931 56.2937L77.4985 41.9888L85.4038 56.2937L95.6791 51.2588L92.5178 69.7944H62.4792Z" fill="#E8EEEF"/>
<path d="M95.6791 125.442H59.3179V123.303C59.3179 118.576 63.1465 114.747 67.8734 114.747H87.1235C91.8504 114.747 95.6791 118.576 95.6791 123.303V125.442Z" fill="#E8EEEF"/>
<path d="M76.429 114.747H67.8734C63.1465 114.747 59.3179 118.576 59.3179 123.303V125.442H67.8734V123.303C67.8734 118.576 71.7021 114.747 76.429 114.747Z" fill="#D8D8D8"/>
<path d="M65.0448 64.4668V33.3289C65.0448 31.036 66.8971 29.1752 69.1814 29.1752H60.6259C58.3415 29.1752 56.4893 31.036 56.4893 33.3289V64.4668C56.6561 89.3763 87.5032 99.7585 87.5032 99.7585C87.5032 99.7585 89.2185 99.1724 91.7895 97.996C83.3366 94.1204 65.1731 83.5885 65.0448 64.4668Z" fill="#CF8747"/>
<path d="M59.3179 51.2829L62.4792 69.8185H71.0347L68.652 55.8601L59.3179 51.2829Z" fill="#D8D8D8"/>
<path d="M92.5183 73.0242H62.484C60.9226 73.0242 59.5836 71.8949 59.3227 70.3549L56.1614 51.8193C55.9561 50.6344 56.4352 49.4323 57.4019 48.7094C58.3644 47.9907 59.6521 47.8709 60.7343 48.3971L68.2675 52.0888L74.697 40.4576C75.8264 38.4085 79.1844 38.4085 80.3095 40.4576L86.739 52.0888L94.2722 48.3971C95.3544 47.8709 96.6463 47.9907 97.6046 48.7094C98.5713 49.4323 99.0504 50.6301 98.8451 51.8193L95.6838 70.3549C95.4143 71.8949 94.0797 73.0242 92.5183 73.0242ZM65.1875 66.6076H89.8104L91.4659 56.9184L86.816 59.1942C85.2631 59.9514 83.4151 59.3568 82.5981 57.8595L77.499 48.6452L72.4041 57.8638C71.5828 59.361 69.7348 59.9514 68.1862 59.1985L63.5363 56.9227L65.1875 66.6076Z" fill="black"/>
<path d="M95.6837 128.64H59.3226C57.5516 128.64 56.1143 127.202 56.1143 125.431V123.293C56.1143 116.803 61.3888 111.529 67.8781 111.529H87.1282C93.6175 111.529 98.892 116.803 98.892 123.293V125.431C98.892 127.202 97.4547 128.64 95.6837 128.64ZM62.6379 122.223H92.3642C91.8679 119.785 89.7077 117.945 87.1239 117.945H67.8739C65.2944 117.945 63.1384 119.785 62.6379 122.223Z" fill="black"/>
<path d="M74.2817 99.7388H80.6984V114.711H74.2817V99.7388Z" fill="black"/>
<path d="M77.4932 102.987C77.1467 102.987 76.8045 102.931 76.4708 102.82C75.1233 102.366 43.4507 91.3981 43.271 64.5079V33.3486C43.271 29.2847 46.5692 25.9865 50.6159 25.9865H104.371C108.417 25.9865 111.715 29.2847 111.715 33.3486V41.1299H105.299V33.3486C105.299 32.8267 104.88 32.4032 104.371 32.4032H50.6159C50.1069 32.4032 49.6877 32.8267 49.6877 33.3486V64.4865C49.8203 84.3312 72.377 94.3412 77.4975 96.3517C82.6308 94.3412 105.299 84.3354 105.299 64.4865V46.306H111.715V64.4865C111.715 91.3981 79.8674 102.366 78.5113 102.82C78.1819 102.931 77.8354 102.987 77.4932 102.987Z" fill="black"/>
</svg>
