<svg width="54" height="55" viewBox="0 0 54 55" fill="none" xmlns="http://www.w3.org/2000/svg">
<circle cx="31.4583" cy="27.6858" r="14.2014" fill="#EBA52C"/>
<path d="M26.6778 21.3251C28.5144 21.3251 29.7702 22.0403 30.4657 23.2287C30.8808 23.9378 31.017 24.6358 31.017 25.1398C31.017 25.5489 30.6854 25.8806 30.2763 25.8806C29.8672 25.8806 29.5355 25.5489 29.5355 25.1398C29.5355 24.8753 29.4468 24.4206 29.1872 23.977C28.7582 23.2441 27.9899 22.8065 26.6778 22.8065C24.2722 22.8065 23.2528 24.5539 24.2726 25.8718C24.5518 26.2328 25.1116 26.4519 26.4496 26.746L27.1122 26.8871C30.172 27.5398 31.5001 28.4435 31.2685 30.8913C31.0406 33.2914 29.2067 34.0523 26.6985 34.0523C24.7351 34.0523 23.4175 33.2663 22.7182 31.9653C22.3685 31.3149 22.2275 30.6663 22.2039 30.1334L22.2012 29.894C22.2142 29.4851 22.5562 29.1642 22.9651 29.1772C23.3286 29.1888 23.6225 29.4603 23.6742 29.8077L23.6855 30.0913C23.7048 30.4188 23.8004 30.8496 24.023 31.2639C24.4639 32.0841 25.28 32.5709 26.6985 32.5709C28.5201 32.5709 29.6661 32.0954 29.7936 30.7515C29.9212 29.4031 29.2619 28.8921 27.1064 28.4026L26.4429 28.2598C24.4967 27.8498 23.7104 27.5664 23.1009 26.7784C21.2869 24.4343 23.1008 21.3251 26.6778 21.3251Z" fill="#333333"/>
<path d="M26.738 20.2834C27.1017 20.2834 27.4041 20.5455 27.4668 20.891L27.4788 21.0242V34.3573C27.4788 34.7664 27.1471 35.0981 26.738 35.0981C26.3744 35.0981 26.072 34.836 26.0092 34.4905L25.9973 34.3573V21.0242C25.9973 20.6151 26.3289 20.2834 26.738 20.2834Z" fill="#333333"/>
<circle cx="26.7395" cy="27.3899" r="14.0392" stroke="#333333" stroke-width="2.1445"/>
</svg>
