<svg width="155" height="155" viewBox="0 0 155 155" fill="none" xmlns="http://www.w3.org/2000/svg">
<path d="M115.924 16.8244C86.3387 17.3805 65.7369 2.43395 51.4791 2.69917C37.2212 2.96439 7.43507 11.7253 8.6628 77.3036C9.89052 142.882 50.3455 151.754 66.0278 151.463C139.452 150.09 168.314 15.8448 115.924 16.8244Z" fill="#E6EFF2"/>
<path d="M132.573 127.148H141.128V131.426H132.573V127.148Z" fill="#9F8B70"/>
<path d="M107.974 127.148H116.53V131.426H107.974V127.148Z" fill="#9F8B70"/>
<path d="M122.948 112.169H127.226V120.725H122.948V112.169Z" fill="#9F8B70"/>
<path d="M122.948 136.773H127.226V145.329H122.948V136.773Z" fill="#9F8B70"/>
<path d="M132.864 34.1872C129.326 34.1872 126.447 31.3083 126.447 27.7705C126.447 24.2328 129.326 21.3539 132.864 21.3539C136.402 21.3539 139.281 24.2328 139.281 27.7705C139.281 31.3083 136.402 34.1872 132.864 34.1872ZM132.864 25.6317C131.688 25.6317 130.725 26.5899 130.725 27.7705C130.725 28.9512 131.688 29.9094 132.864 29.9094C134.041 29.9094 135.003 28.9512 135.003 27.7705C135.003 26.5899 134.045 25.6317 132.864 25.6317Z" fill="#9F8B70"/>
<path d="M76.8039 100.242C95.1137 100.242 109.957 85.3994 109.957 67.0897C109.957 48.7799 95.1137 33.9369 76.8039 33.9369C58.4941 33.9369 43.6511 48.7799 43.6511 67.0897C43.6511 85.3994 58.4941 100.242 76.8039 100.242Z" fill="#EBA62B"/>
<path d="M53.2761 67.0897C53.2761 50.4192 65.5919 36.6618 81.6164 34.3262C80.0422 34.0952 78.4423 33.9369 76.8039 33.9369C58.495 33.9369 43.6511 48.7808 43.6511 67.0897C43.6511 85.3985 58.495 100.242 76.8039 100.242C78.4423 100.242 80.0422 100.084 81.6164 99.8531C65.5919 97.5175 53.2761 83.7602 53.2761 67.0897Z" fill="#CF8747"/>
<path d="M31.0752 128.788L27.6658 123.356L73.6519 94.4807C74.9053 93.6851 76.5651 93.869 77.626 94.9256L92.4698 109.77L123.355 78.884L127.894 83.4227L94.7413 116.575C93.5393 117.778 91.409 117.778 90.2026 116.575L74.901 101.274L31.0752 128.788Z" fill="black"/>
<path d="M128.831 98.2602H122.414V84.3532H108.511V77.9409H125.622C127.393 77.9409 128.831 79.3782 128.831 81.1492V98.2602Z" fill="black"/>
<path d="M52.9656 100.891C39.281 95.261 30.4431 82.0555 30.4431 67.2501C30.4431 47.2001 46.7543 30.8889 66.8042 30.8889C86.8541 30.8889 103.165 47.2001 103.165 67.2501C103.165 78.4194 98.156 88.8015 89.4165 95.7315L85.4296 90.7009C92.6248 84.9986 96.7486 76.4473 96.7486 67.2501C96.7486 50.7378 83.3121 37.3056 66.8042 37.3056C50.2963 37.3056 36.8598 50.7378 36.8598 67.2501C36.8598 79.446 44.1405 90.3201 55.4039 94.9573L52.9656 100.891Z" fill="black"/>
<path d="M68.4295 82.2194H59.3178V75.8027H68.4295C69.8925 75.8027 71.0818 74.6135 71.0818 73.1505C71.0818 71.6447 69.8925 70.4555 68.4295 70.4555H65.1784C60.1777 70.4555 56.1095 66.3873 56.1095 61.3865C56.1095 56.343 60.1777 52.2748 65.1784 52.2748H74.2901V58.6915H65.1784C63.7154 58.6915 62.5262 59.8808 62.5262 61.3438C62.5262 62.8495 63.7154 64.0388 65.1784 64.0388H68.4295C73.4303 64.0388 77.4984 68.107 77.4984 73.1077C77.4984 78.1512 73.4303 82.2194 68.4295 82.2194Z" fill="black"/>
<path d="M63.599 49.0663H70.0157V55.483H63.599V49.0663Z" fill="black"/>
<path d="M63.599 79.0145H70.0157V85.4311H63.599V79.0145Z" fill="black"/>
</svg>
