<svg width="154" height="155" viewBox="0 0 154 155" fill="none" xmlns="http://www.w3.org/2000/svg">
<path d="M49.325 149.32C77.7509 141.111 101.527 150.202 115.224 146.245C128.922 142.288 155.418 126.105 137.221 63.0846C119.023 0.064394 77.6568 1.99795 62.5861 6.34845C-7.96724 26.7235 -1.02013 163.86 49.325 149.32Z" fill="#E6EFF2"/>
<path d="M66.4128 26.7996L72.4625 20.7499L75.4874 23.7747L69.4377 29.8244L66.4128 26.7996Z" fill="#9F8B70"/>
<path d="M49.0125 44.1644L55.0621 38.1146L58.087 41.1395L52.0373 47.1892L49.0125 44.1644Z" fill="#9F8B70"/>
<path d="M49.0271 23.0188L52.0519 19.994L58.1016 26.0436L55.0768 29.0685L49.0271 23.0188Z" fill="#9F8B70"/>
<path d="M33.1559 117.785C29.6182 117.785 26.7393 114.906 26.7393 111.368C26.7393 107.83 29.6182 104.951 33.1559 104.951C36.6936 104.951 39.5726 107.83 39.5726 111.368C39.5726 114.906 36.6936 117.785 33.1559 117.785ZM33.1559 109.229C31.9795 109.229 31.017 110.192 31.017 111.368C31.017 112.544 31.9795 113.507 33.1559 113.507C34.3323 113.507 35.2948 112.544 35.2948 111.368C35.2948 110.192 34.3323 109.229 33.1559 109.229Z" fill="#9F8B70"/>
<path d="M85.3111 69.9742L80.6611 42.883L95.7745 50.2451L107.397 29.3353L119.02 50.2451L134.133 42.883L129.483 69.9742H85.3111Z" fill="#EBA62B"/>
<path d="M28.875 80.649V117.01H40.6389L49.1944 85.4144C49.1944 85.4144 42.9574 80.649 28.875 80.649Z" fill="#F3F3F1"/>
<path d="M66.3075 105.253C66.3075 105.253 78.0714 109.531 86.627 109.531C95.1825 109.531 105.877 103.114 114.433 103.114C122.988 103.114 125.127 108.461 125.127 108.461C125.127 108.461 94.1131 125.573 81.2797 125.573C71.0558 125.573 50.0092 116.076 41.8386 112.226L48.2125 89.0404L89.4075 97.4676C93.3858 98.2804 96.2519 101.788 96.2519 105.852V107.777L66.3075 105.253Z" fill="#F3F3F1"/>
<path d="M115.031 103.147H113.868C108.444 103.314 102.232 105.847 96.2519 107.682V105.838C96.2519 104.901 96.0851 103.999 95.8028 103.147H44.3326L41.8386 112.212C50.0092 116.062 71.0558 125.559 81.2797 125.559C94.1131 125.559 125.127 108.448 125.127 108.448C125.127 108.448 123.048 103.408 115.031 103.147ZM66.3075 105.239L96.0381 107.746C92.7656 108.739 89.5658 109.517 86.627 109.517C78.0714 109.517 66.3075 105.239 66.3075 105.239Z" fill="#C8C8C8"/>
<path d="M28.875 103.147V117.003H40.6389L44.3905 103.147H28.875Z" fill="#C8C8C8"/>
<path d="M80.6611 42.8705L85.3111 69.9617H93.8667L89.9953 47.4178L80.6611 42.8705Z" fill="#CF8747"/>
<path d="M120.473 73.1762H76.301C74.7396 73.1762 73.4007 72.0512 73.1397 70.5112L68.4898 43.42C68.2844 42.2351 68.7635 41.033 69.726 40.3101C70.6971 39.5828 71.9847 39.4673 73.0542 39.9935L85.434 46.0209L95.5852 27.7676C96.7145 25.7271 100.064 25.7271 101.193 27.7676L111.345 46.0209L123.724 39.9935C124.794 39.4673 126.081 39.5828 127.053 40.3101C128.015 41.033 128.494 42.2308 128.289 43.42L123.639 70.5112C123.374 72.0512 122.035 73.1762 120.473 73.1762ZM79.0045 66.7596H117.77L120.901 48.4977L111.413 53.1177C109.877 53.8663 108.034 53.2846 107.208 51.7916L98.3871 35.9296L89.5664 51.7959C88.7365 53.2888 86.897 53.8706 85.3613 53.122L75.8732 48.502L79.0045 66.7596Z" fill="black"/>
<path d="M40.629 120.238H28.8651C27.0941 120.238 25.6567 118.801 25.6567 117.03V80.6687C25.6567 78.8977 27.0941 77.4603 28.8651 77.4603C43.863 77.4603 50.8443 82.6664 51.1309 82.8888C52.1661 83.6802 52.6238 85.0192 52.2816 86.2768L43.7261 117.872C43.3496 119.267 42.0791 120.238 40.629 120.238ZM32.0734 113.821H38.1735L45.4372 86.9955C43.1999 85.9389 38.828 84.3647 32.0734 83.9711V113.821Z" fill="black"/>
<path d="M54.6767 121.41C50.2278 119.597 45.3127 117.428 40.4702 115.148L43.2037 109.343C47.9478 111.576 52.7517 113.698 57.1022 115.473L54.6767 121.41Z" fill="black"/>
<path d="M81.2716 128.774C76.6687 128.774 70.0852 127.178 61.1489 123.897L63.3648 117.874C73.4518 121.579 78.6707 122.357 81.2716 122.357C89.9469 122.357 109.642 112.989 119.964 107.582C118.775 106.902 117.004 106.316 114.424 106.316C110.669 106.316 106.023 107.86 101.535 109.361C96.5604 111.021 91.4185 112.732 86.6188 112.732C77.6055 112.732 65.7048 108.442 65.2043 108.262L67.3945 102.23C67.5057 102.273 78.7392 106.316 86.6188 106.316C90.3747 106.316 95.0204 104.771 99.5078 103.27C104.483 101.61 109.625 99.8989 114.424 99.8989C125.029 99.8989 127.976 106.962 128.096 107.265C128.699 108.771 128.083 110.482 126.667 111.265C125.376 111.979 94.7766 128.774 81.2716 128.774Z" fill="black"/>
<path d="M99.4623 107.793H93.0456V105.868C93.0456 103.34 91.2447 101.137 88.7678 100.624L47.5686 92.1963L48.8562 85.9122L90.0555 94.3395C95.5053 95.456 99.4623 100.303 99.4623 105.864V107.793Z" fill="black"/>
</svg>
