<svg width="155" height="155" viewBox="0 0 155 155" fill="none" xmlns="http://www.w3.org/2000/svg">
<g clip-path="url(#clip0)">
<path d="M18.3236 126.52C18.3236 94.7696 2.99634 72.966 2.99634 57.6668C2.99634 42.3676 11.1926 10.236 76.7837 10.236C142.375 10.236 152 53.4622 152 70.2899C152.004 149.09 18.3236 182.75 18.3236 126.52Z" fill="#E6EFF2"/>
<path d="M135.26 99.445C131.722 99.445 128.843 96.566 128.843 93.0283C128.843 89.4906 131.722 86.6116 135.26 86.6116C138.798 86.6116 141.677 89.4906 141.677 93.0283C141.677 96.566 138.798 99.445 135.26 99.445ZM135.26 90.8894C134.084 90.8894 133.121 91.8519 133.121 93.0283C133.121 94.2047 134.084 95.1672 135.26 95.1672C136.436 95.1672 137.399 94.2047 137.399 93.0283C137.399 91.8519 136.436 90.8894 135.26 90.8894Z" fill="#9F8B70"/>
<path d="M78.5224 53.4651H54.8449C53.4888 53.4651 52.1927 54.1239 51.3842 55.2105C37.1819 74.2936 29.375 89.2873 29.375 103.999C29.375 117.17 36.3478 130.469 51.9232 130.469H78.3941C91.6979 130.469 99.9626 120.327 99.9626 103.999C99.9626 89.4498 92.284 71.8639 82.1927 55.5014C81.4099 54.2309 80.0111 53.4651 78.5224 53.4651Z" fill="#F3F3F1"/>
<path d="M100.058 31.1625C97.6971 31.1625 58.0721 31.1625 55.7065 31.1625C53.3452 31.1625 51.4287 33.0789 51.4287 35.4403C51.4287 36.4926 51.8094 37.4594 52.4425 38.2037L65.8362 51.4819H89.9287L103.322 38.2037C103.955 37.4594 104.336 36.4926 104.336 35.4403C104.336 33.0789 102.42 31.1625 100.058 31.1625Z" fill="#EBA62B"/>
<path d="M121.294 44.9098C124.247 44.9098 126.642 42.5157 126.642 39.5626C126.642 36.6094 124.247 34.2153 121.294 34.2153C118.341 34.2153 115.947 36.6094 115.947 39.5626C115.947 42.5157 118.341 44.9098 121.294 44.9098Z" fill="#2FDF84"/>
<path d="M104.165 66.2956C107.118 66.2956 109.512 63.9015 109.512 60.9484C109.512 57.9952 107.118 55.6011 104.165 55.6011C101.212 55.6011 98.8177 57.9952 98.8177 60.9484C98.8177 63.9015 101.212 66.2956 104.165 66.2956Z" fill="#2FDF84"/>
<path d="M78.5083 53.4819C81.4615 53.4819 83.8556 51.0879 83.8556 48.1347C83.8556 45.1815 81.4615 42.7875 78.5083 42.7875C75.5551 42.7875 73.161 45.1815 73.161 48.1347C73.161 51.0879 75.5551 53.4819 78.5083 53.4819Z" fill="#2FDF84"/>
<path d="M39 103.998C39 89.2872 46.807 74.2936 61.0092 55.2105C61.8177 54.1239 63.1138 53.4651 64.4699 53.4651H54.8449C53.4888 53.4651 52.1927 54.1239 51.3842 55.2105C37.182 74.2936 29.375 89.2872 29.375 103.998C29.375 117.17 36.3478 130.469 51.9232 130.469H61.5482C45.9728 130.469 39 117.174 39 103.998Z" fill="#C8C8C8"/>
<path d="M61.0537 35.4403C61.0537 33.0789 62.9701 31.1625 65.3315 31.1625C60.2238 31.1625 56.3909 31.1625 55.7065 31.1625C53.3452 31.1625 51.4287 33.0789 51.4287 35.4403C51.4287 36.4926 51.8094 37.4594 52.4425 38.2037L65.8362 51.4819H75.4612L62.0675 38.2037C61.4344 37.4594 61.0537 36.4926 61.0537 35.4403Z" fill="#CF8747"/>
<path d="M124.557 39.5624C124.557 38.7496 124.767 38.001 125.092 37.3123C124.236 35.4942 122.418 34.2151 120.279 34.2151C117.328 34.2151 114.932 36.6107 114.932 39.5624C114.932 42.514 117.328 44.9096 120.279 44.9096C122.418 44.9096 124.236 43.6305 125.092 41.8125C124.767 41.1238 124.557 40.3752 124.557 39.5624Z" fill="#EBA62B"/>
<path d="M107.443 60.9481C107.443 60.1353 107.652 59.3867 107.978 58.698C107.122 56.8799 105.304 55.6009 103.165 55.6009C100.213 55.6009 97.8179 57.9964 97.8179 60.9481C97.8179 63.8998 100.213 66.2953 103.165 66.2953C105.304 66.2953 107.122 65.0163 107.978 63.1982C107.652 62.5095 107.443 61.7609 107.443 60.9481Z" fill="#EBA62B"/>
<path d="M81.7862 48.1346C81.7862 47.3219 81.9958 46.5732 82.3209 45.8845C81.4653 44.0665 79.6473 42.7874 77.5084 42.7874C74.5567 42.7874 72.1611 45.183 72.1611 48.1346C72.1611 51.0863 74.5567 53.4819 77.5084 53.4819C79.6473 53.4819 81.4653 52.2028 82.3209 50.3847C81.9958 49.696 81.7862 48.9474 81.7862 48.1346Z" fill="#EBA62B"/>
<path d="M120.269 48.1378C115.551 48.1378 111.714 44.3006 111.714 39.5822C111.714 34.8638 115.551 31.0267 120.269 31.0267C124.988 31.0267 128.825 34.8638 128.825 39.5822C128.825 44.3006 124.988 48.1378 120.269 48.1378ZM120.269 37.4433C119.093 37.4433 118.131 38.4058 118.131 39.5822C118.131 40.7586 119.093 41.7211 120.269 41.7211C121.446 41.7211 122.408 40.7586 122.408 39.5822C122.408 38.4058 121.446 37.4433 120.269 37.4433Z" fill="black"/>
<path d="M103.17 69.5235C98.4514 69.5235 94.6143 65.6864 94.6143 60.968C94.6143 56.2496 98.4514 52.4124 103.17 52.4124C107.888 52.4124 111.725 56.2496 111.725 60.968C111.725 65.6864 107.888 69.5235 103.17 69.5235ZM103.17 58.8291C101.993 58.8291 101.031 59.7916 101.031 60.968C101.031 62.1444 101.993 63.1069 103.17 63.1069C104.346 63.1069 105.309 62.1444 105.309 60.968C105.309 59.7916 104.346 58.8291 103.17 58.8291Z" fill="black"/>
<path d="M77.4984 56.6798C72.78 56.6798 68.9429 52.8426 68.9429 48.1242C68.9429 43.4058 72.78 39.5687 77.4984 39.5687C82.2168 39.5687 86.054 43.4058 86.054 48.1242C86.054 52.8426 82.2168 56.6798 77.4984 56.6798ZM77.4984 45.9853C76.322 45.9853 75.3595 46.9478 75.3595 48.1242C75.3595 49.3006 76.322 50.2631 77.4984 50.2631C78.6748 50.2631 79.6373 49.3006 79.6373 48.1242C79.6373 46.9478 78.6748 45.9853 77.4984 45.9853Z" fill="black"/>
<path d="M104.661 53.9163L113.816 42.4422L118.834 46.4462L109.678 57.9203L104.661 53.9163Z" fill="black"/>
<path d="M81.7715 53.8255L84.6288 48.0723L98.9254 55.1728L96.0681 60.926L81.7715 53.8255Z" fill="black"/>
<path d="M54.6532 55.9918L40.113 44.3562C37.5977 42.3457 36.6523 39.086 37.7174 36.0402C38.7826 32.9945 41.5503 31.0267 44.7672 31.0267H64.2311V37.4433H44.7672C44.1512 37.4433 43.8903 37.8326 43.7791 38.1577C43.6678 38.4828 43.6336 38.9534 44.1213 39.3384L58.6657 50.9782L54.6532 55.9918Z" fill="black"/>
<path d="M39 50.2767H60.3889V56.6933H39V50.2767Z" fill="black"/>
<path d="M66.2839 110.149H53.9639V103.732H66.2839C67.7469 103.732 68.9361 102.543 68.9361 101.08C68.9361 99.5742 67.7469 98.385 66.2839 98.385H63.0328C58.032 98.385 53.9639 94.3168 53.9639 89.3161C53.9639 84.2726 58.032 80.2044 63.0328 80.2044H75.3528V86.6211H63.0328C61.5698 86.6211 60.3805 87.8103 60.3805 89.2733C60.3805 90.7791 61.5698 91.9683 63.0328 91.9683H66.2839C71.2846 91.9683 75.3528 96.0365 75.3528 101.037C75.3528 106.081 71.2846 110.149 66.2839 110.149Z" fill="black"/>
<path d="M61.4683 73.7679H67.8849V86.6013H61.4683V73.7679Z" fill="black"/>
<path d="M61.4683 103.726H67.8849V116.559H61.4683V103.726Z" fill="black"/>
<path d="M79.629 133.669H50.754C33.7626 133.669 26.1567 119.163 26.1567 104.794C26.1567 84.8257 39.3922 59.5483 54.4756 50.6976L57.7267 56.2287C44.564 63.9501 32.5734 87.1015 32.5734 104.794C32.5734 115.155 37.3346 127.253 50.754 127.253H79.629C95.0717 127.253 96.7401 111.545 96.7401 104.794C96.7401 97.0002 94.2547 87.4394 89.9213 78.5673L95.6877 75.7525C100.432 85.4716 103.157 96.0591 103.157 104.794C103.157 122.603 94.1435 133.669 79.629 133.669Z" fill="black"/>
</g>
<defs>
<clipPath id="clip0">
<rect width="154" height="154" fill="white" transform="translate(0.5 0.460327)"/>
</clipPath>
</defs>
</svg>
