<svg width="53" height="54" viewBox="0 0 53 54" fill="none" xmlns="http://www.w3.org/2000/svg">
<circle cx="30.2014" cy="27.2014" r="14.2014" fill="#EBA52C"/>
<path d="M25.75 40.5C33.3439 40.5 39.5 34.3439 39.5 26.75C39.5 19.1561 33.3439 13 25.75 13C18.1561 13 12 19.1561 12 26.75C12 34.3439 18.1561 40.5 25.75 40.5Z" stroke="#333333" stroke-width="2.14" stroke-linecap="round" stroke-linejoin="round"/>
<path d="M31.3088 29.9575C30.745 30.9326 29.9346 31.7422 28.959 32.3051C27.9834 32.868 26.8769 33.1643 25.7506 33.1643C24.6243 33.1643 23.5177 32.868 22.5421 32.3052C21.5665 31.7423 20.7562 30.9327 20.1924 29.9576" stroke="#333333" stroke-width="2.14" stroke-linecap="round" stroke-linejoin="round"/>
<path d="M20.9374 25.4134C21.6757 25.4134 22.2742 24.8148 22.2742 24.0766C22.2742 23.3383 21.6757 22.7397 20.9374 22.7397C20.1991 22.7397 19.6006 23.3383 19.6006 24.0766C19.6006 24.8148 20.1991 25.4134 20.9374 25.4134Z" fill="#242424"/>
<path d="M30.5624 25.4134C31.3007 25.4134 31.8992 24.8148 31.8992 24.0766C31.8992 23.3383 31.3007 22.7397 30.5624 22.7397C29.8241 22.7397 29.2256 23.3383 29.2256 24.0766C29.2256 24.8148 29.8241 25.4134 30.5624 25.4134Z" fill="#242424"/>
</svg>
