<svg width="97" height="97" viewBox="0 0 97 97" fill="none" xmlns="http://www.w3.org/2000/svg">
<path fill-rule="evenodd" clip-rule="evenodd" d="M48.21 96.9099C74.7196 96.9099 96.21 75.4196 96.21 48.9099C96.21 22.4002 74.7196 0.909912 48.21 0.909912C21.7003 0.909912 0.209961 22.4002 0.209961 48.9099C0.209961 75.4196 21.7003 96.9099 48.21 96.9099Z" fill="#EBD9D2"/>
<g clip-path="url(#clip0)">
<path d="M70.7995 26.3221C70.1556 25.681 69.3435 25.2351 68.457 25.036C67.5704 24.837 66.6456 24.8928 65.7895 25.1971L27.4945 40.9921C26.6114 41.2846 25.8327 41.8283 25.2538 42.5565C24.6749 43.2847 24.3208 44.1659 24.2348 45.0922C24.1489 46.0185 24.3348 46.9498 24.7699 47.7721C25.205 48.5944 25.8703 49.272 26.6845 49.7221L26.8495 49.7971L41.9545 56.0521C42.2517 56.1602 42.5731 56.1838 42.8829 56.1203C43.1927 56.0567 43.4789 55.9085 43.7095 55.6921L51.6145 47.7871C51.7795 47.6422 51.9131 47.4651 52.0069 47.2666C52.1008 47.0681 52.1529 46.8524 52.16 46.633C52.1672 46.4135 52.1292 46.1949 52.0485 45.9907C51.9678 45.7865 51.846 45.6011 51.6908 45.4458C51.5355 45.2905 51.35 45.1688 51.1458 45.0881C50.9416 45.0074 50.7231 44.9694 50.5036 44.9766C50.2841 44.9837 50.0685 45.0358 49.87 45.1296C49.6715 45.2235 49.4943 45.357 49.3495 45.5221L42.2095 52.6771L28.1545 46.8871C27.8943 46.7402 27.6839 46.5189 27.5503 46.2517C27.4167 45.9844 27.3659 45.6834 27.4045 45.3871C27.4375 45.0602 27.5682 44.7508 27.7796 44.4993C27.9909 44.2478 28.2732 44.0658 28.5895 43.9771L66.8995 28.1971C67.1799 28.101 67.4816 28.0852 67.7705 28.1514C68.0594 28.2177 68.324 28.3634 68.5345 28.5721C68.7351 28.7597 68.8804 28.9988 68.9545 29.2633C69.0285 29.5278 69.0285 29.8076 68.9545 30.0721L53.0995 68.6221C53.0125 68.9217 52.8343 69.1867 52.5897 69.3803C52.345 69.5739 52.0461 69.6863 51.7345 69.702C51.4382 69.7407 51.1371 69.6899 50.8699 69.5563C50.6026 69.4226 50.3814 69.2122 50.2345 68.952L46.3645 59.6071C46.2014 59.2092 45.8869 58.8925 45.4903 58.7265C45.0936 58.5606 44.6473 58.559 44.2495 58.7221C43.8517 58.8852 43.5349 59.1996 43.369 59.5963C43.203 59.9929 43.2014 60.4392 43.3645 60.8371L47.2795 70.287L47.3545 70.452C47.7654 71.208 48.3755 71.8369 49.1185 72.2705C49.8616 72.7042 50.7092 72.9261 51.5695 72.912H52.0345C52.945 72.8393 53.8146 72.5026 54.5366 71.9431C55.2587 71.3836 55.8018 70.6256 56.0995 69.7621L71.9545 31.2271C72.2391 30.3832 72.2817 29.4765 72.0776 28.6096C71.8734 27.7427 71.4307 26.9503 70.7995 26.3221Z" fill="black"/>
</g>
<defs>
<clipPath id="clip0">
<rect width="48" height="48" fill="white" transform="translate(24.21 24.9099)"/>
</clipPath>
</defs>
</svg>
