<svg width="97" height="97" viewBox="0 0 97 97" fill="none" xmlns="http://www.w3.org/2000/svg">
<path fill-rule="evenodd" clip-rule="evenodd" d="M48.21 96.781C74.7196 96.781 96.21 75.2907 96.21 48.781C96.21 22.2714 74.7196 0.781036 48.21 0.781036C21.7003 0.781036 0.209961 22.2714 0.209961 48.781C0.209961 75.2907 21.7003 96.781 48.21 96.781Z" fill="#EBD9D2"/>
<g clip-path="url(#clip0)">
<path d="M48.2076 52.0146C46.5605 52.0146 44.9503 51.5262 43.5808 50.6111C42.2112 49.696 41.1438 48.3953 40.5135 46.8735C39.8831 45.3518 39.7182 43.6773 40.0395 42.0618C40.3609 40.4463 41.1541 38.9624 42.3188 37.7976C43.4835 36.6329 44.9674 35.8398 46.5829 35.5184C48.1984 35.1971 49.8729 35.362 51.3947 35.9923C52.9164 36.6227 54.2171 37.6901 55.1322 39.0597C56.0473 40.4292 56.5358 42.0394 56.5358 43.6865C56.5316 45.894 55.6529 48.0099 54.0919 49.5708C52.531 51.1318 50.4151 52.0105 48.2076 52.0146ZM48.2076 38.6865C47.2187 38.6865 46.252 38.9798 45.4298 39.5292C44.6075 40.0786 43.9667 40.8595 43.5882 41.7731C43.2098 42.6867 43.1108 43.6921 43.3037 44.662C43.4966 45.6319 43.9728 46.5228 44.6721 47.222C45.3714 47.9213 46.2623 48.3975 47.2322 48.5904C48.2021 48.7834 49.2074 48.6843 50.1211 48.3059C51.0347 47.9275 51.8156 47.2866 52.365 46.4644C52.9144 45.6421 53.2076 44.6754 53.2076 43.6865C53.2076 42.3604 52.6808 41.0887 51.7432 40.151C50.8055 39.2133 49.5337 38.6865 48.2076 38.6865Z" fill="black"/>
<path d="M64.8813 53.6873C63.5618 53.6873 62.2718 53.296 61.1747 52.5629C60.0775 51.8297 59.2223 50.7877 58.7173 49.5686C58.2124 48.3495 58.0802 47.008 58.3377 45.7138C58.5951 44.4196 59.2305 43.2307 60.1636 42.2977C61.0967 41.3646 62.2855 40.7291 63.5797 40.4717C64.8739 40.2143 66.2154 40.3464 67.4346 40.8514C68.6537 41.3564 69.6957 42.2115 70.4288 43.3087C71.1619 44.4059 71.5532 45.6958 71.5532 47.0154C71.5532 48.7849 70.8503 50.4819 69.5991 51.7331C68.3479 52.9843 66.6508 53.6873 64.8813 53.6873ZM64.8813 43.6873C64.2231 43.6873 63.5796 43.8825 63.0323 44.2482C62.485 44.6139 62.0585 45.1336 61.8066 45.7418C61.5547 46.3499 61.4888 47.0191 61.6172 47.6647C61.7456 48.3103 62.0626 48.9033 62.528 49.3687C62.9935 49.8342 63.5865 50.1512 64.2321 50.2796C64.8777 50.408 65.5468 50.3421 66.155 50.0902C66.7631 49.8383 67.2829 49.4117 67.6486 48.8644C68.0143 48.3171 68.2095 47.6736 68.2095 47.0154C68.2054 46.134 67.8534 45.2898 67.2301 44.6666C66.6069 44.0433 65.7628 43.6914 64.8813 43.6873Z" fill="black"/>
<path d="M31.5418 53.6873C30.2222 53.6873 28.9322 53.296 27.8351 52.5629C26.7379 51.8297 25.8827 50.7877 25.3777 49.5686C24.8728 48.3495 24.7406 47.008 24.9981 45.7138C25.2555 44.4196 25.8909 43.2307 26.824 42.2977C27.7571 41.3646 28.9459 40.7291 30.2401 40.4717C31.5344 40.2143 32.8758 40.3464 34.095 40.8514C35.3141 41.3564 36.3561 42.2115 37.0892 43.3087C37.8223 44.4059 38.2136 45.6958 38.2136 47.0154C38.2136 48.7849 37.5107 50.4819 36.2595 51.7331C35.0083 52.9843 33.3112 53.6873 31.5418 53.6873ZM31.5418 43.6873C30.8835 43.6873 30.2401 43.8825 29.6927 44.2482C29.1454 44.6139 28.7189 45.1336 28.467 45.7418C28.2151 46.3499 28.1492 47.0191 28.2776 47.6647C28.406 48.3103 28.723 48.9033 29.1884 49.3687C29.6539 49.8342 30.2469 50.1512 30.8925 50.2796C31.5381 50.408 32.2072 50.3421 32.8154 50.0902C33.4235 49.8383 33.9433 49.4117 34.309 48.8644C34.6747 48.3171 34.8699 47.6736 34.8699 47.0154C34.8658 46.134 34.5138 45.2898 33.8906 44.6666C33.2673 44.0433 32.4232 43.6914 31.5418 43.6873Z" fill="black"/>
<path d="M58.2062 65.0468C57.7838 65.0438 57.3782 64.881 57.071 64.5911C56.7637 64.3012 56.5776 63.9058 56.5499 63.4843C56.41 62.0532 55.7418 60.7256 54.6757 59.7606C53.6097 58.7957 52.2222 58.2626 50.7843 58.2656H45.6281C44.1901 58.2626 42.8027 58.7957 41.7366 59.7606C40.6706 60.7256 40.0023 62.0532 39.8624 63.4843C39.7824 63.8925 39.5531 64.2562 39.2192 64.5044C38.8853 64.7526 38.471 64.8674 38.057 64.8264C37.643 64.7854 37.2592 64.5915 36.9805 64.2827C36.7019 63.9738 36.5483 63.5722 36.5499 63.1562C36.7896 60.9187 37.8505 58.8495 39.5273 57.3488C41.2041 55.848 43.3778 55.0223 45.6281 55.0312H50.7843C53.0492 55.0246 55.2351 55.8634 56.9141 57.3835C58.5932 58.9036 59.6445 60.9955 59.8624 63.2499C59.8838 63.4733 59.86 63.6987 59.7924 63.9127C59.7249 64.1267 59.6149 64.3249 59.4691 64.4955C59.3233 64.6661 59.1446 64.8056 58.9438 64.9057C58.7429 65.0058 58.5239 65.0644 58.2999 65.0781L58.2062 65.0468Z" fill="black"/>
<path d="M71.5328 63.9219C71.1104 63.9189 70.7048 63.7561 70.3975 63.4662C70.0903 63.1763 69.9041 62.7809 69.8765 62.3594C69.7983 61.5417 69.4163 60.7831 68.8058 60.2334C68.1954 59.6837 67.401 59.383 66.5796 59.3907H63.1421C62.8143 59.3921 62.4882 59.4395 62.1734 59.5313C61.9555 59.6533 61.713 59.725 61.4637 59.741C61.2145 59.7571 60.9648 59.7171 60.733 59.6239C60.5013 59.5308 60.2933 59.3869 60.1245 59.2029C59.9556 59.0188 59.8302 58.7993 59.7573 58.5604C59.6844 58.3214 59.666 58.0693 59.7034 57.8223C59.7408 57.5753 59.8331 57.3399 59.9734 57.1333C60.1137 56.9267 60.2986 56.7541 60.5143 56.6283C60.7301 56.5025 60.9713 56.4266 61.2203 56.4063C61.8443 56.2216 62.4914 56.1269 63.1421 56.125H66.5796C68.2297 56.1134 69.8244 56.7193 71.0504 57.8238C72.2763 58.9283 73.0447 60.4515 73.2046 62.0938C73.226 62.3172 73.2022 62.5426 73.1346 62.7566C73.0671 62.9706 72.9571 63.1688 72.8113 63.3394C72.6655 63.51 72.4868 63.6495 72.286 63.7496C72.0851 63.8497 71.8661 63.9083 71.6421 63.9219H71.5328Z" fill="black"/>
<path d="M24.8797 63.9218H24.7703C24.5463 63.9082 24.3274 63.8496 24.1265 63.7495C23.9256 63.6494 23.747 63.5099 23.6012 63.3393C23.4553 63.1687 23.3454 62.9705 23.2778 62.7565C23.2102 62.5425 23.1864 62.3171 23.2078 62.0937C23.3675 60.4541 24.1337 58.9332 25.3563 57.8291C26.5789 56.7249 28.1698 56.1172 29.8172 56.125H33.2547C33.9054 56.1269 34.5526 56.2216 35.1766 56.4062C35.4255 56.4266 35.6667 56.5024 35.8825 56.6282C36.0983 56.754 36.2831 56.9266 36.4234 57.1332C36.5638 57.3398 36.656 57.5753 36.6934 57.8222C36.7308 58.0692 36.7124 58.3214 36.6395 58.5603C36.5667 58.7992 36.4412 59.0187 36.2724 59.2028C36.1035 59.3868 35.8956 59.5307 35.6638 59.6238C35.432 59.717 35.1824 59.757 34.9331 59.741C34.6838 59.7249 34.4414 59.6533 34.2234 59.5312C33.9087 59.4394 33.5826 59.3921 33.2547 59.3906H29.8172C28.9958 59.3829 28.2014 59.6837 27.591 60.2333C26.9806 60.783 26.5985 61.5416 26.5203 62.3593C26.4929 62.7782 26.309 63.1714 26.005 63.4609C25.7011 63.7503 25.2994 63.9149 24.8797 63.9218Z" fill="black"/>
</g>
<defs>
<clipPath id="clip0">
<rect width="50" height="50" fill="white" transform="translate(23.21 23.781)"/>
</clipPath>
</defs>
</svg>
