<svg width="97" height="97" viewBox="0 0 97 97" fill="none" xmlns="http://www.w3.org/2000/svg">
<path fill-rule="evenodd" clip-rule="evenodd" d="M48.21 96.781C74.7196 96.781 96.21 75.2907 96.21 48.781C96.21 22.2714 74.7196 0.781036 48.21 0.781036C21.7003 0.781036 0.209961 22.2714 0.209961 48.781C0.209961 75.2907 21.7003 96.781 48.21 96.781Z" fill="#EBD9D2"/>
<g clip-path="url(#clip0)">
<path d="M59.878 48.907C59.5473 48.9101 59.2232 48.815 58.9466 48.6339C58.6699 48.4528 58.4532 48.1937 58.3238 47.8894C58.1945 47.5851 58.1582 47.2492 58.2197 46.9243C58.2812 46.5994 58.4376 46.3001 58.6692 46.0641C58.9009 45.8281 59.1972 45.6661 59.5209 45.5986C59.8446 45.531 60.1811 45.561 60.4877 45.6846C60.7944 45.8083 61.0575 46.0201 61.2438 46.2933C61.4301 46.5665 61.5311 46.8888 61.5342 47.2195C61.5363 47.4403 61.4946 47.6594 61.4115 47.8641C61.3284 48.0687 61.2056 48.2549 61.0501 48.4118C60.8947 48.5687 60.7097 48.6933 60.5058 48.7782C60.3019 48.8632 60.0832 48.907 59.8624 48.907H59.878Z" fill="black"/>
<path d="M51.5381 72.1101C50.5093 72.105 49.5071 71.7827 48.6682 71.1871C47.8293 70.5915 47.1946 69.7516 46.8506 68.782H42.9443C42.7 69.4873 42.2994 70.1283 41.7725 70.657C40.8154 71.5602 39.5493 72.0633 38.2334 72.0633C36.9175 72.0633 35.6514 71.5602 34.6943 70.657C33.8168 69.7833 33.2984 68.6127 33.2412 67.3757C30.2856 66.0903 27.7655 63.9765 25.9854 61.2896C24.2053 58.6028 23.2413 55.458 23.21 52.2351C23.2124 48.1518 24.752 44.2191 27.5225 41.2195C27.8265 40.9152 28.2361 40.7397 28.6661 40.7297C29.0962 40.7196 29.5135 40.8757 29.8315 41.1654C30.1494 41.4552 30.3434 41.8563 30.3731 42.2854C30.4029 42.7146 30.2661 43.1386 29.9912 43.4695C27.7817 45.8487 26.5489 48.9726 26.5381 52.2195C26.5543 54.9645 27.4167 57.6377 29.0078 59.8747C30.5988 62.1116 32.841 63.8034 35.4287 64.7195C35.7515 64.8348 36.031 65.0465 36.2295 65.326C36.4279 65.6055 36.5356 65.9392 36.5381 66.282V67.1414C36.5358 67.3616 36.5775 67.58 36.6607 67.7839C36.7438 67.9878 36.8668 68.1731 37.0225 68.3289C37.3432 68.6265 37.7646 68.7919 38.2021 68.7919C38.6397 68.7919 39.0611 68.6265 39.3818 68.3289C39.5368 68.1725 39.6593 67.9872 39.7424 67.7834C39.8255 67.5796 39.8676 67.3614 39.8662 67.1414C39.8662 66.698 40.0424 66.2727 40.3559 65.9592C40.6694 65.6456 41.0947 65.4695 41.5381 65.4695H48.21C48.6534 65.4695 49.0786 65.6456 49.3922 65.9592C49.7057 66.2727 49.8818 66.698 49.8818 67.1414C49.8593 67.3734 49.8856 67.6077 49.959 67.829C50.0324 68.0503 50.1512 68.2538 50.3079 68.4265C50.4647 68.5991 50.6557 68.7371 50.8689 68.8315C51.0821 68.9259 51.3127 68.9747 51.5459 68.9747C51.7791 68.9747 52.0097 68.9259 52.2229 68.8315C52.4361 68.7371 52.6271 68.5991 52.7839 68.4265C52.9406 68.2538 53.0594 68.0503 53.1328 67.829C53.2062 67.6077 53.2325 67.3734 53.21 67.1414V66.7507C53.2247 66.3841 53.3596 66.0324 53.594 65.75C53.8284 65.4677 54.1492 65.2703 54.5068 65.1882C57.4339 64.5066 60.0442 62.8545 61.9131 60.5007C62.1991 60.1885 62.5929 59.9964 63.0151 59.9633C63.4372 59.9302 63.8562 60.0584 64.1875 60.3222C64.5187 60.586 64.7375 60.9657 64.7997 61.3845C64.8618 61.8034 64.7628 62.2302 64.5225 62.5789C62.44 65.1646 59.6324 67.069 56.46 68.0476C56.2415 69.1922 55.6301 70.2245 54.7315 70.9662C53.8328 71.708 52.7033 72.1126 51.5381 72.1101Z" fill="black"/>
<path d="M68.2064 58.7843C67.9744 58.8068 67.7401 58.7805 67.5188 58.7071C67.2975 58.6337 67.094 58.5149 66.9213 58.3582C66.7487 58.2014 66.6107 58.0103 66.5163 57.7971C66.4219 57.584 66.3731 57.3534 66.3731 57.1202C66.3731 56.887 66.4219 56.6564 66.5163 56.4432C66.6107 56.23 66.7487 56.0389 66.9213 55.8822C67.094 55.7255 67.2975 55.6067 67.5188 55.5333C67.7401 55.4599 67.9744 55.4336 68.2064 55.4561C68.6498 55.4561 69.0751 55.28 69.3886 54.9665C69.7022 54.6529 69.8783 54.2277 69.8783 53.7843V50.4561C69.8783 50.0127 69.7022 49.5875 69.3886 49.2739C69.0751 48.9604 68.6498 48.7843 68.2064 48.7843H65.6752C65.3324 48.7818 64.9987 48.6741 64.7192 48.4756C64.4397 48.2772 64.228 47.9977 64.1127 47.6749C63.4737 45.8547 62.4444 44.1962 61.097 42.8155C60.884 42.5967 60.735 42.3238 60.6662 42.0263C60.5973 41.7288 60.6112 41.4181 60.7064 41.128L62.4877 35.7061C61.6901 35.8227 60.9395 36.1551 60.3171 36.6673C59.6948 37.1795 59.2242 37.8521 58.9564 38.6124C58.9015 38.8524 58.7947 39.0774 58.6435 39.2718C58.4924 39.4661 58.3005 39.6251 58.0814 39.7374C57.8611 39.8395 57.6212 39.8924 57.3783 39.8924C57.1354 39.8924 56.8955 39.8395 56.6752 39.7374C55.0519 39.0596 53.3092 38.7143 51.5502 38.7218H40.3939C38.878 38.7208 37.3727 38.9744 35.9408 39.4718C35.5456 39.5504 35.1354 39.4836 34.7855 39.2838C34.4357 39.084 34.1697 38.7646 34.0366 38.3843C33.9035 38.004 33.9122 37.5885 34.0611 37.2141C34.21 36.8397 34.4891 36.5317 34.847 36.3468C36.6333 35.7423 38.5082 35.4413 40.3939 35.4561H51.5033C53.1498 35.4533 54.7875 35.6955 56.3627 36.1749C56.9415 35.2297 57.7094 34.4142 58.6182 33.7797C59.527 33.1451 60.5571 32.7052 61.6439 32.4874C62.2232 32.3362 62.8325 32.3441 63.4076 32.5102C63.9828 32.6763 64.5024 32.9945 64.9119 33.4311C65.3214 33.8678 65.6056 34.4069 65.7344 34.9915C65.8632 35.5761 65.832 36.1847 65.6439 36.753L64.1752 41.2374C65.2604 42.4987 66.1505 43.9154 66.8158 45.4405H68.2221C69.5481 45.4405 70.8199 45.9673 71.7576 46.905C72.6953 47.8427 73.2221 49.1144 73.2221 50.4405V53.7843C73.2221 54.4422 73.0922 55.0936 72.84 55.7013C72.5877 56.3089 72.218 56.8608 71.7521 57.3253C71.2861 57.7898 70.7331 58.1578 70.1246 58.4081C69.5162 58.6585 68.8644 58.7863 68.2064 58.7843Z" fill="black"/>
<path d="M49.8893 33.7804C49.6697 33.7804 49.4523 33.7372 49.2495 33.6532C49.0466 33.5691 48.8623 33.446 48.7071 33.2908C48.5518 33.1355 48.4287 32.9512 48.3447 32.7484C48.2607 32.5455 48.2174 32.3281 48.2174 32.1086C48.2174 31.2238 47.8659 30.3753 47.2403 29.7497C46.6147 29.1241 45.7662 28.7726 44.8815 28.7726C43.9967 28.7726 43.1482 29.1241 42.5226 29.7497C41.897 30.3753 41.5455 31.2238 41.5455 32.1086C41.568 32.3406 41.5418 32.5749 41.4684 32.7962C41.395 33.0175 41.2761 33.221 41.1194 33.3937C40.9627 33.5663 40.7716 33.7043 40.5584 33.7987C40.3452 33.8931 40.1146 33.9419 39.8815 33.9419C39.6483 33.9419 39.4177 33.8931 39.2045 33.7987C38.9913 33.7043 38.8002 33.5663 38.6435 33.3937C38.4868 33.221 38.3679 33.0175 38.2946 32.7962C38.2212 32.5749 38.1949 32.3406 38.2174 32.1086C38.1737 31.2063 38.3137 30.3045 38.6289 29.4579C38.944 28.6114 39.4279 27.8376 40.051 27.1836C40.6741 26.5296 41.4235 26.0089 42.2539 25.6531C43.0842 25.2973 43.9781 25.1139 44.8815 25.1139C45.7848 25.1139 46.6787 25.2973 47.5091 25.6531C48.3394 26.0089 49.0889 26.5296 49.712 27.1836C50.3351 27.8376 50.8189 28.6114 51.1341 29.4579C51.4493 30.3045 51.5892 31.2063 51.5455 32.1086C51.5455 32.5493 51.3716 32.9722 51.0614 33.2853C50.7512 33.5984 50.33 33.7763 49.8893 33.7804Z" fill="black"/>
</g>
<defs>
<clipPath id="clip0">
<rect width="50" height="50" fill="white" transform="translate(23.21 23.781)"/>
</clipPath>
</defs>
</svg>
