<svg width="97" height="97" viewBox="0 0 97 97" fill="none" xmlns="http://www.w3.org/2000/svg">
<path fill-rule="evenodd" clip-rule="evenodd" d="M48.21 96.9099C74.7196 96.9099 96.21 75.4196 96.21 48.9099C96.21 22.4002 74.7196 0.909912 48.21 0.909912C21.7003 0.909912 0.209961 22.4002 0.209961 48.9099C0.209961 75.4196 21.7003 96.9099 48.21 96.9099Z" fill="#EBD9D2"/>
<g clip-path="url(#clip0)">
<path d="M32.2054 40.9148C31.7823 40.9108 31.3779 40.74 31.0802 40.4394C30.7824 40.1388 30.6154 39.7329 30.6154 39.3098C30.6154 38.6794 30.4912 38.0553 30.25 37.4729C30.0088 36.8906 29.6552 36.3614 29.2095 35.9157C28.7638 35.47 28.2346 35.1164 27.6523 34.8752C27.0699 34.634 26.4457 34.5098 25.8154 34.5098C25.5926 34.5314 25.3678 34.5062 25.1553 34.4358C24.9428 34.3653 24.7474 34.2512 24.5817 34.1008C24.416 33.9503 24.2835 33.7669 24.1929 33.5622C24.1022 33.3575 24.0554 33.1362 24.0554 32.9123C24.0554 32.6885 24.1022 32.4671 24.1929 32.2625C24.2835 32.0578 24.416 31.8743 24.5817 31.7239C24.7474 31.5735 24.9428 31.4594 25.1553 31.3889C25.3678 31.3185 25.5926 31.2932 25.8154 31.3148C26.6554 31.3134 27.4802 31.0908 28.207 30.6695C28.9337 30.2483 29.5367 29.6431 29.9554 28.9149C30.3908 28.1903 30.6191 27.3602 30.6154 26.5149C30.5938 26.2921 30.619 26.0672 30.6895 25.8548C30.7599 25.6423 30.874 25.4469 31.0245 25.2812C31.1749 25.1154 31.3584 24.983 31.563 24.8924C31.7677 24.8017 31.9891 24.7549 32.2129 24.7549C32.4367 24.7549 32.6581 24.8017 32.8628 24.8924C33.0674 24.983 33.2509 25.1154 33.4013 25.2812C33.5518 25.4469 33.6659 25.6423 33.7363 25.8548C33.8068 26.0672 33.832 26.2921 33.8104 26.5149C33.8094 27.3551 34.0376 28.1797 34.4704 28.8999C34.6452 29.2018 34.7169 29.5525 34.6745 29.8989C34.6322 30.2453 34.4781 30.5684 34.2357 30.8193C33.9932 31.0702 33.6756 31.2353 33.3309 31.2895C32.9862 31.3438 32.6332 31.2842 32.3254 31.1198C31.8476 31.8016 31.2655 32.404 30.6004 32.9048C31.2081 33.3618 31.7484 33.9021 32.2054 34.5098C32.9513 33.5162 33.9186 32.7101 35.0304 32.1555C36.1422 31.6009 37.3679 31.3131 38.6104 31.3148C38.8332 31.2932 39.058 31.3185 39.2705 31.3889C39.483 31.4594 39.6784 31.5735 39.8441 31.7239C40.0098 31.8743 40.1423 32.0578 40.2329 32.2625C40.3236 32.4671 40.3704 32.6885 40.3704 32.9123C40.3704 33.1362 40.3236 33.3575 40.2329 33.5622C40.1423 33.7669 40.0098 33.9503 39.8441 34.1008C39.6784 34.2512 39.483 34.3653 39.2705 34.4358C39.058 34.5062 38.8332 34.5314 38.6104 34.5098C37.3374 34.5098 36.1165 35.0155 35.2163 35.9157C34.3161 36.8159 33.8104 38.0368 33.8104 39.3098C33.8104 39.5206 33.7689 39.7293 33.6882 39.924C33.6076 40.1187 33.4893 40.2956 33.3403 40.4447C33.1913 40.5937 33.0143 40.7119 32.8196 40.7926C32.6249 40.8733 32.4162 40.9148 32.2054 40.9148Z" fill="black"/>
<path d="M32.2053 72.9099C31.7796 72.9099 31.3714 72.7408 31.0704 72.4398C30.7694 72.1388 30.6003 71.7306 30.6003 71.3049C30.6012 70.4647 30.373 69.6401 29.9403 68.9199C29.7694 68.6193 29.7003 68.2716 29.743 67.9285C29.7858 67.5854 29.9382 67.2653 30.1776 67.0158C30.4169 66.7663 30.7305 66.6008 31.0715 66.5439C31.4125 66.4869 31.7628 66.5417 32.0703 66.6999C32.5481 66.0181 33.1302 65.4158 33.7953 64.9149C33.1929 64.4568 32.6577 63.9166 32.2053 63.3099C31.4609 64.3063 30.4943 65.1153 29.3824 65.6725C28.2706 66.2298 27.044 66.5199 25.8003 66.5199C25.5775 66.5415 25.3526 66.5163 25.1402 66.4459C24.9277 66.3754 24.7323 66.2613 24.5666 66.1109C24.4008 65.9604 24.2684 65.777 24.1777 65.5723C24.0871 65.3676 24.0403 65.1463 24.0403 64.9224C24.0403 64.6986 24.0871 64.4772 24.1777 64.2726C24.2684 64.0679 24.4008 63.8844 24.5666 63.734C24.7323 63.5835 24.9277 63.4694 25.1402 63.399C25.3526 63.3285 25.5775 63.3033 25.8003 63.3249C26.4306 63.3249 27.0548 63.2008 27.6371 62.9596C28.2195 62.7183 28.7487 62.3648 29.1944 61.919C29.6401 61.4733 29.9937 60.9442 30.2349 60.3618C30.4761 59.7794 30.6003 59.1553 30.6003 58.5249C30.5786 58.3021 30.6039 58.0773 30.6743 57.8648C30.7448 57.6524 30.8589 57.457 31.0093 57.2912C31.1598 57.1255 31.3432 56.993 31.5479 56.9024C31.7526 56.8118 31.9739 56.765 32.1978 56.765C32.4216 56.765 32.643 56.8118 32.8476 56.9024C33.0523 56.993 33.2358 57.1255 33.3862 57.2912C33.5366 57.457 33.6508 57.6524 33.7212 57.8648C33.7916 58.0773 33.8169 58.3021 33.7953 58.5249C33.7953 59.798 34.301 61.0189 35.2011 61.919C36.1013 62.8192 37.3222 63.3249 38.5953 63.3249C38.8181 63.3033 39.0429 63.3285 39.2554 63.399C39.4678 63.4694 39.6632 63.5835 39.829 63.734C39.9947 63.8844 40.1272 64.0679 40.2178 64.2726C40.3084 64.4772 40.3552 64.6986 40.3552 64.9224C40.3552 65.1463 40.3084 65.3676 40.2178 65.5723C40.1272 65.777 39.9947 65.9604 39.829 66.1109C39.6632 66.2613 39.4678 66.3754 39.2554 66.4459C39.0429 66.5163 38.8181 66.5415 38.5953 66.5199C37.7553 66.5214 36.9304 66.7439 36.2037 67.1652C35.477 67.5865 34.874 68.1917 34.4553 68.9199C34.0198 69.6445 33.7916 70.4746 33.7953 71.3199C33.7914 71.7404 33.6226 72.1426 33.3252 72.4399C33.0279 72.7372 32.6257 72.906 32.2053 72.9099Z" fill="black"/>
<path d="M53.0094 68.11C52.5837 68.11 52.1755 67.9409 51.8745 67.6399C51.5735 67.3389 51.4044 66.9306 51.4044 66.505C51.3913 64.332 50.938 62.1842 50.0718 60.1914C49.2055 58.1985 47.9443 56.4018 46.3644 54.91C46.1033 54.6096 45.9632 54.2229 45.9712 53.825C45.9791 53.4271 46.1346 53.0464 46.4075 52.7567C46.6804 52.467 47.0512 52.289 47.4479 52.2573C47.8446 52.2255 48.2389 52.3423 48.5544 52.585C50.4648 54.3651 51.9955 56.5131 53.0544 58.9C54.9784 54.4471 58.5071 50.881 62.9394 48.91C58.501 46.9627 54.9566 43.4184 53.0094 38.98C51.5143 42.4041 49.054 45.3186 45.9293 47.3671C42.8045 49.4156 39.1507 50.5095 35.4144 50.515C35.0174 50.4765 34.649 50.2915 34.3809 49.9962C34.1129 49.7009 33.9644 49.3163 33.9644 48.9175C33.9644 48.5186 34.1129 48.1341 34.3809 47.8388C34.649 47.5434 35.0174 47.3585 35.4144 47.32C39.6553 47.312 43.7201 45.6228 46.7175 42.6225C49.715 39.6223 51.4004 35.556 51.4044 31.315C51.4429 30.918 51.6278 30.5496 51.9232 30.2815C52.2185 30.0135 52.603 29.865 53.0019 29.865C53.4007 29.865 53.7853 30.0135 54.0806 30.2815C54.3759 30.5496 54.5609 30.918 54.5994 31.315C54.6073 35.5559 56.2966 39.6207 59.2968 42.6181C62.297 45.6156 66.3634 47.301 70.6044 47.305C71.0014 47.3435 71.3698 47.5284 71.6378 47.8238C71.9059 48.1191 72.0544 48.5036 72.0544 48.9025C72.0544 49.3013 71.9059 49.6859 71.6378 49.9812C71.3698 50.2765 71.0014 50.4615 70.6044 50.5C66.3634 50.5079 62.2986 52.1972 59.3012 55.1974C56.3038 58.1976 54.6183 62.264 54.6144 66.505C54.6144 66.9306 54.4453 67.3389 54.1443 67.6399C53.8433 67.9409 53.4351 68.11 53.0094 68.11Z" fill="black"/>
</g>
<defs>
<clipPath id="clip0">
<rect width="48" height="48" fill="white" transform="translate(24.21 24.9099)"/>
</clipPath>
</defs>
</svg>
