<svg width="97" height="97" viewBox="0 0 97 97" fill="none" xmlns="http://www.w3.org/2000/svg">
<path fill-rule="evenodd" clip-rule="evenodd" d="M48.21 96.781C74.7196 96.781 96.21 75.2907 96.21 48.781C96.21 22.2714 74.7196 0.781036 48.21 0.781036C21.7003 0.781036 0.209961 22.2714 0.209961 48.781C0.209961 75.2907 21.7003 96.781 48.21 96.781Z" fill="#EBD9D2"/>
<g clip-path="url(#clip0)">
<path d="M51.4198 61.516C50.1507 61.516 48.9336 61.0119 48.0363 60.1145C47.1389 59.2171 46.6348 58.0001 46.6348 56.731V47.116C46.6348 46.4856 46.7589 45.8615 47.0001 45.2791C47.2414 44.6967 47.5949 44.1676 48.0407 43.7219C48.4864 43.2762 49.0155 42.9226 49.5979 42.6814C50.1803 42.4401 50.8044 42.316 51.4348 42.316H54.6148C55.0405 42.316 55.4487 42.4851 55.7497 42.7861C56.0507 43.0871 56.2198 43.4953 56.2198 43.921V56.731C56.2198 57.3606 56.0955 57.9841 55.8541 58.5656C55.6127 59.1471 55.2589 59.6753 54.813 60.1198C54.3671 60.5643 53.8378 60.9165 53.2555 61.1561C52.6732 61.3957 52.0494 61.518 51.4198 61.516ZM51.4198 45.511C50.9941 45.511 50.5859 45.6801 50.2849 45.9811C49.9839 46.2821 49.8148 46.6903 49.8148 47.116V56.731C49.8148 57.1527 49.9823 57.5571 50.2805 57.8553C50.5787 58.1535 50.9831 58.321 51.4048 58.321C51.8265 58.321 52.2309 58.1535 52.5291 57.8553C52.8273 57.5571 52.9948 57.1527 52.9948 56.731V45.511H51.4198Z" fill="black"/>
<path d="M40.2153 61.5158C39.5856 61.5178 38.9618 61.3955 38.3795 61.1559C37.7973 60.9163 37.268 60.5642 36.8221 60.1196C36.3762 59.6751 36.0224 59.147 35.7809 58.5654C35.5395 57.9839 35.4153 57.3605 35.4153 56.7308V51.9158C35.4153 50.6428 35.921 49.4219 36.8212 48.5217C37.7213 47.6215 38.9422 47.1158 40.2153 47.1158H43.3953C43.6112 47.1157 43.8249 47.1591 44.0237 47.2435C44.2224 47.3279 44.4021 47.4515 44.5519 47.6069C44.7018 47.7624 44.8187 47.9465 44.8958 48.1482C44.9728 48.3499 45.0084 48.5651 45.0003 48.7808V56.7308C45.0003 57.9999 44.4962 59.217 43.5988 60.1143C42.7014 61.0117 41.4843 61.5158 40.2153 61.5158ZM40.2153 50.3258C39.7922 50.3258 39.3862 50.4928 39.0856 50.7906C38.7851 51.0884 38.6142 51.4928 38.6103 51.9158V56.7308C38.6103 56.9396 38.6514 57.1464 38.7313 57.3393C38.8112 57.5322 38.9283 57.7075 39.076 57.8551C39.2236 58.0028 39.3989 58.1199 39.5918 58.1998C39.7847 58.2797 39.9915 58.3208 40.2003 58.3208C40.622 58.3208 41.0264 58.1533 41.3246 57.8551C41.6228 57.5569 41.7903 57.1525 41.7903 56.7308V50.2808L40.2153 50.3258Z" fill="black"/>
<path d="M29.01 61.5161C27.7369 61.5161 26.516 61.0104 25.6158 60.1102C24.7157 59.21 24.21 57.9891 24.21 56.7161C24.21 55.4431 24.7157 54.2222 25.6158 53.322C26.516 52.4218 27.7369 51.9161 29.01 51.9161H32.19C32.6156 51.9161 33.0239 52.0852 33.3249 52.3862C33.6259 52.6872 33.795 53.0954 33.795 53.5211V56.7311C33.795 58.0001 33.2908 59.2172 32.3935 60.1146C31.4961 61.012 30.279 61.5161 29.01 61.5161ZM29.01 55.1261C28.5863 55.1261 28.1799 55.2944 27.8804 55.594C27.5808 55.8936 27.4125 56.2999 27.4125 56.7236C27.4125 57.1473 27.5808 57.5536 27.8804 57.8532C28.1799 58.1528 28.5863 58.3211 29.01 58.3211C29.4291 58.3171 29.8296 58.1479 30.1246 57.8501C30.4195 57.5524 30.585 57.1502 30.585 56.7311V55.1261H29.01Z" fill="black"/>
<path d="M62.6249 61.5158C61.3544 61.5158 60.1358 61.0122 59.236 60.1152C58.3363 59.2183 57.8288 58.0012 57.8249 56.7308V40.3658C57.094 40.051 56.4708 39.5302 56.0312 38.8668C55.5917 38.2035 55.3549 37.4265 55.3499 36.6308C55.3517 35.785 55.6193 34.9612 56.1149 34.2758L59.3399 29.7758C59.7151 29.2508 60.2104 28.8231 60.7844 28.5282C61.3584 28.2334 61.9946 28.08 62.6399 28.0808C63.2865 28.0817 63.9235 28.2374 64.4976 28.5349C65.0717 28.8324 65.5663 29.263 65.9399 29.7908L69.1349 34.2908C69.5672 34.8991 69.8237 35.6146 69.8764 36.3589C69.9291 37.1033 69.7758 37.8478 69.4334 38.5108C69.0911 39.1739 68.5728 39.7299 67.9354 40.118C67.298 40.506 66.5661 40.7111 65.8199 40.7108C65.4229 40.6723 65.0545 40.4874 64.7864 40.192C64.5183 39.8967 64.3698 39.5122 64.3698 39.1133C64.3698 38.7145 64.5183 38.3299 64.7864 38.0346C65.0545 37.7393 65.4229 37.5543 65.8199 37.5158C65.9777 37.5139 66.1321 37.4691 66.2664 37.3862C66.4008 37.3033 66.51 37.1854 66.5824 37.0451C66.6549 36.9048 66.6878 36.7475 66.6777 36.59C66.6675 36.4324 66.6147 36.2806 66.5249 36.1508L63.3149 31.6508C63.236 31.5375 63.1304 31.4453 63.0074 31.3826C62.8845 31.3198 62.7479 31.2883 62.6099 31.2908C62.4743 31.2907 62.3408 31.3234 62.2207 31.3861C62.1005 31.4488 61.9973 31.5396 61.9199 31.6508L58.7099 36.1358C58.6037 36.2791 58.5459 36.4525 58.5449 36.6308C58.5449 36.8655 58.6381 37.0906 58.8041 37.2566C58.97 37.4226 59.1951 37.5158 59.4299 37.5158C59.8543 37.5197 60.2603 37.6901 60.5604 37.9902C60.8606 38.2904 61.0309 38.6964 61.0349 39.1208V56.7308C61.0349 57.1525 61.2024 57.5569 61.5006 57.8551C61.7987 58.1533 62.2032 58.3208 62.6249 58.3208C63.0466 58.3208 63.451 58.1533 63.7492 57.8551C64.0473 57.5569 64.2149 57.1525 64.2149 56.7308V45.5108C64.2534 45.1138 64.4383 44.7454 64.7336 44.4774C65.029 44.2093 65.4135 44.0608 65.8124 44.0608C66.2112 44.0608 66.5958 44.2093 66.8911 44.4774C67.1864 44.7454 67.3714 45.1138 67.4099 45.5108V56.7308C67.4099 57.9999 66.9057 59.217 66.0084 60.1143C65.111 61.0117 63.8939 61.5158 62.6249 61.5158Z" fill="black"/>
<path d="M69.015 71.1309H33.81C33.413 71.0924 33.0446 70.9075 32.7765 70.6122C32.5084 70.3168 32.3599 69.9323 32.3599 69.5334C32.3599 69.1346 32.5084 68.75 32.7765 68.4547C33.0446 68.1594 33.413 67.9744 33.81 67.9359H69.015V66.3309H27.405V67.9359C27.8019 67.9744 28.1704 68.1594 28.4384 68.4547C28.7065 68.75 28.855 69.1346 28.855 69.5334C28.855 69.9323 28.7065 70.3168 28.4384 70.6122C28.1704 70.9075 27.8019 71.0924 27.405 71.1309C26.5562 71.127 25.7436 70.787 25.1448 70.1855C24.5461 69.5839 24.21 68.7697 24.21 67.9209V66.3309C24.2139 65.4848 24.5518 64.6744 25.1501 64.0761C25.7484 63.4778 26.5588 63.1399 27.405 63.1359H69.015C69.8611 63.1399 70.6715 63.4778 71.2698 64.0761C71.8681 64.6744 72.206 65.4848 72.21 66.3309V67.9359C72.206 68.7821 71.8681 69.5924 71.2698 70.1908C70.6715 70.7891 69.8611 71.127 69.015 71.1309Z" fill="black"/>
</g>
<defs>
<clipPath id="clip0">
<rect width="48" height="48" fill="white" transform="translate(24.21 24.781)"/>
</clipPath>
</defs>
</svg>
