<svg width="97" height="97" viewBox="0 0 97 97" fill="none" xmlns="http://www.w3.org/2000/svg">
<path fill-rule="evenodd" clip-rule="evenodd" d="M48.21 96.9099C74.7196 96.9099 96.21 75.4196 96.21 48.9099C96.21 22.4002 74.7196 0.909912 48.21 0.909912C21.7003 0.909912 0.209961 22.4002 0.209961 48.9099C0.209961 75.4196 21.7003 96.9099 48.21 96.9099Z" fill="#EBD9D2"/>
<g clip-path="url(#clip0)">
<path d="M64.155 24.91H40.155C38.0358 24.914 36.0045 25.7576 34.506 27.2561C33.0075 28.7546 32.1639 30.7858 32.16 32.905V64.915C32.1985 65.312 32.3834 65.6804 32.6787 65.9485C32.9741 66.2165 33.3586 66.365 33.7575 66.365C34.1563 66.365 34.5409 66.2165 34.8362 65.9485C35.1315 65.6804 35.3164 65.312 35.355 64.915V32.905C35.355 31.632 35.8607 30.4111 36.7608 29.5109C37.661 28.6107 38.8819 28.105 40.155 28.105H64.155C65.428 28.105 66.6489 28.6107 67.5491 29.5109C68.4492 30.4111 68.955 31.632 68.955 32.905V64.915C68.955 66.188 68.4492 67.4089 67.5491 68.3091C66.6489 69.2093 65.428 69.715 64.155 69.715H33.765C32.4919 69.715 31.271 69.2093 30.3708 68.3091C29.4707 67.4089 28.965 66.188 28.965 64.915V32.905C28.965 32.4734 28.7935 32.0594 28.4883 31.7542C28.1831 31.449 27.7691 31.2775 27.3375 31.2775C26.9058 31.2775 26.4919 31.449 26.1866 31.7542C25.8814 32.0594 25.71 32.4734 25.71 32.905V64.915C25.7119 65.9694 25.922 67.0131 26.3283 67.9861C26.7345 68.9591 27.3289 69.8424 28.0772 70.5852C28.8256 71.328 29.7133 71.9157 30.6893 72.3147C31.6654 72.7136 32.7106 72.9159 33.765 72.91H64.155C65.2094 72.9159 66.2546 72.7136 67.2306 72.3147C68.2066 71.9157 69.0943 71.328 69.8427 70.5852C70.5911 69.8424 71.1854 68.9591 71.5916 67.9861C71.9979 67.0131 72.208 65.9694 72.21 64.915V32.905C72.208 31.8506 71.9979 30.8069 71.5916 29.8339C71.1854 28.8609 70.5911 27.9776 69.8427 27.2348C69.0943 26.492 68.2066 25.9043 67.2306 25.5053C66.2546 25.1064 65.2094 24.9041 64.155 24.91Z" fill="black"/>
<path d="M64.1552 37.7051H40.1552C39.9324 37.7267 39.7076 37.7015 39.4951 37.631C39.2827 37.5606 39.0873 37.4465 38.9215 37.296C38.7558 37.1456 38.6234 36.9621 38.5327 36.7574C38.4421 36.5528 38.3953 36.3314 38.3953 36.1076C38.3953 35.8837 38.4421 35.6624 38.5327 35.4577C38.6234 35.253 38.7558 35.0696 38.9215 34.9191C39.0873 34.7687 39.2827 34.6546 39.4951 34.5841C39.7076 34.5137 39.9324 34.4884 40.1552 34.5101H64.1552C64.378 34.4884 64.6029 34.5137 64.8154 34.5841C65.0278 34.6546 65.2232 34.7687 65.3889 34.9191C65.5547 35.0696 65.6871 35.253 65.7778 35.4577C65.8684 35.6624 65.9152 35.8837 65.9152 36.1076C65.9152 36.3314 65.8684 36.5528 65.7778 36.7574C65.6871 36.9621 65.5547 37.1456 65.3889 37.296C65.2232 37.4465 65.0278 37.5606 64.8154 37.631C64.6029 37.7015 64.378 37.7267 64.1552 37.7051Z" fill="black"/>
<path d="M64.1547 63.3248H40.1547C39.7578 63.2863 39.3893 63.1013 39.1213 62.806C38.8532 62.5107 38.7047 62.1261 38.7047 61.7273C38.7047 61.3284 38.8532 60.9439 39.1213 60.6486C39.3893 60.3532 39.7578 60.1683 40.1547 60.1298H64.1547C64.3775 60.1082 64.6024 60.1334 64.8148 60.2038C65.0273 60.2743 65.2227 60.3884 65.3884 60.5388C65.5542 60.6893 65.6866 60.8727 65.7773 61.0774C65.8679 61.2821 65.9147 61.5034 65.9147 61.7273C65.9147 61.9511 65.8679 62.1725 65.7773 62.3772C65.6866 62.5818 65.5542 62.7653 65.3884 62.9157C65.2227 63.0662 65.0273 63.1803 64.8148 63.2507C64.6024 63.3212 64.3775 63.3464 64.1547 63.3248Z" fill="black"/>
<path d="M64.155 47.32H54.57C54.173 47.2815 53.8046 47.0966 53.5366 46.8012C53.2685 46.5059 53.12 46.1214 53.12 45.7225C53.12 45.3237 53.2685 44.9391 53.5366 44.6438C53.8046 44.3485 54.173 44.1635 54.57 44.125H64.155C64.3778 44.1034 64.6027 44.1286 64.8151 44.1991C65.0276 44.2695 65.223 44.3836 65.3887 44.5341C65.5545 44.6845 65.6869 44.868 65.7775 45.0726C65.8682 45.2773 65.915 45.4987 65.915 45.7225C65.915 45.9464 65.8682 46.1677 65.7775 46.3724C65.6869 46.5771 65.5545 46.7605 65.3887 46.911C65.223 47.0614 65.0276 47.1755 64.8151 47.246C64.6027 47.3164 64.3778 47.3416 64.155 47.32Z" fill="black"/>
<path d="M64.155 55.3147H54.57C54.173 55.2762 53.8046 55.0913 53.5366 54.796C53.2685 54.5006 53.12 54.1161 53.12 53.7172C53.12 53.3184 53.2685 52.9338 53.5366 52.6385C53.8046 52.3432 54.173 52.1583 54.57 52.1197H64.155C64.3778 52.0981 64.6027 52.1234 64.8151 52.1938C65.0276 52.2643 65.223 52.3784 65.3887 52.5288C65.5545 52.6793 65.6869 52.8627 65.7775 53.0674C65.8682 53.272 65.915 53.4934 65.915 53.7172C65.915 53.9411 65.8682 54.1624 65.7775 54.3671C65.6869 54.5718 65.5545 54.7552 65.3887 54.9057C65.223 55.0561 65.0276 55.1702 64.8151 55.2407C64.6027 55.3111 64.3778 55.3364 64.155 55.3147Z" fill="black"/>
<path d="M48.2098 56.9201H41.7598C40.9137 56.9161 40.1033 56.5782 39.505 55.9799C38.9066 55.3816 38.5688 54.5712 38.5648 53.7251V45.7151C38.5688 44.8689 38.9066 44.0585 39.505 43.4602C40.1033 42.8619 40.9137 42.524 41.7598 42.5201H48.2098C49.056 42.524 49.8663 42.8619 50.4647 43.4602C51.063 44.0585 51.4009 44.8689 51.4048 45.7151V53.7251C51.4009 54.5712 51.063 55.3816 50.4647 55.9799C49.8663 56.5782 49.056 56.9161 48.2098 56.9201ZM41.7598 45.7151V53.7251H48.2098V45.7151H41.7598Z" fill="black"/>
</g>
<defs>
<clipPath id="clip0">
<rect width="48" height="48" fill="white" transform="translate(24.21 24.9099)"/>
</clipPath>
</defs>
</svg>
