<svg width="31" height="30" viewBox="0 0 31 30" fill="none" xmlns="http://www.w3.org/2000/svg">
<path fill-rule="evenodd" clip-rule="evenodd" d="M4.2673 4.99973C4.2673 4.58598 4.60673 4.24973 5.02285 4.24973H25.15C25.5662 4.24973 25.9043 4.58598 25.9043 4.99973V24.8997C25.9043 25.3135 25.5662 25.6497 25.15 25.6497H5.02285C4.60673 25.6497 4.2673 25.3135 4.2673 24.8997V4.99973ZM27.6569 24.8998V4.99976C27.6569 3.61976 26.533 2.49976 25.1439 2.49976H5.02674C3.64009 2.49976 2.51367 3.61976 2.51367 4.99976V24.8998C2.51367 26.281 3.64009 27.3998 5.02674 27.3998H25.1439C26.533 27.3998 27.6569 26.281 27.6569 24.8998ZM7.79326 13.18H11.5459V9.52499H7.79326V13.18ZM7.05782 14.43H12.2801C12.5705 14.43 12.8031 14.2012 12.8031 13.9175V8.78749C12.8031 8.50499 12.5705 8.27499 12.2801 8.27499H7.05782C6.76993 8.27499 6.5361 8.50499 6.5361 8.78749V13.9175C6.5361 14.2012 6.76993 14.43 7.05782 14.43ZM15.1806 9.75137H22.0095C22.3565 9.75137 22.6381 9.47137 22.6381 9.12637C22.6381 8.78137 22.3565 8.50137 22.0095 8.50137H15.1806C14.8336 8.50137 14.552 8.78137 14.552 9.12637C14.552 9.47137 14.8336 9.75137 15.1806 9.75137ZM15.1806 13.8242H22.0095C22.3565 13.8242 22.6381 13.5442 22.6381 13.1992C22.6381 12.8542 22.3565 12.5742 22.0095 12.5742H15.1806C14.8336 12.5742 14.552 12.8542 14.552 13.1992C14.552 13.5442 14.8336 13.8242 15.1806 13.8242ZM7.08851 17.9228H22.0085C22.3568 17.9228 22.6371 17.6428 22.6371 17.2978C22.6371 16.9528 22.3568 16.6728 22.0085 16.6728H7.08851C6.74153 16.6728 6.45993 16.9528 6.45993 17.2978C6.45993 17.6428 6.74153 17.9228 7.08851 17.9228ZM7.08851 21.9706H18.2949C18.6418 21.9706 18.9234 21.6906 18.9234 21.3456C18.9234 21.0006 18.6418 20.7206 18.2949 20.7206H7.08851C6.74153 20.7206 6.45993 21.0006 6.45993 21.3456C6.45993 21.6906 6.74153 21.9706 7.08851 21.9706Z" fill="#1D293F"/>
<mask id="mask0" mask-type="alpha" maskUnits="userSpaceOnUse" x="2" y="2" width="26" height="26">
<path fill-rule="evenodd" clip-rule="evenodd" d="M4.2673 4.99973C4.2673 4.58598 4.60673 4.24973 5.02285 4.24973H25.15C25.5662 4.24973 25.9043 4.58598 25.9043 4.99973V24.8997C25.9043 25.3135 25.5662 25.6497 25.15 25.6497H5.02285C4.60673 25.6497 4.2673 25.3135 4.2673 24.8997V4.99973ZM27.6569 24.8998V4.99976C27.6569 3.61976 26.533 2.49976 25.1439 2.49976H5.02674C3.64009 2.49976 2.51367 3.61976 2.51367 4.99976V24.8998C2.51367 26.281 3.64009 27.3998 5.02674 27.3998H25.1439C26.533 27.3998 27.6569 26.281 27.6569 24.8998ZM7.79326 13.18H11.5459V9.52499H7.79326V13.18ZM7.05782 14.43H12.2801C12.5705 14.43 12.8031 14.2012 12.8031 13.9175V8.78749C12.8031 8.50499 12.5705 8.27499 12.2801 8.27499H7.05782C6.76993 8.27499 6.5361 8.50499 6.5361 8.78749V13.9175C6.5361 14.2012 6.76993 14.43 7.05782 14.43ZM15.1806 9.75137H22.0095C22.3565 9.75137 22.6381 9.47137 22.6381 9.12637C22.6381 8.78137 22.3565 8.50137 22.0095 8.50137H15.1806C14.8336 8.50137 14.552 8.78137 14.552 9.12637C14.552 9.47137 14.8336 9.75137 15.1806 9.75137ZM15.1806 13.8242H22.0095C22.3565 13.8242 22.6381 13.5442 22.6381 13.1992C22.6381 12.8542 22.3565 12.5742 22.0095 12.5742H15.1806C14.8336 12.5742 14.552 12.8542 14.552 13.1992C14.552 13.5442 14.8336 13.8242 15.1806 13.8242ZM7.08851 17.9228H22.0085C22.3568 17.9228 22.6371 17.6428 22.6371 17.2978C22.6371 16.9528 22.3568 16.6728 22.0085 16.6728H7.08851C6.74153 16.6728 6.45993 16.9528 6.45993 17.2978C6.45993 17.6428 6.74153 17.9228 7.08851 17.9228ZM7.08851 21.9706H18.2949C18.6418 21.9706 18.9234 21.6906 18.9234 21.3456C18.9234 21.0006 18.6418 20.7206 18.2949 20.7206H7.08851C6.74153 20.7206 6.45993 21.0006 6.45993 21.3456C6.45993 21.6906 6.74153 21.9706 7.08851 21.9706Z" fill="white"/>
</mask>
<g mask="url(#mask0)">
<rect width="30.1719" height="30" fill="#1D293F"/>
</g>
</svg>
