<svg width="54" height="54" viewBox="0 0 54 54" fill="none" xmlns="http://www.w3.org/2000/svg">
<path d="M41.9715 23.3064H41.8478C41.6664 23.3048 41.4897 23.2486 41.3408 23.1452C41.1918 23.0417 41.0774 22.8958 41.0126 22.7264C40.9443 22.5629 40.9262 22.3827 40.9607 22.2088C40.9951 22.035 41.0805 21.8753 41.2059 21.7501L41.2939 21.6621C41.8242 21.1298 42.1219 20.4091 42.1219 19.6577C42.1219 18.9064 41.8242 18.1857 41.2939 17.6534L39.8333 16.1937C39.3014 15.663 38.5807 15.365 37.8294 15.365C37.078 15.365 36.3573 15.663 35.8255 16.1937L35.7375 16.2817C35.6079 16.4065 35.4447 16.4907 35.2679 16.5241C35.0911 16.5575 34.9084 16.5385 34.7422 16.4695C34.576 16.4006 34.4336 16.2846 34.3324 16.1358C34.2312 15.987 34.1756 15.812 34.1725 15.6321V15.5074C34.1717 14.7559 33.8728 14.0354 33.3415 13.5041C32.8101 12.9727 32.0896 12.6739 31.3382 12.6731H29.2734C28.5219 12.6739 27.8015 12.9727 27.2701 13.5041C26.7387 14.0354 26.4399 14.7559 26.4391 15.5074V15.6321C26.4344 15.8107 26.378 15.9841 26.2768 16.1313C26.1755 16.2785 26.0338 16.3933 25.8687 16.4616C25.7036 16.5299 25.5223 16.5489 25.3466 16.5163C25.1709 16.4837 25.0085 16.4008 24.8789 16.2778L24.7958 16.1898C24.2639 15.6592 23.5432 15.3611 22.7919 15.3611C22.0405 15.3611 21.3199 15.6592 20.788 16.1898L19.3225 17.6495C18.7923 18.1818 18.4945 18.9025 18.4945 19.6539C18.4945 20.4052 18.7923 21.126 19.3225 21.6583L19.4105 21.7462C19.5372 21.8758 19.622 22.0405 19.6539 22.219C19.6857 22.3974 19.6633 22.5813 19.5893 22.7467C19.523 22.9115 19.409 23.0528 19.262 23.1525C19.1149 23.2522 18.9415 23.3058 18.7638 23.3064H18.6401C17.8886 23.3072 17.1681 23.6061 16.6368 24.1374C16.1054 24.6688 15.8066 25.3892 15.8058 26.1407V28.2055C15.8066 28.957 16.1054 29.6774 16.6368 30.2088C17.1681 30.7401 17.8886 31.039 18.6401 31.0398H18.7638C18.9452 31.0414 19.1218 31.0976 19.2708 31.201C19.4198 31.3045 19.5341 31.4504 19.599 31.6198C19.6673 31.7833 19.6853 31.9635 19.6509 32.1374C19.6165 32.3112 19.5311 32.4709 19.4057 32.5961L19.3177 32.6841C18.7874 33.2164 18.4897 33.9371 18.4897 34.6884C18.4897 35.4398 18.7874 36.1605 19.3177 36.6928L20.7774 38.1515C21.3092 38.6827 22.0301 38.9811 22.7817 38.9811C23.5334 38.9811 24.2543 38.6827 24.7861 38.1515L24.8741 38.0636C25.0038 37.937 25.1685 37.8523 25.3469 37.8204C25.5252 37.7885 25.7091 37.8109 25.8746 37.8847C26.0394 37.9508 26.1807 38.0646 26.2805 38.2115C26.3802 38.3584 26.4337 38.5317 26.4343 38.7093V38.834C26.434 39.2069 26.5073 39.5762 26.6499 39.9208C26.7925 40.2653 27.0016 40.5784 27.2653 40.8421C27.529 41.1058 27.842 41.3149 28.1866 41.4575C28.5312 41.6001 28.9005 41.6734 29.2734 41.6731H31.3382C32.0896 41.6723 32.8101 41.3735 33.3415 40.8421C33.8728 40.3107 34.1717 39.5903 34.1725 38.8388V38.7141C34.1772 38.5355 34.2336 38.3621 34.3348 38.2149C34.436 38.0677 34.5778 37.9529 34.7429 37.8846C34.9079 37.8163 35.0893 37.7973 35.265 37.8299C35.4406 37.8625 35.6031 37.9454 35.7327 38.0684L35.8206 38.1564C36.3525 38.687 37.0732 38.9851 37.8245 38.9851C38.5759 38.9851 39.2965 38.687 39.8284 38.1564L41.2891 36.6977C41.8193 36.1654 42.1171 35.4446 42.1171 34.6933C42.1171 33.9419 41.8193 33.2212 41.2891 32.6889L41.2011 32.6009C41.0744 32.4713 40.9896 32.3066 40.9577 32.1282C40.9258 31.9498 40.9483 31.7659 41.0223 31.6004C41.0884 31.4354 41.2024 31.2939 41.3494 31.1941C41.4965 31.0942 41.67 31.0405 41.8478 31.0398H41.9715C42.723 31.039 43.4434 30.7401 43.9748 30.2088C44.5062 29.6774 44.805 28.957 44.8058 28.2055V26.1407C44.805 25.3892 44.5062 24.6688 43.9748 24.1374C43.4434 23.6061 42.723 23.3072 41.9715 23.3064Z" fill="#F58679"/>
<path d="M37.6288 23.0481H37.4968C37.3034 23.0464 37.1149 22.9864 36.956 22.8761C36.797 22.7657 36.675 22.61 36.6058 22.4293C36.533 22.2549 36.5137 22.0627 36.5504 21.8772C36.5872 21.6917 36.6783 21.5213 36.8121 21.3878L36.9059 21.2939C37.4716 20.7261 37.7893 19.9572 37.7893 19.1556C37.7893 18.3541 37.4716 17.5852 36.9059 17.0173L35.3477 15.4602C34.7803 14.894 34.0115 14.5761 33.2099 14.5761C32.4084 14.5761 31.6396 14.894 31.0722 15.4602L30.9783 15.554C30.84 15.6872 30.6659 15.777 30.4773 15.8126C30.2887 15.8482 30.0938 15.828 29.9165 15.7544C29.7392 15.6808 29.5873 15.5571 29.4793 15.3984C29.3713 15.2397 29.312 15.0529 29.3087 14.861V14.728C29.3079 13.9263 28.9891 13.1577 28.4222 12.5908C27.8554 12.024 27.0868 11.7052 26.2851 11.7043H24.0823C23.2807 11.7052 22.5121 12.024 21.9452 12.5908C21.3784 13.1577 21.0595 13.9263 21.0587 14.728V14.861C21.0537 15.0515 20.9935 15.2365 20.8855 15.3936C20.7775 15.5507 20.6263 15.6731 20.4502 15.7459C20.2741 15.8188 20.0806 15.8391 19.8932 15.8043C19.7058 15.7695 19.5325 15.6811 19.3943 15.5499L19.3056 15.456C18.7382 14.8899 17.9694 14.572 17.1678 14.572C16.3663 14.572 15.5974 14.8899 15.03 15.456L13.4667 17.0132C12.901 17.5811 12.5833 18.35 12.5833 19.1515C12.5833 19.9531 12.901 20.722 13.4667 21.2898L13.5605 21.3837C13.6956 21.5219 13.7861 21.6976 13.8201 21.888C13.8541 22.0783 13.8302 22.2745 13.7513 22.451C13.6805 22.6268 13.5589 22.7776 13.402 22.8839C13.2452 22.9903 13.0601 23.0474 12.8706 23.0481H12.7386C11.9369 23.0489 11.1683 23.3677 10.6015 23.9346C10.0346 24.5015 9.71578 25.2701 9.71497 26.0717V28.2745C9.71578 29.0761 10.0346 29.8447 10.6015 30.4116C11.1683 30.9785 11.9369 31.2973 12.7386 31.2981H12.8706C13.0641 31.2998 13.2526 31.3597 13.4115 31.4701C13.5704 31.5805 13.6924 31.7361 13.7616 31.9168C13.8344 32.0913 13.8537 32.2835 13.817 32.469C13.7803 32.6545 13.6892 32.8249 13.5553 32.9584L13.4615 33.0523C12.8958 33.6201 12.5782 34.389 12.5782 35.1905C12.5782 35.9921 12.8958 36.761 13.4615 37.3288L15.0187 38.885C15.586 39.4517 16.3551 39.77 17.157 39.77C17.9589 39.77 18.7279 39.4517 19.2953 38.885L19.3891 38.7912C19.5275 38.6561 19.7032 38.5658 19.8935 38.5317C20.0838 38.4977 20.2799 38.5216 20.4565 38.6004C20.6323 38.6708 20.7831 38.7922 20.8895 38.949C20.9958 39.1057 21.053 39.2906 21.0536 39.48V39.6131C21.0533 40.0109 21.1314 40.4049 21.2836 40.7724C21.4357 41.14 21.6588 41.474 21.9401 41.7553C22.2214 42.0366 22.5554 42.2597 22.923 42.4118C23.2905 42.564 23.6845 42.6421 24.0823 42.6418H26.2851C27.0868 42.641 27.8554 42.3222 28.4222 41.7553C28.9891 41.1885 29.3079 40.4199 29.3087 39.6182V39.4852C29.3137 39.2946 29.3739 39.1096 29.4819 38.9526C29.5899 38.7955 29.7411 38.6731 29.9172 38.6002C30.0934 38.5274 30.2868 38.5071 30.4742 38.5419C30.6616 38.5767 30.8349 38.6651 30.9732 38.7963L31.067 38.8902C31.6344 39.4563 32.4032 39.7742 33.2048 39.7742C34.0063 39.7742 34.7751 39.4563 35.3426 38.8902L36.9008 37.334C37.4665 36.7661 37.7841 35.9973 37.7841 35.1957C37.7841 34.3942 37.4665 33.6253 36.9008 33.0574L36.8069 32.9636C36.6718 32.8253 36.5813 32.6496 36.5473 32.4592C36.5133 32.2689 36.5373 32.0727 36.6162 31.8962C36.6868 31.7202 36.8083 31.5693 36.9652 31.4627C37.1221 31.3561 37.3072 31.2988 37.4968 31.2981H37.6288C38.4305 31.2973 39.1991 30.9785 39.766 30.4116C40.3328 29.8447 40.6516 29.0761 40.6525 28.2745V26.0717C40.6516 25.2701 40.3328 24.5015 39.766 23.9346C39.1991 23.3677 38.4305 23.0489 37.6288 23.0481ZM38.59 28.2745C38.5897 28.5293 38.4883 28.7736 38.3082 28.9538C38.128 29.134 37.8837 29.2353 37.6288 29.2356H37.4968C36.8984 29.2407 36.3147 29.4218 35.8185 29.7564C35.3223 30.091 34.9356 30.5642 34.7065 31.1171C34.4775 31.67 34.4162 32.2781 34.5304 32.8656C34.6446 33.4531 34.9292 33.9939 35.3487 34.4207L35.4416 34.5146C35.6216 34.6951 35.7227 34.9397 35.7227 35.1947C35.7227 35.4497 35.6216 35.6942 35.4416 35.8748L33.8833 37.4309C33.7031 37.6112 33.4586 37.7124 33.2037 37.7124C32.9489 37.7124 32.7044 37.6112 32.5242 37.4309L32.4313 37.3371C32.0043 36.9181 31.4635 36.6339 30.8762 36.52C30.2889 36.406 29.6811 36.4674 29.1284 36.6963C28.5757 36.9253 28.1025 37.3118 27.7679 37.8077C27.4332 38.3036 27.2518 38.887 27.2462 39.4852V39.6182C27.2459 39.873 27.1446 40.1173 26.9644 40.2975C26.7842 40.4777 26.5399 40.5791 26.2851 40.5793H24.0823C23.8275 40.5791 23.5832 40.4777 23.403 40.2975C23.2228 40.1173 23.1215 39.873 23.1212 39.6182V39.4852C23.1183 38.8858 22.9385 38.3005 22.6042 37.8029C22.2699 37.3053 21.7961 36.9175 21.2423 36.6882C20.6885 36.4589 20.0792 36.3982 19.491 36.5138C18.9029 36.6295 18.3619 36.9162 17.9361 37.3381L17.8422 37.432C17.6617 37.6117 17.4174 37.7126 17.1627 37.7126C16.9079 37.7126 16.6636 37.6117 16.4831 37.432L14.9259 35.8758C14.7458 35.6953 14.6447 35.4507 14.6447 35.1957C14.6447 34.9407 14.7458 34.6961 14.9259 34.5156L15.0197 34.4218C15.4396 33.9949 15.7246 33.4539 15.8389 32.8662C15.9533 32.2784 15.8921 31.67 15.6628 31.1169C15.4336 30.5637 15.0466 30.0903 14.55 29.7558C14.0534 29.4212 13.4693 29.2403 12.8706 29.2356H12.7386C12.4838 29.2353 12.2395 29.134 12.0593 28.9538C11.8791 28.7736 11.7777 28.5293 11.7775 28.2745V26.0717C11.7777 25.8169 11.8791 25.5726 12.0593 25.3924C12.2395 25.2122 12.4838 25.1109 12.7386 25.1106H12.8706C13.469 25.1055 14.0527 24.9244 14.5489 24.5898C15.0451 24.2552 15.4319 23.7819 15.6609 23.2291C15.89 22.6762 15.9512 22.0681 15.837 21.4806C15.7228 20.8931 15.4382 20.3523 15.0187 19.9255L14.9259 19.8316C14.7459 19.6512 14.6448 19.4068 14.6448 19.152C14.6448 18.8972 14.7459 18.6528 14.9259 18.4724L16.4831 16.9142C16.6633 16.734 16.9078 16.6327 17.1627 16.6327C17.4175 16.6327 17.662 16.734 17.8422 16.9142L17.9351 17.0081C18.3619 17.4274 18.9028 17.7118 19.4901 17.826C20.0775 17.9402 20.6855 17.879 21.2384 17.6501C21.7913 17.4212 22.2646 17.0347 22.5994 16.5388C22.9342 16.0428 23.1156 15.4594 23.1212 14.861V14.728C23.1215 14.4731 23.2228 14.2288 23.403 14.0487C23.5832 13.8685 23.8275 13.7671 24.0823 13.7668H26.2851C26.5399 13.7671 26.7842 13.8685 26.9644 14.0487C27.1446 14.2288 27.2459 14.4731 27.2462 14.728V14.861C27.2515 15.4594 27.4328 16.0429 27.7675 16.539C28.1021 17.035 28.5754 17.4216 29.1282 17.6505C29.6811 17.8794 30.2891 17.9406 30.8765 17.8263C31.4638 17.7121 32.0046 17.4275 32.4313 17.0081L32.5252 16.9142C32.7054 16.734 32.9499 16.6327 33.2048 16.6327C33.4597 16.6327 33.7041 16.734 33.8844 16.9142L35.4416 18.4724C35.6215 18.6528 35.7226 18.8972 35.7226 19.152C35.7226 19.4068 35.6215 19.6512 35.4416 19.8316L35.3477 19.9255C34.9281 20.3523 34.6435 20.8933 34.5294 21.4809C34.4152 22.0684 34.4765 22.6766 34.7057 23.2295C34.9349 23.7825 35.3218 24.2557 35.8181 24.5902C36.3145 24.9247 36.8983 25.1057 37.4968 25.1106H37.6288C37.8837 25.1109 38.128 25.2122 38.3082 25.3924C38.4883 25.5726 38.5897 25.8169 38.59 26.0717V28.2745Z" fill="#333333"/>
<path d="M25.1837 19.9543C23.756 19.9543 22.3603 20.3777 21.1732 21.1709C19.9861 21.9641 19.0608 23.0915 18.5145 24.4106C17.9681 25.7297 17.8251 27.1811 18.1037 28.5814C18.3822 29.9817 19.0697 31.268 20.0793 32.2775C21.0888 33.2871 22.3751 33.9746 23.7754 34.2531C25.1757 34.5317 26.6271 34.3887 27.9462 33.8424C29.2652 33.296 30.3927 32.3707 31.1859 31.1836C31.9791 29.9965 32.4024 28.6008 32.4024 27.1731C32.4003 25.2592 31.639 23.4244 30.2857 22.0711C28.9324 20.7178 27.0976 19.9565 25.1837 19.9543ZM25.1837 32.3293C24.1639 32.3293 23.167 32.0269 22.3191 31.4604C21.4711 30.8938 20.8102 30.0885 20.42 29.1463C20.0297 28.2041 19.9276 27.1674 20.1265 26.1672C20.3255 25.1669 20.8166 24.2482 21.5377 23.5271C22.2588 22.806 23.1776 22.3149 24.1778 22.1159C25.178 21.917 26.2147 22.0191 27.1569 22.4093C28.0991 22.7996 28.9044 23.4605 29.471 24.3084C30.0375 25.1564 30.3399 26.1533 30.3399 27.1731C30.3383 28.5401 29.7945 29.8507 28.8279 30.8173C27.8613 31.7839 26.5507 32.3277 25.1837 32.3293Z" fill="#333333"/>
</svg>
