<svg width="30" height="30" viewBox="0 0 30 30" fill="none" xmlns="http://www.w3.org/2000/svg">
<path d="M5.62521 5.89282C3.70207 5.89282 2.14307 7.45183 2.14307 9.37497V20.625C2.14307 22.5481 3.70207 24.1071 5.62521 24.1071H16.8776C18.8008 24.1071 20.3598 22.5481 20.3598 20.625V18.9329L25.2253 22.2668C26.114 22.8758 27.3216 22.2394 27.3216 21.162V8.83756C27.3216 7.7603 26.1144 7.12387 25.2255 7.73255L20.3598 11.0648V9.37496C20.3598 7.45183 18.8008 5.89282 16.8776 5.89282H5.62521ZM20.3598 16.9846V13.0127L25.7144 9.34564V20.6537L20.3598 16.9846ZM18.7526 9.37496V20.625C18.7526 21.6605 17.9132 22.5 16.8776 22.5H5.62521C4.58967 22.5 3.75021 21.6605 3.75021 20.625V9.37497C3.75021 8.33943 4.58968 7.49997 5.62521 7.49997H16.8776C17.9132 7.49997 18.7526 8.33943 18.7526 9.37496Z" fill="#212121"/>
</svg>
