<svg width="54" height="54" viewBox="0 0 54 54" fill="none" xmlns="http://www.w3.org/2000/svg">
<rect x="14.5745" y="15.5049" width="29.9101" height="26.8574" rx="3" fill="#FBDFAE"/>
<g clip-path="url(#clip0)">
<path d="M40.3162 11.3623H17.0662C16.5312 11.3623 16.0974 11.796 16.0974 12.3311V17.1748H11.2537C10.7187 17.1748 10.2849 17.6085 10.2849 18.1436V38.4873C10.2849 40.624 12.0232 42.3623 14.1599 42.3623H37.4099C39.5502 42.3623 41.2849 40.6307 41.2849 38.4873V12.3311C41.2849 11.796 40.8512 11.3623 40.3162 11.3623ZM14.1599 40.4248C13.0916 40.4248 12.2224 39.5557 12.2224 38.4873V19.1123H33.5349C33.5349 39.9051 33.5324 38.5102 33.5394 38.6644C33.568 39.2981 33.7503 39.8991 34.0549 40.4248H14.1599ZM39.3474 38.4873C39.3474 39.5554 38.4837 40.4248 37.4099 40.4248C36.3416 40.4248 35.4724 39.5557 35.4724 38.4873V18.1436C35.4724 17.6085 35.0387 17.1748 34.5037 17.1748H18.0349V13.2998H39.3474V38.4873Z" fill="black"/>
<path d="M31.113 20.5654H14.6443C14.1093 20.5654 13.6755 20.9991 13.6755 21.5342V27.8311C13.6755 28.3661 14.1093 28.7998 14.6443 28.7998H31.113C31.6481 28.7998 32.0818 28.3661 32.0818 27.8311V21.5342C32.0818 20.9991 31.6481 20.5654 31.113 20.5654ZM30.1443 26.8623H15.613V22.5029H30.1443V26.8623Z" fill="black"/>
<path d="M21.4255 30.2529H14.6443C14.1093 30.2529 13.6755 30.6866 13.6755 31.2217V38.0029C13.6755 38.538 14.1093 38.9717 14.6443 38.9717H21.4255C21.9605 38.9717 22.3943 38.538 22.3943 38.0029V31.2217C22.3943 30.6866 21.9605 30.2529 21.4255 30.2529ZM20.4568 37.0342H15.613V32.1904H20.4568V37.0342Z" fill="black"/>
<path d="M31.113 30.2529H24.8162C24.2812 30.2529 23.8474 30.6866 23.8474 31.2217C23.8474 31.7567 24.2812 32.1904 24.8162 32.1904H31.113C31.6481 32.1904 32.0818 31.7567 32.0818 31.2217C32.0818 30.6866 31.6481 30.2529 31.113 30.2529Z" fill="black"/>
<path d="M31.113 33.6436H24.8162C24.2812 33.6436 23.8474 34.0773 23.8474 34.6123C23.8474 35.1474 24.2812 35.5811 24.8162 35.5811H31.113C31.6481 35.5811 32.0818 35.1474 32.0818 34.6123C32.0818 34.0773 31.6481 33.6436 31.113 33.6436Z" fill="black"/>
<path d="M31.113 37.0342H24.8162C24.2812 37.0342 23.8474 37.4679 23.8474 38.0029C23.8474 38.538 24.2812 38.9717 24.8162 38.9717H31.113C31.6481 38.9717 32.0818 38.538 32.0818 38.0029C32.0818 37.4679 31.6481 37.0342 31.113 37.0342Z" fill="black"/>
</g>
<defs>
<clipPath id="clip0">
<rect width="31" height="31" fill="white" transform="translate(10.2849 11.3623)"/>
</clipPath>
</defs>
</svg>
