<svg width="21" height="21" viewBox="0 0 21 21" fill="none" xmlns="http://www.w3.org/2000/svg">
<g clip-path="url(#clip0)">
<path fill-rule="evenodd" clip-rule="evenodd" d="M15.8678 18.9324C17.1057 18.9324 18.0443 17.9584 18.0443 16.836C18.0443 15.7137 17.1057 14.7396 15.8678 14.7396C14.6299 14.7396 13.6912 15.7137 13.6912 16.836C13.6912 17.9584 14.6299 18.9324 15.8678 18.9324ZM15.8678 20.8373C18.1219 20.8373 19.9492 19.0459 19.9492 16.836C19.9492 14.6262 18.1219 12.8347 15.8678 12.8347C13.6136 12.8347 11.7863 14.6262 11.7863 16.836C11.7863 19.0459 13.6136 20.8373 15.8678 20.8373Z" fill="#FF5A5A"/>
<path fill-rule="evenodd" clip-rule="evenodd" d="M7.21991 12.3271C6.95297 12.7804 7.10768 13.3579 7.56547 13.617L11.4173 15.7972C11.8751 16.0563 12.4626 15.8989 12.7295 15.4456C12.9965 14.9923 12.8418 14.4148 12.384 14.1557L8.53214 11.9756C8.07435 11.7165 7.48685 11.8738 7.21991 12.3271Z" fill="#FF5A5A"/>
<path fill-rule="evenodd" clip-rule="evenodd" d="M15.8668 2.74228C17.1047 2.74228 18.0433 3.71632 18.0433 4.83866C18.0433 5.961 17.1047 6.93504 15.8668 6.93504C14.6289 6.93504 13.6902 5.961 13.6902 4.83866C13.6902 3.71632 14.6289 2.74228 15.8668 2.74228ZM15.8668 0.837356C18.1209 0.837356 19.9483 2.6288 19.9483 4.83866C19.9483 7.04852 18.1209 8.83997 15.8668 8.83997C13.6126 8.83997 11.7853 7.04852 11.7853 4.83866C11.7853 2.6288 13.6126 0.837356 15.8668 0.837356Z" fill="#FF5A5A"/>
<path fill-rule="evenodd" clip-rule="evenodd" d="M7.20582 10.1227C6.93122 9.67402 7.07618 9.0941 7.52959 8.8274L11.7207 6.36212C12.1741 6.09542 12.7643 6.24293 13.0389 6.6916C13.3135 7.14027 13.1686 7.72019 12.7151 7.98689L8.52399 10.4522C8.07058 10.7189 7.48042 10.5714 7.20582 10.1227Z" fill="#FF5A5A"/>
<path fill-rule="evenodd" clip-rule="evenodd" d="M4.9814 13.5994C6.2193 13.5994 7.15797 12.6254 7.15797 11.503C7.15797 10.3807 6.2193 9.40663 4.9814 9.40663C3.7435 9.40663 2.80482 10.3807 2.80482 11.503C2.80482 12.6254 3.7435 13.5994 4.9814 13.5994ZM4.9814 15.5043C7.23555 15.5043 9.06289 13.7129 9.06289 11.503C9.06289 9.29315 7.23555 7.50171 4.9814 7.50171C2.72725 7.50171 0.899902 9.29315 0.899902 11.503C0.899902 13.7129 2.72725 15.5043 4.9814 15.5043Z" fill="#FF5A5A"/>
</g>
<defs>
<clipPath id="clip0">
<rect width="20" height="20" fill="white" transform="translate(0.899902 0.837402)"/>
</clipPath>
</defs>
</svg>
