<svg width="54" height="54" viewBox="0 0 54 54" fill="none" xmlns="http://www.w3.org/2000/svg">
<rect x="0.900391" y="0.586914" width="53" height="53" rx="5" fill="#FBDFAE"/>
<g clip-path="url(#clip0)">
<path d="M38.197 24.3757C38.6614 23.9263 38.8212 23.2621 38.6215 22.6478C38.4217 22.0336 37.9024 21.5941 37.2582 21.4992L31.665 20.6852C31.5551 20.6702 31.4602 20.6003 31.4103 20.5005L28.9134 15.4317C28.6287 14.8524 28.0444 14.4928 27.4002 14.4928C26.756 14.4928 26.1767 14.8524 25.887 15.4317L23.3851 20.5005C23.3352 20.6003 23.2403 20.6702 23.1304 20.6852L17.5373 21.4992C16.898 21.5941 16.3737 22.0336 16.1739 22.6478C15.9742 23.2621 16.139 23.9263 16.5984 24.3757L20.6485 28.3209C20.7284 28.4008 20.7633 28.5107 20.7433 28.6205L19.7895 34.1937C19.6796 34.8329 19.9393 35.4622 20.4587 35.8417C20.983 36.2212 21.6622 36.2712 22.2365 35.9715L27.2404 33.3398C27.3403 33.2898 27.4551 33.2898 27.555 33.3398L32.5589 35.9715C32.8086 36.1014 33.0783 36.1663 33.3429 36.1663C33.6925 36.1663 34.0371 36.0564 34.3317 35.8417C34.8561 35.4622 35.1108 34.8279 35.0009 34.1937L34.0471 28.6205C34.0271 28.5107 34.0671 28.4008 34.142 28.3209L38.197 24.3757ZM32.7237 28.8503L33.6775 34.4184C33.7075 34.6032 33.5926 34.7131 33.5427 34.748C33.4928 34.783 33.3529 34.8629 33.1881 34.773L28.1842 32.1412C27.9395 32.0114 27.6699 31.9465 27.4002 31.9465C27.1305 31.9465 26.8609 32.0114 26.6162 32.1412L21.6123 34.773C21.4425 34.8629 21.3076 34.783 21.2577 34.748C21.2078 34.7131 21.0929 34.6032 21.1229 34.4184L22.0767 28.8453C22.1716 28.2959 21.9868 27.7416 21.5923 27.3521L17.5422 23.4069C17.4074 23.2771 17.4374 23.1223 17.4574 23.0623C17.4773 23.0024 17.5422 22.8576 17.732 22.8326L23.3252 22.0186C23.8745 21.9387 24.3489 21.5941 24.5936 21.0947L27.0956 16.0259C27.1805 15.8561 27.3353 15.8362 27.4002 15.8362C27.4651 15.8362 27.6199 15.8561 27.7048 16.0259L30.2068 21.0947C30.4515 21.5941 30.9259 21.9387 31.4752 22.0186L37.0684 22.8326C37.2532 22.8576 37.3231 23.0024 37.3431 23.0623C37.363 23.1223 37.393 23.2771 37.2582 23.4069L33.2081 27.3521C32.8086 27.7416 32.6288 28.3009 32.7237 28.8503Z" fill="#242424" stroke="#242424" stroke-width="0.599268" stroke-miterlimit="10"/>
<path d="M35.2805 15.4316C34.9809 15.2119 34.5564 15.2818 34.3366 15.5814L33.6225 16.5652C33.4028 16.8648 33.4727 17.2893 33.7723 17.5091C33.8922 17.594 34.032 17.6389 34.1669 17.6389C34.3766 17.6389 34.5813 17.544 34.7112 17.3592L35.4253 16.3754C35.65 16.0708 35.5801 15.6513 35.2805 15.4316Z" fill="#242424" stroke="#242424" stroke-width="0.599268" stroke-miterlimit="10"/>
<path d="M21.1779 16.5653L20.4587 15.5765C20.239 15.2769 19.8195 15.207 19.5149 15.4267C19.2153 15.6464 19.1453 16.0659 19.3651 16.3706L20.0792 17.3544C20.209 17.5341 20.4188 17.634 20.6235 17.634C20.7634 17.634 20.8982 17.5941 21.0181 17.5042C21.3277 17.2844 21.3926 16.865 21.1779 16.5653Z" fill="#242424" stroke="#242424" stroke-width="0.599268" stroke-miterlimit="10"/>
<path d="M17.0927 29.6244C16.9778 29.2699 16.5983 29.0751 16.2437 29.19L15.0851 29.5645C14.7306 29.6794 14.5358 30.0589 14.6507 30.4135C14.7455 30.6981 15.0052 30.8779 15.2899 30.8779C15.3598 30.8779 15.4297 30.8679 15.4996 30.8429L16.6582 30.4684C17.0128 30.3585 17.2075 29.979 17.0927 29.6244Z" fill="#242424" stroke="#242424" stroke-width="0.599268" stroke-miterlimit="10"/>
<path d="M27.4001 37.1151C27.0256 37.1151 26.726 37.4147 26.726 37.7893V39.0078C26.726 39.3823 27.0256 39.682 27.4001 39.682C27.7747 39.682 28.0743 39.3823 28.0743 39.0078V37.7893C28.0743 37.4147 27.7747 37.1151 27.4001 37.1151Z" fill="#242424" stroke="#242424" stroke-width="0.599268" stroke-miterlimit="10"/>
<path d="M39.7202 29.5694L38.5616 29.1948C38.2071 29.08 37.8275 29.2748 37.7127 29.6293C37.5978 29.9839 37.7926 30.3634 38.1471 30.4783L39.3057 30.8528C39.3756 30.8778 39.4456 30.8878 39.5155 30.8878C39.8001 30.8878 40.0648 30.708 40.1547 30.4233C40.2646 30.0638 40.0748 29.6843 39.7202 29.5694Z" fill="#242424" stroke="#242424" stroke-width="0.599268" stroke-miterlimit="10"/>
</g>
<defs>
<clipPath id="clip0">
<rect width="26.168" height="25.7885" fill="white" transform="translate(14.3164 14.1934)"/>
</clipPath>
</defs>
</svg>
